{"glyphs":{"0":{"ha":833,"x_min":69,"x_max":764,"o":"m 417 -17 q 558 13 494 -17 q 668 101 622 43 q 739 246 714 160 q 764 444 764 332 q 739 642 764 557 q 668 784 714 728 q 558 869 622 840 q 417 897 494 897 q 275 869 339 897 q 165 784 211 840 q 94 642 119 728 q 69 444 69 557 q 94 246 69 332 q 165 101 119 160 q 275 13 211 43 q 417 -17 339 -17 m 417 714 q 469 703 444 714 q 512 662 493 692 q 542 579 531 632 q 553 444 553 526 q 542 308 553 363 q 512 223 531 254 q 469 179 493 192 q 417 167 444 167 q 365 179 389 167 q 322 223 340 192 q 292 308 303 254 q 281 444 281 363 q 292 579 281 526 q 322 662 303 632 q 365 703 340 692 q 417 714 389 714 m 417 333 q 497 364 465 333 q 528 444 528 394 q 497 525 528 494 q 417 556 465 556 q 337 525 368 556 q 306 444 306 494 q 337 364 306 394 q 417 333 368 333 "},"1":{"ha":833,"x_min":104,"x_max":751,"o":"m 751 192 l 563 192 l 563 881 l 388 881 q 279 829 335 849 q 144 794 224 810 l 144 647 l 324 647 l 324 192 l 104 192 l 104 0 l 751 0 l 751 192 "},"2":{"ha":833,"x_min":61,"x_max":750,"o":"m 72 136 l 72 0 l 750 0 l 750 200 l 572 200 q 495 197 540 200 q 414 189 450 193 q 520 286 468 235 q 614 392 572 338 q 681 501 656 446 q 706 608 706 556 q 682 727 706 674 q 616 818 658 781 q 515 876 574 856 q 385 897 456 897 q 289 889 332 897 q 207 863 246 881 q 133 819 168 846 q 61 756 97 792 l 188 628 q 263 685 224 660 q 351 711 303 711 q 444 683 410 711 q 479 594 479 654 q 449 499 479 550 q 364 392 418 449 q 235 272 310 336 q 72 136 160 208 "},"3":{"ha":833,"x_min":50,"x_max":744,"o":"m 158 258 l 50 108 q 187 17 103 50 q 383 -17 271 -17 q 519 0 454 -17 q 635 50 585 17 q 715 131 685 83 q 744 242 744 179 q 691 377 744 325 q 556 453 638 429 l 556 458 q 676 538 635 490 q 717 649 717 585 q 692 755 717 708 q 624 833 668 801 q 517 881 579 864 q 378 897 454 897 q 216 867 292 897 q 72 783 140 838 l 192 639 q 278 693 238 675 q 367 711 318 711 q 449 691 419 711 q 478 631 478 671 q 429 558 478 585 q 261 531 381 531 l 261 364 q 382 357 335 364 q 457 336 429 350 q 495 303 485 322 q 506 258 506 283 q 465 196 506 217 q 358 175 424 175 q 256 198 308 175 q 158 258 203 221 "},"4":{"ha":833,"x_min":46,"x_max":782,"o":"m 458 378 l 271 378 l 363 528 q 413 607 386 568 q 461 686 439 646 l 467 686 q 464 637 465 664 q 461 582 463 610 q 459 527 460 554 q 458 478 458 500 l 458 378 m 782 197 l 782 378 l 681 378 l 681 881 l 386 881 l 46 364 l 46 197 l 458 197 l 458 0 l 681 0 l 681 197 l 782 197 "},"5":{"ha":833,"x_min":58,"x_max":744,"o":"m 164 258 l 58 108 q 197 19 115 54 q 392 -17 278 -17 q 525 4 461 -17 q 638 65 589 25 q 715 163 686 104 q 744 294 744 221 q 719 415 744 364 q 653 500 694 467 q 556 550 611 533 q 442 567 501 567 q 394 564 415 567 q 344 553 372 561 l 356 681 l 706 681 l 706 881 l 150 881 l 128 428 l 231 361 q 269 382 253 374 q 301 394 286 390 q 331 401 315 399 q 367 403 347 403 q 465 374 425 403 q 506 289 506 346 q 465 203 506 231 q 356 175 425 175 q 255 199 303 175 q 164 258 207 222 "},"6":{"ha":833,"x_min":75,"x_max":764,"o":"m 433 161 q 396 167 415 161 q 358 190 376 174 q 324 237 339 207 q 300 314 308 267 q 369 372 335 354 q 439 389 404 389 q 516 365 485 389 q 547 283 547 342 q 538 225 547 249 q 512 188 528 201 q 475 167 496 174 q 433 161 454 161 m 628 644 l 753 786 q 633 864 707 831 q 458 897 558 897 q 316 868 385 897 q 194 781 247 839 q 108 633 140 722 q 75 425 75 544 q 107 222 75 306 q 191 85 139 138 q 308 8 243 32 q 439 -17 372 -17 q 563 3 504 -17 q 667 63 622 24 q 738 157 711 101 q 764 283 764 213 q 742 406 764 354 q 684 490 721 457 q 597 540 647 524 q 492 556 547 556 q 393 533 449 556 q 293 465 338 510 q 313 578 297 532 q 355 653 329 625 q 413 693 381 681 q 481 706 444 706 q 563 687 522 706 q 628 644 603 668 "},"7":{"ha":833,"x_min":82,"x_max":753,"o":"m 250 0 l 250 0 l 489 0 q 507 226 496 129 q 545 406 518 324 q 622 567 572 489 q 753 733 671 644 l 753 881 l 82 881 l 82 681 l 499 681 q 388 518 432 596 q 315 360 343 440 q 272 192 286 279 q 250 0 257 104 "},"8":{"ha":833,"x_min":81,"x_max":756,"o":"m 286 253 q 302 317 286 286 q 346 372 318 349 q 424 342 389 356 q 483 313 458 328 q 520 281 507 299 q 533 239 533 263 q 501 168 533 189 q 419 147 468 147 q 326 174 365 147 q 286 253 286 200 m 472 525 q 360 576 401 550 q 319 647 319 603 q 348 713 319 693 q 417 733 376 733 q 494 708 467 733 q 522 636 522 682 q 472 525 522 579 m 81 225 q 103 126 81 171 q 170 50 126 82 q 275 1 214 18 q 414 -17 336 -17 q 560 2 496 -17 q 667 54 624 21 q 733 133 711 88 q 756 231 756 178 q 709 373 756 318 q 593 463 663 428 l 593 468 q 680 545 643 499 q 717 653 717 592 q 695 754 717 708 q 635 831 674 800 q 543 880 597 863 q 422 897 489 897 q 297 880 354 897 q 199 831 240 863 q 134 752 157 799 q 111 647 111 706 q 147 528 111 578 q 238 439 182 479 l 238 433 q 126 351 171 400 q 81 225 81 301 "},"9":{"ha":833,"x_min":67,"x_max":756,"o":"m 392 492 q 315 515 346 492 q 283 597 283 539 q 293 656 283 632 q 319 693 303 679 q 356 713 335 707 q 397 719 376 719 q 435 713 415 719 q 473 690 454 707 q 507 644 492 674 q 531 567 522 614 q 461 509 496 526 q 392 492 426 492 m 203 236 l 78 94 q 198 17 124 50 q 372 -17 272 -17 q 515 13 446 -17 q 637 100 583 42 q 723 247 690 158 q 756 456 756 336 q 724 659 756 575 q 640 796 692 743 q 523 873 588 849 q 392 897 458 897 q 267 877 326 897 q 164 818 208 857 q 93 724 119 779 q 67 597 67 668 q 88 475 67 526 q 147 390 110 424 q 233 341 183 357 q 339 325 282 325 q 438 348 382 325 q 538 415 493 371 q 517 302 533 349 q 476 228 501 256 q 417 188 450 200 q 350 175 385 175 q 268 194 308 175 q 203 236 228 213 "},"\u0000":{"ha":0,"x_min":0,"x_max":0,"o":""},"\r":{"ha":833,"x_min":0,"x_max":0,"o":""}," ":{"ha":833,"x_min":0,"x_max":0,"o":""},"A":{"ha":833,"x_min":0,"x_max":833,"o":"m 493 376 l 332 376 l 346 439 q 377 580 361 504 q 408 725 393 656 l 414 725 q 447 581 431 657 q 479 439 464 504 l 493 376 m 536 192 l 581 0 l 833 0 l 561 903 l 272 903 l 0 0 l 244 0 l 289 192 l 536 192 "},"B":{"ha":833,"x_min":106,"x_max":781,"o":"m 106 903 l 106 0 l 431 0 q 567 15 503 0 q 678 63 631 31 q 753 147 726 96 q 781 267 781 197 q 733 408 781 357 q 589 478 685 458 l 589 483 q 657 514 628 493 q 705 562 686 535 q 733 619 724 589 q 742 678 742 649 q 715 788 742 744 q 643 857 689 832 q 535 892 597 882 q 403 903 474 903 l 106 903 m 397 547 l 344 547 l 344 719 l 397 719 q 482 701 456 719 q 508 642 508 683 q 482 574 508 600 q 397 547 456 547 m 414 183 l 344 183 l 344 381 l 414 381 q 516 358 485 381 q 547 286 547 336 q 516 210 547 236 q 414 183 485 183 "},"C":{"ha":833,"x_min":71,"x_max":799,"o":"m 71 444 q 106 242 71 329 q 202 98 142 156 q 342 12 263 40 q 510 -17 421 -17 q 667 17 593 -17 q 799 117 740 50 l 668 261 q 603 209 639 229 q 524 189 568 189 q 374 257 432 189 q 315 453 315 325 q 331 563 315 514 q 372 644 346 611 q 435 696 399 678 q 513 714 471 714 q 592 699 558 714 q 657 656 625 683 l 788 803 q 669 884 739 849 q 513 919 600 919 q 340 888 421 919 q 200 795 260 856 q 106 647 140 735 q 71 444 71 558 "},"D":{"ha":833,"x_min":81,"x_max":775,"o":"m 81 903 l 81 0 l 349 0 q 518 26 440 0 q 653 108 596 53 q 743 250 711 164 q 775 456 775 336 q 742 660 775 575 q 651 799 710 744 q 513 878 593 853 q 335 903 432 903 l 81 903 m 322 192 l 319 192 l 319 711 l 322 711 q 403 701 365 711 q 469 663 442 690 q 514 585 497 635 q 531 456 531 535 q 514 325 531 376 q 469 244 497 274 q 403 203 442 215 q 322 192 365 192 "},"E":{"ha":833,"x_min":119,"x_max":744,"o":"m 119 903 l 119 0 l 744 0 l 744 200 l 358 200 l 358 361 l 675 361 l 675 561 l 358 561 l 358 703 l 731 703 l 731 903 l 119 903 "},"F":{"ha":833,"x_min":136,"x_max":749,"o":"m 136 903 l 136 0 l 375 0 l 375 331 l 694 331 l 694 531 l 375 531 l 375 703 l 749 703 l 749 903 l 136 903 "},"G":{"ha":833,"x_min":56,"x_max":767,"o":"m 56 444 q 89 242 56 329 q 180 98 122 156 q 315 12 238 40 q 479 -17 392 -17 q 564 -7 522 -17 q 643 18 606 3 q 712 53 681 33 q 767 94 743 74 l 767 525 l 442 525 l 442 331 l 554 331 l 554 206 q 526 193 543 197 q 493 189 510 189 q 349 257 396 189 q 301 453 301 325 q 315 563 301 514 q 353 644 329 611 q 410 696 378 678 q 481 714 443 714 q 560 699 529 714 q 619 656 592 683 l 750 803 q 639 884 706 849 q 481 919 572 919 q 315 888 393 919 q 180 797 238 857 q 89 647 122 736 q 56 444 56 558 "},"H":{"ha":833,"x_min":81,"x_max":753,"o":"m 81 903 l 81 0 l 319 0 l 319 358 l 514 358 l 514 0 l 753 0 l 753 903 l 514 903 l 514 567 l 319 567 l 319 903 l 81 903 "},"I":{"ha":833,"x_min":92,"x_max":742,"o":"m 92 200 l 92 0 l 742 0 l 742 200 l 536 200 l 536 703 l 742 703 l 742 903 l 92 903 l 92 703 l 297 703 l 297 200 l 92 200 "},"J":{"ha":833,"x_min":71,"x_max":729,"o":"m 206 281 l 71 132 q 140 62 103 90 q 218 16 178 33 q 299 -9 258 -1 q 378 -17 340 -17 q 542 10 475 -17 q 651 81 610 36 q 711 186 693 126 q 729 314 729 246 l 729 903 l 147 903 l 147 703 l 490 703 l 490 333 q 483 263 490 290 q 459 218 475 235 q 421 195 443 201 q 369 189 399 189 q 286 213 328 189 q 206 281 244 236 "},"K":{"ha":833,"x_min":79,"x_max":832,"o":"m 79 903 l 79 0 l 319 0 l 319 225 l 406 347 l 569 0 l 832 0 l 544 536 l 810 903 l 547 903 l 325 567 l 319 567 l 319 903 l 79 903 "},"L":{"ha":833,"x_min":133,"x_max":757,"o":"m 133 903 l 133 0 l 757 0 l 757 200 l 372 200 l 372 903 l 133 903 "},"M":{"ha":833,"x_min":81,"x_max":753,"o":"m 81 903 l 81 0 l 269 0 l 269 213 q 266 315 269 253 q 258 442 263 376 q 249 569 254 508 q 239 671 243 631 l 244 671 l 315 403 l 363 240 l 465 240 l 513 403 l 588 671 l 592 671 q 582 569 588 631 q 572 442 576 508 q 565 315 568 376 q 561 213 561 253 l 561 0 l 753 0 l 753 903 l 518 903 l 446 608 l 421 492 l 417 492 l 392 608 l 315 903 l 81 903 "},"N":{"ha":833,"x_min":83,"x_max":750,"o":"m 83 903 l 83 0 l 311 0 l 311 261 q 299 436 311 344 q 278 606 286 528 l 283 606 l 357 404 l 508 0 l 750 0 l 750 903 l 522 903 l 522 642 q 526 555 522 600 q 535 465 529 510 q 546 376 540 419 q 556 297 551 333 l 550 297 l 476 500 l 325 903 l 83 903 "},"O":{"ha":833,"x_min":47,"x_max":786,"o":"m 417 -17 q 567 15 499 -17 q 683 108 635 47 q 759 256 732 168 q 786 456 786 344 q 759 653 786 567 q 683 799 732 739 q 567 889 635 858 q 417 919 499 919 q 267 889 335 919 q 150 799 199 858 q 74 653 101 740 q 47 456 47 567 q 74 256 47 344 q 150 108 101 168 q 267 15 199 47 q 417 -17 335 -17 m 417 189 q 325 260 358 189 q 292 456 292 332 q 325 647 292 579 q 417 714 358 714 q 508 647 475 714 q 542 456 542 579 q 508 260 542 332 q 417 189 475 189 "},"P":{"ha":833,"x_min":88,"x_max":799,"o":"m 88 903 l 88 0 l 326 0 l 326 286 l 438 286 q 574 305 508 286 q 689 362 639 324 q 769 460 739 400 q 799 603 799 519 q 769 745 799 688 q 691 838 740 803 q 576 888 642 874 q 438 903 510 903 l 88 903 m 426 475 l 326 475 l 326 714 l 426 714 q 529 689 493 714 q 565 603 565 664 q 531 508 565 542 q 426 475 497 475 "},"Q":{"ha":833,"x_min":43,"x_max":819,"o":"m 411 714 q 502 647 469 714 q 535 456 535 579 q 502 260 535 332 q 411 189 469 189 q 320 260 353 189 q 288 456 288 332 q 320 647 288 579 q 411 714 353 714 m 819 -222 l 778 -47 q 743 -60 763 -54 q 703 -67 724 -67 q 660 -63 682 -67 q 617 -51 638 -60 q 578 -28 596 -43 q 549 10 561 -14 q 717 168 656 54 q 779 456 779 282 q 753 653 779 567 q 678 799 726 739 q 561 889 629 858 q 411 919 493 919 q 261 889 329 919 q 144 799 193 858 q 69 653 96 740 q 43 456 43 567 q 113 154 43 271 q 300 0 182 38 q 440 -185 344 -114 q 675 -256 536 -256 q 760 -247 724 -256 q 819 -222 796 -237 "},"R":{"ha":833,"x_min":81,"x_max":828,"o":"m 319 492 l 319 714 l 400 714 q 508 692 471 714 q 544 611 544 669 q 400 492 544 492 l 319 492 m 561 0 l 828 0 l 632 350 q 738 450 699 386 q 778 611 778 514 q 749 752 778 696 q 670 842 719 808 q 555 889 621 875 q 417 903 489 903 l 81 903 l 81 0 l 319 0 l 319 303 l 406 303 l 561 0 "},"S":{"ha":833,"x_min":61,"x_max":772,"o":"m 197 276 l 61 113 q 230 15 138 46 q 411 -17 322 -17 q 566 7 499 -17 q 679 70 633 31 q 749 163 725 110 q 772 272 772 215 q 723 426 772 367 q 582 519 674 486 l 478 563 q 373 604 410 588 q 336 653 336 621 q 439 714 336 714 q 536 697 493 714 q 628 649 579 681 l 747 799 q 600 890 681 861 q 439 919 519 919 q 298 897 361 919 q 190 837 235 875 q 119 748 144 799 q 94 639 94 697 q 110 550 94 590 q 151 478 125 510 q 211 424 176 447 q 285 388 246 401 l 397 340 q 453 320 429 329 q 494 301 478 311 q 519 281 511 292 q 528 253 528 269 q 503 206 528 222 q 417 189 479 189 q 306 213 364 189 q 197 276 249 238 "},"T":{"ha":833,"x_min":38,"x_max":796,"o":"m 297 703 l 297 0 l 536 0 l 536 703 l 796 703 l 796 903 l 38 903 l 38 703 l 297 703 "},"U":{"ha":833,"x_min":81,"x_max":753,"o":"m 81 903 l 81 350 q 100 198 81 265 q 161 83 119 131 q 267 9 203 35 q 419 -17 331 -17 q 572 9 508 -17 q 675 83 635 35 q 734 198 715 131 q 753 350 753 265 l 753 903 l 522 903 l 522 322 q 500 226 522 264 q 419 189 478 189 q 341 226 363 189 q 319 322 319 264 l 319 903 l 81 903 "},"V":{"ha":833,"x_min":6,"x_max":828,"o":"m 6 903 l 272 0 l 561 0 l 828 903 l 583 903 l 492 508 q 459 366 474 436 q 425 222 444 296 l 419 222 q 386 366 400 296 q 353 508 372 436 l 258 903 l 6 903 "},"W":{"ha":833,"x_min":3,"x_max":832,"o":"m 3 903 l 115 0 l 357 0 l 394 247 q 407 338 401 292 q 415 424 413 383 l 419 424 q 427 338 421 383 q 440 247 433 292 l 481 0 l 728 0 l 832 903 l 604 903 l 593 456 l 593 222 l 588 222 q 565 342 578 283 q 543 456 553 400 l 497 675 l 358 675 l 308 456 q 285 339 297 397 q 264 222 272 281 l 258 222 l 258 456 l 247 903 l 3 903 "},"X":{"ha":833,"x_min":6,"x_max":828,"o":"m 267 464 l 6 0 l 261 0 l 339 161 q 372 233 356 197 q 403 311 388 269 l 408 311 q 442 233 426 269 q 478 161 458 197 l 561 0 l 828 0 l 567 453 l 813 903 l 557 903 l 493 756 q 464 687 479 724 q 433 606 449 650 l 428 606 q 392 687 408 650 q 360 756 375 724 l 288 903 l 21 903 l 267 464 "},"Y":{"ha":833,"x_min":11,"x_max":822,"o":"m 297 299 l 297 0 l 536 0 l 536 299 l 822 903 l 572 903 l 497 706 q 459 603 478 653 q 421 500 440 554 l 415 500 q 378 603 396 554 q 342 706 360 653 l 267 903 l 11 903 l 297 299 "},"Z":{"ha":833,"x_min":74,"x_max":764,"o":"m 74 144 l 74 0 l 764 0 l 764 200 l 368 200 l 760 758 l 760 903 l 111 903 l 111 703 l 465 703 l 74 144 "},"a":{"ha":833,"x_min":75,"x_max":753,"o":"m 75 197 q 90 115 75 154 q 133 47 104 76 q 204 1 163 18 q 300 -17 246 -17 q 425 9 365 -17 q 536 72 485 35 l 542 72 l 558 0 l 753 0 l 753 386 q 730 533 753 471 q 665 634 707 594 q 562 692 622 674 q 428 711 501 711 q 258 688 340 711 q 97 619 176 664 l 181 464 q 290 508 243 493 q 381 522 336 522 q 473 505 439 522 q 514 450 507 488 q 311 425 394 443 q 176 376 228 407 q 99 300 124 344 q 75 197 75 256 m 303 217 q 312 250 303 235 q 344 278 321 265 q 409 298 368 290 q 514 308 450 306 l 514 219 q 453 183 486 199 q 378 167 419 167 q 303 217 303 167 "},"b":{"ha":833,"x_min":89,"x_max":775,"o":"m 89 967 l 89 0 l 275 0 l 294 75 l 300 75 q 386 6 340 29 q 479 -17 432 -17 q 590 8 536 -17 q 684 81 643 33 q 750 199 725 129 q 775 360 775 269 q 756 504 775 439 q 700 615 736 569 q 613 686 664 661 q 499 711 561 711 q 406 693 451 711 q 322 642 360 675 l 328 742 l 328 967 l 89 967 m 328 211 l 328 467 q 376 506 353 494 q 428 517 400 517 q 505 479 479 517 q 531 356 531 442 q 522 272 531 306 q 498 217 513 238 q 464 187 483 196 q 422 178 444 178 q 374 185 399 178 q 328 211 350 192 "},"c":{"ha":833,"x_min":86,"x_max":765,"o":"m 86 347 q 116 193 86 261 q 198 78 146 125 q 322 8 250 32 q 475 -17 393 -17 q 622 7 544 -17 q 765 83 700 31 l 671 233 q 592 193 635 211 q 499 175 550 175 q 378 222 425 175 q 331 347 331 268 q 379 473 331 426 q 507 519 428 519 q 574 509 540 519 q 647 472 608 499 l 756 619 q 643 686 711 661 q 493 711 575 711 q 339 687 413 711 q 209 616 265 663 q 119 501 153 569 q 86 347 86 433 "},"d":{"ha":833,"x_min":58,"x_max":744,"o":"m 58 347 q 79 195 58 263 q 138 81 100 128 q 228 8 175 33 q 349 -17 282 -17 q 444 6 396 -17 q 528 64 492 28 l 533 64 l 550 0 l 744 0 l 744 967 l 506 967 l 506 742 l 514 642 q 444 692 482 674 q 349 711 407 711 q 242 686 294 711 q 149 615 189 661 q 83 500 108 568 q 58 347 58 432 m 303 350 q 336 479 303 442 q 414 517 369 517 q 462 510 439 517 q 506 483 485 503 l 506 228 q 463 188 486 199 q 411 178 440 178 q 331 217 360 178 q 303 350 303 256 "},"e":{"ha":833,"x_min":69,"x_max":764,"o":"m 69 347 q 99 193 69 261 q 181 78 129 125 q 305 8 233 32 q 458 -17 376 -17 q 599 3 524 -17 q 736 64 674 24 l 658 206 q 573 174 613 185 q 492 164 533 164 q 431 169 460 164 q 377 188 401 175 q 336 222 353 200 q 314 275 319 243 l 754 275 q 760 315 757 288 q 764 375 764 343 q 743 506 764 444 q 681 613 722 567 q 577 685 639 658 q 433 711 515 711 q 298 686 364 711 q 181 615 232 661 q 100 500 131 568 q 69 347 69 432 m 547 431 l 311 431 q 359 508 324 485 q 439 531 394 531 q 524 501 500 531 q 547 431 547 472 "},"f":{"ha":833,"x_min":103,"x_max":817,"o":"m 772 772 l 817 947 q 720 972 775 960 q 603 983 665 983 q 456 960 517 983 q 356 899 396 938 q 299 808 317 860 q 281 697 281 756 l 281 694 l 103 686 l 103 508 l 281 508 l 281 0 l 519 0 l 519 508 l 739 508 l 739 694 l 519 694 l 519 697 q 548 775 519 753 q 633 797 576 797 q 707 790 671 797 q 772 772 743 783 "},"g":{"ha":833,"x_min":61,"x_max":799,"o":"m 254 -75 q 263 -49 254 -60 q 289 -25 271 -37 q 331 -31 307 -29 q 394 -33 354 -33 l 464 -33 q 544 -40 517 -33 q 572 -75 572 -47 q 527 -122 572 -104 q 411 -139 482 -139 q 297 -124 340 -139 q 254 -75 254 -108 m 61 -114 q 85 -194 61 -161 q 153 -247 110 -226 q 252 -277 196 -268 q 374 -286 308 -286 q 549 -268 471 -286 q 683 -217 628 -250 q 769 -137 739 -183 q 799 -33 799 -90 q 724 105 799 63 q 510 147 649 147 l 392 147 q 308 156 333 147 q 283 189 283 165 q 288 212 283 204 q 306 229 293 219 q 393 219 353 219 q 509 233 456 219 q 602 274 563 246 q 664 345 642 301 q 686 450 686 389 q 680 490 686 471 q 667 522 674 510 l 792 522 l 792 694 l 511 694 q 393 711 458 711 q 277 696 332 711 q 179 649 222 681 q 111 570 136 618 q 86 458 86 522 q 113 351 86 397 q 181 281 140 306 l 181 275 q 121 215 144 250 q 97 144 97 181 q 117 72 97 100 q 167 25 138 44 l 167 19 q 61 -114 61 -31 m 393 361 q 334 385 358 361 q 310 458 310 408 q 334 530 310 507 q 393 553 358 553 q 453 530 428 553 q 478 458 478 507 q 453 385 478 408 q 393 361 428 361 "},"h":{"ha":833,"x_min":89,"x_max":758,"o":"m 89 967 l 89 0 l 328 0 l 328 456 q 381 494 356 481 q 439 508 406 508 q 502 482 485 508 q 519 397 519 456 l 519 0 l 758 0 l 758 428 q 706 634 758 557 q 539 711 653 711 q 406 682 461 711 q 315 619 350 653 l 328 742 l 328 967 l 89 967 "},"i":{"ha":833,"x_min":103,"x_max":631,"o":"m 103 694 l 103 508 l 367 508 l 367 0 l 606 0 l 606 694 l 103 694 m 478 781 q 588 819 544 781 q 631 919 631 857 q 588 1022 631 982 q 478 1061 544 1061 q 368 1022 411 1061 q 325 919 325 982 q 368 819 325 857 q 478 781 411 781 "},"j":{"ha":833,"x_min":51,"x_max":631,"o":"m 103 694 l 103 508 l 367 508 l 367 56 q 342 -45 367 -15 q 254 -75 318 -75 q 195 -69 226 -75 q 119 -44 164 -64 l 51 -214 q 150 -248 97 -235 q 271 -261 203 -261 q 434 -234 369 -261 q 537 -162 499 -207 q 590 -58 575 -117 q 606 64 606 0 l 606 694 l 103 694 m 478 781 q 588 819 544 781 q 631 919 631 857 q 588 1022 631 982 q 478 1061 544 1061 q 368 1022 411 1061 q 325 919 325 982 q 368 819 325 857 q 478 781 411 781 "},"k":{"ha":833,"x_min":89,"x_max":819,"o":"m 89 967 l 89 0 l 328 0 l 328 169 l 408 258 l 561 0 l 819 0 l 546 406 l 803 694 l 544 694 l 333 447 l 328 447 l 328 967 l 89 967 "},"l":{"ha":833,"x_min":75,"x_max":758,"o":"m 75 967 l 75 781 l 264 781 l 264 286 q 281 163 264 218 q 334 67 299 107 q 422 6 369 28 q 543 -17 474 -17 q 604 -14 576 -17 q 657 -7 632 -11 q 706 4 682 -3 q 758 19 731 11 l 707 194 q 607 175 650 175 q 570 180 589 175 q 537 197 551 185 q 513 228 522 208 q 503 278 503 247 l 503 967 l 75 967 "},"m":{"ha":833,"x_min":36,"x_max":806,"o":"m 36 694 l 36 0 l 261 0 l 261 456 q 303 508 279 508 q 331 467 331 508 l 331 0 l 511 0 l 511 456 q 557 508 529 508 q 581 467 581 508 l 581 0 l 806 0 l 806 483 q 765 649 806 588 q 650 711 724 711 q 554 678 592 711 q 501 600 517 644 q 459 683 490 654 q 385 711 428 711 q 289 681 322 711 q 238 610 256 650 l 232 610 l 215 694 l 36 694 "},"n":{"ha":833,"x_min":89,"x_max":758,"o":"m 89 694 l 89 0 l 328 0 l 328 456 q 381 494 356 481 q 439 508 406 508 q 502 482 485 508 q 519 397 519 456 l 519 0 l 758 0 l 758 428 q 706 634 758 557 q 538 711 653 711 q 404 681 461 711 q 306 611 347 651 l 300 611 l 283 694 l 89 694 "},"o":{"ha":833,"x_min":58,"x_max":775,"o":"m 58 347 q 88 193 58 261 q 168 78 118 125 q 283 8 218 32 q 417 -17 347 -17 q 549 8 485 -17 q 664 78 614 32 q 744 193 714 125 q 775 347 775 261 q 744 501 775 433 q 664 616 714 569 q 549 687 614 663 q 417 711 485 711 q 283 687 347 711 q 168 616 218 663 q 88 501 118 569 q 58 347 58 433 m 303 347 q 329 473 303 426 q 417 519 356 519 q 504 473 478 519 q 531 347 531 426 q 504 222 531 268 q 417 175 478 175 q 329 222 356 175 q 303 347 303 268 "},"p":{"ha":833,"x_min":89,"x_max":775,"o":"m 328 -53 l 319 53 q 394 1 354 19 q 479 -17 435 -17 q 590 8 536 -17 q 684 81 643 33 q 750 199 725 129 q 775 358 775 268 q 756 504 775 439 q 701 615 736 569 q 614 686 665 661 q 500 711 563 711 q 397 689 447 711 q 306 631 346 667 l 300 631 l 283 694 l 89 694 l 89 -244 l 328 -244 l 328 -53 m 328 211 l 328 467 q 376 506 353 494 q 428 517 400 517 q 505 479 479 517 q 531 356 531 442 q 522 272 531 306 q 498 217 513 238 q 464 187 483 196 q 422 178 444 178 q 374 185 399 178 q 328 211 350 192 "},"q":{"ha":833,"x_min":58,"x_max":744,"o":"m 58 347 q 79 195 58 263 q 138 81 100 128 q 228 8 175 33 q 349 -17 282 -17 q 437 2 392 -17 q 515 53 482 21 l 506 -46 l 506 -244 l 744 -244 l 744 694 l 558 694 l 539 625 l 533 625 q 449 691 493 671 q 349 711 406 711 q 242 686 294 711 q 149 615 189 661 q 83 500 108 568 q 58 347 58 432 m 303 350 q 336 479 303 442 q 414 517 369 517 q 462 510 439 517 q 506 483 485 503 l 506 228 q 463 188 486 199 q 411 178 440 178 q 331 217 360 178 q 303 350 303 256 "},"r":{"ha":833,"x_min":144,"x_max":767,"o":"m 144 694 l 144 0 l 383 0 l 383 344 q 481 467 422 432 q 599 503 539 503 q 662 498 636 503 q 719 483 688 493 l 767 683 q 710 703 738 696 q 635 711 683 711 q 485 672 556 711 q 364 547 414 633 l 358 547 l 340 694 l 144 694 "},"s":{"ha":833,"x_min":64,"x_max":758,"o":"m 169 236 l 64 89 q 222 14 131 44 q 403 -17 313 -17 q 556 1 490 -17 q 667 49 622 18 q 735 123 713 81 q 758 214 758 165 q 736 295 758 261 q 678 353 714 329 q 599 394 643 378 q 510 422 554 410 q 447 439 476 431 q 394 456 417 447 q 358 474 371 464 q 344 497 344 483 q 368 527 344 518 q 446 536 392 536 q 544 518 496 536 q 642 472 593 500 l 747 614 q 615 680 692 649 q 440 711 539 711 q 303 695 364 711 q 198 650 242 679 q 131 579 154 621 q 107 486 107 538 q 129 410 107 443 q 186 353 151 378 q 264 310 221 328 q 350 281 307 293 q 415 262 383 271 q 469 244 446 253 q 507 224 493 235 q 521 200 521 214 q 496 169 521 179 q 408 158 471 158 q 289 179 347 158 q 169 236 231 200 "},"t":{"ha":833,"x_min":58,"x_max":767,"o":"m 225 508 l 225 294 q 242 167 225 225 q 295 69 258 110 q 391 6 332 28 q 536 -17 450 -17 q 664 -5 607 -17 q 767 19 721 7 l 725 192 q 666 176 697 182 q 599 169 635 169 q 498 197 532 169 q 464 299 464 224 l 464 508 l 739 508 l 739 694 l 464 694 l 464 875 l 267 875 l 236 694 l 58 686 l 58 508 l 225 508 "},"u":{"ha":833,"x_min":78,"x_max":739,"o":"m 739 0 l 739 694 l 500 694 l 500 247 q 449 198 472 210 q 396 186 426 186 q 333 213 349 186 q 317 297 317 239 l 317 694 l 78 694 l 78 267 q 129 60 78 138 q 297 -17 181 -17 q 424 13 371 -17 q 522 92 478 42 l 528 92 l 544 0 l 739 0 "},"v":{"ha":833,"x_min":33,"x_max":800,"o":"m 33 694 l 283 0 l 558 0 l 800 694 l 572 694 l 482 392 q 453 285 467 339 q 425 175 440 232 l 419 175 q 391 285 404 232 q 363 392 378 339 l 272 694 l 33 694 "},"w":{"ha":833,"x_min":3,"x_max":831,"o":"m 3 694 l 103 0 l 372 0 l 394 186 q 407 309 403 263 q 414 392 411 356 l 419 392 q 430 284 425 333 q 442 186 435 235 l 464 0 l 739 0 l 831 694 l 614 694 l 588 403 q 579 298 581 350 q 571 192 578 246 l 565 192 q 551 298 558 246 q 533 403 543 350 l 503 583 l 342 583 l 314 403 q 297 299 303 353 q 285 192 290 246 l 281 192 q 272 298 274 246 q 263 403 269 350 l 236 694 l 3 694 "},"x":{"ha":833,"x_min":38,"x_max":794,"o":"m 269 361 l 38 0 l 286 0 l 338 97 q 366 158 351 128 q 394 217 381 188 l 400 217 q 438 157 418 188 q 475 97 457 126 l 539 0 l 794 0 l 563 333 l 782 694 l 533 694 l 488 597 q 463 538 476 568 q 438 478 449 507 l 432 478 q 398 538 417 507 q 364 597 379 568 l 307 694 l 51 694 l 269 361 "},"y":{"ha":833,"x_min":33,"x_max":803,"o":"m 135 -67 l 135 -67 l 93 -247 q 144 -258 117 -254 q 204 -261 172 -261 q 323 -245 272 -261 q 413 -196 374 -229 q 483 -111 453 -162 q 542 11 514 -60 l 803 694 l 578 694 l 494 428 q 463 322 479 375 q 435 217 447 269 l 429 217 q 399 326 414 274 q 367 428 385 378 l 269 694 l 33 694 l 325 25 l 314 -6 q 270 -56 300 -37 q 185 -75 240 -75 q 135 -67 161 -75 "},"z":{"ha":833,"x_min":97,"x_max":757,"o":"m 97 128 l 97 0 l 757 0 l 757 186 l 425 186 l 747 567 l 747 694 l 138 694 l 138 508 l 418 508 l 97 128 "},"À":{"ha":833,"x_min":0,"x_max":833,"o":"m 493 376 l 332 376 l 346 439 q 377 580 361 504 q 408 725 393 656 l 414 725 q 447 581 431 657 q 479 439 464 504 l 493 376 m 536 192 l 581 0 l 833 0 l 561 903 l 272 903 l 0 0 l 244 0 l 289 192 l 536 192 m 175 1144 l 344 972 l 533 972 l 425 1144 l 175 1144 "},"Á":{"ha":833,"x_min":0,"x_max":833,"o":"m 493 376 l 332 376 l 346 439 q 377 580 361 504 q 408 725 393 656 l 414 725 q 447 581 431 657 q 479 439 464 504 l 493 376 m 536 192 l 581 0 l 833 0 l 561 903 l 272 903 l 0 0 l 244 0 l 289 192 l 536 192 m 489 972 l 658 1144 l 408 1144 l 300 972 l 489 972 "},"Â":{"ha":833,"x_min":0,"x_max":833,"o":"m 493 376 l 332 376 l 346 439 q 377 580 361 504 q 408 725 393 656 l 414 725 q 447 581 431 657 q 479 439 464 504 l 493 376 m 536 192 l 581 0 l 833 0 l 561 903 l 272 903 l 0 0 l 244 0 l 289 192 l 536 192 m 167 972 l 347 972 l 414 1053 l 419 1053 l 486 972 l 667 972 l 533 1144 l 300 1144 l 167 972 "},"Ã":{"ha":833,"x_min":0,"x_max":833,"o":"m 493 376 l 332 376 l 346 439 q 377 580 361 504 q 408 725 393 656 l 414 725 q 447 581 431 657 q 479 439 464 504 l 493 376 m 536 192 l 581 0 l 833 0 l 561 903 l 272 903 l 0 0 l 244 0 l 289 192 l 536 192 m 506 972 q 560 984 533 972 q 608 1021 586 996 q 644 1084 629 1046 q 667 1175 660 1122 l 547 1175 q 525 1129 539 1142 q 494 1117 511 1117 q 463 1126 479 1117 q 425 1146 446 1135 q 380 1166 404 1157 q 328 1175 356 1175 q 225 1126 271 1175 q 167 972 179 1078 l 286 972 q 308 1018 294 1006 q 339 1031 322 1031 q 370 1022 353 1031 q 408 1001 388 1013 q 453 981 429 990 q 506 972 478 972 "},"Ä":{"ha":833,"x_min":0,"x_max":833,"o":"m 493 376 l 332 376 l 346 439 q 377 580 361 504 q 408 725 393 656 l 414 725 q 447 581 431 657 q 479 439 464 504 l 493 376 m 536 192 l 581 0 l 833 0 l 561 903 l 272 903 l 0 0 l 244 0 l 289 192 l 536 192 m 272 964 q 351 995 321 964 q 381 1072 381 1026 q 351 1149 381 1118 q 272 1181 321 1181 q 194 1149 224 1181 q 164 1072 164 1118 q 194 995 164 1026 q 272 964 224 964 m 561 964 q 640 995 610 964 q 669 1072 669 1026 q 640 1149 669 1118 q 561 1181 610 1181 q 483 1149 513 1181 q 453 1072 453 1118 q 483 995 453 1026 q 561 964 513 964 "},"Ā":{"ha":833,"x_min":0,"x_max":833,"o":"m 493 376 l 332 376 l 346 439 q 377 580 361 504 q 408 725 393 656 l 414 725 q 447 581 431 657 q 479 439 464 504 l 493 376 m 536 192 l 581 0 l 833 0 l 561 903 l 272 903 l 0 0 l 244 0 l 289 192 l 536 192 m 211 1144 l 211 994 l 622 994 l 622 1144 l 211 1144 "},"Ă":{"ha":833,"x_min":0,"x_max":833,"o":"m 493 376 l 332 376 l 346 439 q 377 580 361 504 q 408 725 393 656 l 414 725 q 447 581 431 657 q 479 439 464 504 l 493 376 m 536 192 l 581 0 l 833 0 l 561 903 l 272 903 l 0 0 l 244 0 l 289 192 l 536 192 m 417 972 q 558 1017 511 972 q 614 1144 606 1063 l 486 1144 q 464 1104 479 1119 q 417 1089 449 1089 q 369 1104 385 1089 q 347 1144 354 1119 l 219 1144 q 275 1017 228 1063 q 417 972 322 972 "},"Å":{"ha":833,"x_min":0,"x_max":833,"o":"m 493 376 l 332 376 l 346 439 q 377 580 361 504 q 408 725 393 656 l 414 725 q 447 581 431 657 q 479 439 464 504 l 493 376 m 536 192 l 581 0 l 833 0 l 561 903 l 272 903 l 0 0 l 244 0 l 289 192 l 536 192 m 417 967 q 538 1005 492 967 q 583 1108 583 1043 q 538 1212 583 1174 q 417 1250 492 1250 q 296 1212 342 1250 q 250 1108 250 1174 q 296 1005 250 1043 q 417 967 342 967 m 417 1053 q 379 1068 394 1053 q 364 1108 364 1083 q 379 1149 364 1133 q 417 1164 394 1164 q 454 1149 439 1164 q 469 1108 469 1133 q 454 1068 469 1083 q 417 1053 439 1053 "},"Ǎ":{"ha":833,"x_min":0,"x_max":833,"o":"m 493 376 l 332 376 l 346 439 q 377 580 361 504 q 408 725 393 656 l 414 725 q 447 581 431 657 q 479 439 464 504 l 493 376 m 536 192 l 581 0 l 833 0 l 561 903 l 272 903 l 0 0 l 244 0 l 289 192 l 536 192 m 667 1144 l 486 1144 l 419 1064 l 414 1064 l 347 1144 l 167 1144 l 300 972 l 533 972 l 667 1144 "},"Ạ":{"ha":833,"x_min":0,"x_max":833,"o":"m 493 376 l 332 376 l 346 439 q 377 580 361 504 q 408 725 393 656 l 414 725 q 447 581 431 657 q 479 439 464 504 l 493 376 m 536 192 l 581 0 l 833 0 l 561 903 l 272 903 l 0 0 l 244 0 l 289 192 l 536 192 m 417 -367 q 526 -328 483 -367 q 569 -228 569 -290 q 526 -126 569 -165 q 417 -86 483 -86 q 307 -126 350 -86 q 264 -228 264 -165 q 307 -328 264 -290 q 417 -367 350 -367 "},"Ả":{"ha":833,"x_min":0,"x_max":833,"o":"m 493 376 l 332 376 l 346 439 q 377 580 361 504 q 408 725 393 656 l 414 725 q 447 581 431 657 q 479 439 464 504 l 493 376 m 536 192 l 581 0 l 833 0 l 561 903 l 272 903 l 0 0 l 244 0 l 289 192 l 536 192 m 347 1047 l 364 956 q 444 967 407 957 q 510 995 482 976 q 556 1041 539 1014 q 572 1106 572 1068 q 560 1157 572 1133 q 519 1198 549 1181 q 442 1226 490 1215 q 322 1239 394 1236 l 294 1122 q 379 1108 356 1118 q 403 1081 403 1097 q 387 1057 403 1064 q 347 1047 371 1050 "},"Ấ":{"ha":833,"x_min":0,"x_max":860,"o":"m 493 376 l 332 376 l 346 439 q 377 580 361 504 q 408 725 393 656 l 414 725 q 447 581 431 657 q 479 439 464 504 l 493 376 m 536 192 l 581 0 l 833 0 l 561 903 l 272 903 l 0 0 l 244 0 l 289 192 l 536 192 m 679 1242 l 585 1069 l 718 1069 l 860 1242 l 679 1242 m 314 1136 l 181 972 l 347 972 l 414 1044 l 419 1044 l 486 972 l 653 972 l 519 1136 l 314 1136 "},"Ầ":{"ha":833,"x_min":0,"x_max":833,"o":"m 493 376 l 332 376 l 346 439 q 377 580 361 504 q 408 725 393 656 l 414 725 q 447 581 431 657 q 479 439 464 504 l 493 376 m 536 192 l 581 0 l 833 0 l 561 903 l 272 903 l 0 0 l 244 0 l 289 192 l 536 192 m 776 1069 l 682 1242 l 501 1242 l 643 1069 l 776 1069 m 314 1136 l 181 972 l 347 972 l 414 1044 l 419 1044 l 486 972 l 653 972 l 519 1136 l 314 1136 "},"Ẩ":{"ha":833,"x_min":0,"x_max":833,"o":"m 493 376 l 332 376 l 346 439 q 377 580 361 504 q 408 725 393 656 l 414 725 q 447 581 431 657 q 479 439 464 504 l 493 376 m 536 192 l 581 0 l 833 0 l 561 903 l 272 903 l 0 0 l 244 0 l 289 192 l 536 192 m 603 1111 l 619 1039 q 742 1071 693 1043 q 792 1164 792 1099 q 782 1207 792 1186 q 747 1243 772 1228 q 681 1268 722 1258 q 575 1281 639 1278 l 553 1186 q 624 1172 606 1182 q 642 1144 642 1161 q 631 1121 642 1128 q 603 1111 619 1114 m 314 1136 l 181 972 l 347 972 l 414 1044 l 419 1044 l 486 972 l 653 972 l 519 1136 l 314 1136 "},"Ẫ":{"ha":833,"x_min":0,"x_max":833,"o":"m 493 376 l 332 376 l 346 439 q 377 580 361 504 q 408 725 393 656 l 414 725 q 447 581 431 657 q 479 439 464 504 l 493 376 m 536 192 l 581 0 l 833 0 l 561 903 l 272 903 l 0 0 l 244 0 l 289 192 l 536 192 m 314 1136 l 181 972 l 347 972 l 414 1044 l 419 1044 l 486 972 l 653 972 l 519 1136 l 314 1136 m 200 1186 l 300 1186 q 319 1225 307 1214 q 347 1236 331 1236 q 376 1228 361 1236 q 409 1211 390 1221 q 450 1194 428 1201 q 500 1186 472 1186 q 584 1225 546 1186 q 633 1356 622 1264 l 533 1356 q 515 1317 526 1328 q 486 1306 503 1306 q 458 1313 472 1306 q 424 1331 443 1321 q 383 1348 406 1340 q 333 1356 361 1356 q 249 1317 288 1356 q 200 1186 211 1278 "},"Ậ":{"ha":833,"x_min":0,"x_max":833,"o":"m 493 376 l 332 376 l 346 439 q 377 580 361 504 q 408 725 393 656 l 414 725 q 447 581 431 657 q 479 439 464 504 l 493 376 m 536 192 l 581 0 l 833 0 l 561 903 l 272 903 l 0 0 l 244 0 l 289 192 l 536 192 m 167 972 l 347 972 l 414 1053 l 419 1053 l 486 972 l 667 972 l 533 1144 l 300 1144 l 167 972 m 417 -367 q 526 -328 483 -367 q 569 -228 569 -290 q 526 -126 569 -165 q 417 -86 483 -86 q 307 -126 350 -86 q 264 -228 264 -165 q 307 -328 264 -290 q 417 -367 350 -367 "},"Ắ":{"ha":833,"x_min":0,"x_max":833,"o":"m 493 376 l 332 376 l 346 439 q 377 580 361 504 q 408 725 393 656 l 414 725 q 447 581 431 657 q 479 439 464 504 l 493 376 m 536 192 l 581 0 l 833 0 l 561 903 l 272 903 l 0 0 l 244 0 l 289 192 l 536 192 m 435 1297 l 351 1125 l 468 1125 l 610 1297 l 435 1297 m 417 972 q 558 1017 511 972 q 614 1144 606 1063 l 508 1144 q 481 1094 500 1113 q 417 1075 461 1075 q 353 1094 372 1075 q 325 1144 333 1113 l 219 1144 q 275 1017 228 1063 q 417 972 322 972 "},"Ằ":{"ha":833,"x_min":0,"x_max":833,"o":"m 493 376 l 332 376 l 346 439 q 377 580 361 504 q 408 725 393 656 l 414 725 q 447 581 431 657 q 479 439 464 504 l 493 376 m 536 192 l 581 0 l 833 0 l 561 903 l 272 903 l 0 0 l 244 0 l 289 192 l 536 192 m 482 1125 l 399 1297 l 224 1297 l 365 1125 l 482 1125 m 417 972 q 558 1017 511 972 q 614 1144 606 1063 l 508 1144 q 481 1094 500 1113 q 417 1075 461 1075 q 353 1094 372 1075 q 325 1144 333 1113 l 219 1144 q 275 1017 228 1063 q 417 972 322 972 "},"Ẳ":{"ha":833,"x_min":0,"x_max":833,"o":"m 493 376 l 332 376 l 346 439 q 377 580 361 504 q 408 725 393 656 l 414 725 q 447 581 431 657 q 479 439 464 504 l 493 376 m 536 192 l 581 0 l 833 0 l 561 903 l 272 903 l 0 0 l 244 0 l 289 192 l 536 192 m 350 1194 l 367 1122 q 490 1154 440 1126 q 539 1247 539 1182 q 529 1290 539 1269 q 494 1326 519 1311 q 428 1351 469 1342 q 322 1364 386 1361 l 300 1269 q 371 1255 353 1265 q 389 1228 389 1244 q 378 1204 389 1211 q 350 1194 367 1197 m 417 972 q 558 1017 511 972 q 614 1144 606 1063 l 508 1144 q 481 1094 500 1113 q 417 1075 461 1075 q 353 1094 372 1075 q 325 1144 333 1113 l 219 1144 q 275 1017 228 1063 q 417 972 322 972 "},"Ẵ":{"ha":833,"x_min":0,"x_max":833,"o":"m 493 376 l 332 376 l 346 439 q 377 580 361 504 q 408 725 393 656 l 414 725 q 447 581 431 657 q 479 439 464 504 l 493 376 m 536 192 l 581 0 l 833 0 l 561 903 l 272 903 l 0 0 l 244 0 l 289 192 l 536 192 m 417 972 q 558 1017 511 972 q 614 1144 606 1063 l 508 1144 q 481 1094 500 1113 q 417 1075 461 1075 q 353 1094 372 1075 q 325 1144 333 1113 l 219 1144 q 275 1017 228 1063 q 417 972 322 972 m 194 1186 l 297 1186 q 317 1224 303 1211 q 347 1236 331 1236 q 377 1228 361 1236 q 411 1211 393 1221 q 450 1194 429 1201 q 494 1186 471 1186 q 580 1225 540 1186 q 631 1356 619 1264 l 528 1356 q 508 1317 521 1328 q 478 1306 494 1306 q 448 1313 464 1306 q 413 1331 432 1321 q 374 1348 394 1340 q 331 1356 353 1356 q 245 1317 285 1356 q 194 1186 206 1278 "},"Ặ":{"ha":833,"x_min":0,"x_max":833,"o":"m 493 376 l 332 376 l 346 439 q 377 580 361 504 q 408 725 393 656 l 414 725 q 447 581 431 657 q 479 439 464 504 l 493 376 m 536 192 l 581 0 l 833 0 l 561 903 l 272 903 l 0 0 l 244 0 l 289 192 l 536 192 m 417 972 q 558 1017 511 972 q 614 1144 606 1063 l 486 1144 q 464 1104 479 1119 q 417 1089 449 1089 q 369 1104 385 1089 q 347 1144 354 1119 l 219 1144 q 275 1017 228 1063 q 417 972 322 972 m 417 -367 q 526 -328 483 -367 q 569 -228 569 -290 q 526 -126 569 -165 q 417 -86 483 -86 q 307 -126 350 -86 q 264 -228 264 -165 q 307 -328 264 -290 q 417 -367 350 -367 "},"Ą":{"ha":833,"x_min":0,"x_max":858,"o":"m 493 376 l 332 376 l 346 439 q 377 580 361 504 q 408 725 393 656 l 414 725 q 447 581 431 657 q 479 439 464 504 l 493 376 m 858 -264 l 806 -144 q 782 -158 796 -151 q 753 -164 768 -164 q 717 -152 732 -164 q 703 -117 703 -140 q 712 -75 703 -96 q 738 -37 721 -54 q 778 -10 754 -21 q 833 0 803 0 l 561 903 l 272 903 l 0 0 l 244 0 l 289 192 l 536 192 l 581 0 l 647 0 q 610 -25 631 -8 q 572 -65 590 -42 q 542 -118 554 -89 q 531 -181 531 -147 q 580 -281 531 -246 q 700 -317 629 -317 q 785 -302 740 -317 q 858 -264 829 -287 "},"Æ":{"ha":833,"x_min":-6,"x_max":828,"o":"m 429 368 l 336 368 l 367 483 q 394 599 379 538 q 425 725 410 660 l 429 725 l 429 368 m 828 200 l 639 200 l 639 364 l 788 364 l 788 564 l 639 564 l 639 703 l 817 703 l 817 903 l 258 903 l -6 0 l 239 0 l 288 183 l 429 183 l 429 0 l 828 0 l 828 200 "},"Ƀ":{"ha":833,"x_min":3,"x_max":781,"o":"m 414 169 l 344 169 l 344 242 l 472 242 l 472 353 l 344 353 l 344 422 l 414 422 q 519 394 485 422 q 553 300 553 365 q 519 203 553 238 q 414 169 485 169 m 344 561 l 344 733 l 397 733 q 483 715 456 733 q 511 656 511 697 q 397 561 511 561 l 344 561 m 589 506 l 589 511 q 656 540 628 521 q 703 582 685 558 q 731 632 722 606 q 739 686 739 658 q 713 790 739 749 q 642 857 688 832 q 535 892 596 882 q 403 903 474 903 l 106 903 l 106 353 l 3 344 l 3 242 l 106 242 l 106 0 l 431 0 q 567 16 503 0 q 678 67 631 32 q 753 154 726 101 q 781 281 781 207 q 733 431 781 376 q 589 506 685 486 "},"Ç":{"ha":833,"x_min":71,"x_max":799,"o":"m 71 444 q 106 242 71 329 q 202 98 142 156 q 342 12 263 40 q 510 -17 421 -17 q 667 17 593 -17 q 799 117 740 50 l 668 261 q 603 209 639 229 q 524 189 568 189 q 374 257 432 189 q 315 453 315 325 q 331 563 315 514 q 372 644 346 611 q 435 696 399 678 q 513 714 471 714 q 592 699 558 714 q 657 656 625 683 l 788 803 q 669 884 739 849 q 513 919 600 919 q 340 888 421 919 q 200 795 260 856 q 106 647 140 735 q 71 444 71 558 m 419 6 l 364 -106 q 427 -132 413 -118 q 442 -161 442 -146 q 410 -202 442 -189 q 331 -219 379 -215 l 347 -311 q 448 -300 400 -310 q 532 -272 496 -290 q 590 -226 568 -253 q 611 -161 611 -199 q 589 -92 611 -117 q 531 -56 567 -68 l 556 6 l 419 6 "},"Ć":{"ha":833,"x_min":71,"x_max":799,"o":"m 71 444 q 106 242 71 329 q 202 98 142 156 q 342 12 263 40 q 510 -17 421 -17 q 667 17 593 -17 q 799 117 740 50 l 668 261 q 603 209 639 229 q 524 189 568 189 q 374 257 432 189 q 315 453 315 325 q 331 563 315 514 q 372 644 346 611 q 435 696 399 678 q 513 714 471 714 q 592 699 558 714 q 657 656 625 683 l 788 803 q 669 884 739 849 q 513 919 600 919 q 340 888 421 919 q 200 795 260 856 q 106 647 140 735 q 71 444 71 558 m 567 972 l 736 1144 l 486 1144 l 378 972 l 567 972 "},"Ĉ":{"ha":833,"x_min":71,"x_max":799,"o":"m 71 444 q 106 242 71 329 q 202 98 142 156 q 342 12 263 40 q 510 -17 421 -17 q 667 17 593 -17 q 799 117 740 50 l 668 261 q 603 209 639 229 q 524 189 568 189 q 374 257 432 189 q 315 453 315 325 q 331 563 315 514 q 372 644 346 611 q 435 696 399 678 q 513 714 471 714 q 592 699 558 714 q 657 656 625 683 l 788 803 q 669 884 739 849 q 513 919 600 919 q 340 888 421 919 q 200 795 260 856 q 106 647 140 735 q 71 444 71 558 m 244 972 l 425 972 l 492 1053 l 497 1053 l 564 972 l 744 972 l 611 1144 l 378 1144 l 244 972 "},"Č":{"ha":833,"x_min":71,"x_max":799,"o":"m 71 444 q 106 242 71 329 q 202 98 142 156 q 342 12 263 40 q 510 -17 421 -17 q 667 17 593 -17 q 799 117 740 50 l 668 261 q 603 209 639 229 q 524 189 568 189 q 374 257 432 189 q 315 453 315 325 q 331 563 315 514 q 372 644 346 611 q 435 696 399 678 q 513 714 471 714 q 592 699 558 714 q 657 656 625 683 l 788 803 q 669 884 739 849 q 513 919 600 919 q 340 888 421 919 q 200 795 260 856 q 106 647 140 735 q 71 444 71 558 m 744 1144 l 564 1144 l 497 1064 l 492 1064 l 425 1144 l 244 1144 l 378 972 l 611 972 l 744 1144 "},"Ċ":{"ha":833,"x_min":71,"x_max":799,"o":"m 71 444 q 106 242 71 329 q 202 98 142 156 q 342 12 263 40 q 510 -17 421 -17 q 667 17 593 -17 q 799 117 740 50 l 668 261 q 603 209 639 229 q 524 189 568 189 q 374 257 432 189 q 315 453 315 325 q 331 563 315 514 q 372 644 346 611 q 435 696 399 678 q 513 714 471 714 q 592 699 558 714 q 657 656 625 683 l 788 803 q 669 884 739 849 q 513 919 600 919 q 340 888 421 919 q 200 795 260 856 q 106 647 140 735 q 71 444 71 558 m 494 967 q 590 1000 553 967 q 628 1086 628 1033 q 590 1172 628 1139 q 494 1206 553 1206 q 399 1172 436 1206 q 361 1086 361 1139 q 399 1000 361 1033 q 494 967 436 967 "},"Ď":{"ha":833,"x_min":81,"x_max":775,"o":"m 81 903 l 81 0 l 349 0 q 518 26 440 0 q 653 108 596 53 q 743 250 711 164 q 775 456 775 336 q 742 660 775 575 q 651 799 710 744 q 513 878 593 853 q 335 903 432 903 l 81 903 m 322 192 l 319 192 l 319 711 l 322 711 q 403 701 365 711 q 469 663 442 690 q 514 585 497 635 q 531 456 531 535 q 514 325 531 376 q 469 244 497 274 q 403 203 442 215 q 322 192 365 192 m 663 1144 l 482 1144 l 415 1064 l 410 1064 l 343 1144 l 163 1144 l 296 972 l 529 972 l 663 1144 "},"Ḍ":{"ha":833,"x_min":81,"x_max":775,"o":"m 81 903 l 81 0 l 349 0 q 518 26 440 0 q 653 108 596 53 q 743 250 711 164 q 775 456 775 336 q 742 660 775 575 q 651 799 710 744 q 513 878 593 853 q 335 903 432 903 l 81 903 m 322 192 l 319 192 l 319 711 l 322 711 q 403 701 365 711 q 469 663 442 690 q 514 585 497 635 q 531 456 531 535 q 514 325 531 376 q 469 244 497 274 q 403 203 442 215 q 322 192 365 192 m 404 -367 q 514 -328 471 -367 q 557 -228 557 -290 q 514 -126 557 -165 q 404 -86 471 -86 q 294 -126 338 -86 q 251 -228 251 -165 q 294 -328 251 -290 q 404 -367 338 -367 "},"Ḏ":{"ha":833,"x_min":81,"x_max":775,"o":"m 81 903 l 81 0 l 349 0 q 518 26 440 0 q 653 108 596 53 q 743 250 711 164 q 775 456 775 336 q 742 660 775 575 q 651 799 710 744 q 513 878 593 853 q 335 903 432 903 l 81 903 m 322 192 l 319 192 l 319 711 l 322 711 q 403 701 365 711 q 469 663 442 690 q 514 585 497 635 q 531 456 531 535 q 514 325 531 376 q 469 244 497 274 q 403 203 442 215 q 322 192 365 192 m 604 -272 l 604 -122 l 204 -122 l 204 -272 l 604 -272 "},"Đ":{"ha":833,"x_min":-6,"x_max":783,"o":"m 89 408 l 89 0 l 358 0 q 526 26 449 0 q 661 108 604 53 q 751 250 718 164 q 783 456 783 336 q 751 660 783 575 q 660 799 718 744 q 521 878 601 853 q 344 903 440 903 l 89 903 l 89 519 l -6 511 l -6 408 l 89 408 m 331 192 l 328 192 l 328 408 l 458 408 l 458 519 l 328 519 l 328 711 l 331 711 q 411 701 374 711 q 477 663 449 690 q 522 585 506 635 q 539 456 539 535 q 522 325 539 376 q 477 244 506 274 q 411 203 449 215 q 331 192 374 192 "},"È":{"ha":833,"x_min":119,"x_max":744,"o":"m 119 903 l 119 0 l 744 0 l 744 200 l 358 200 l 358 361 l 675 361 l 675 561 l 358 561 l 358 703 l 731 703 l 731 903 l 119 903 m 200 1144 l 369 972 l 558 972 l 450 1144 l 200 1144 "},"É":{"ha":833,"x_min":119,"x_max":744,"o":"m 119 903 l 119 0 l 744 0 l 744 200 l 358 200 l 358 361 l 675 361 l 675 561 l 358 561 l 358 703 l 731 703 l 731 903 l 119 903 m 514 972 l 683 1144 l 433 1144 l 325 972 l 514 972 "},"Ê":{"ha":833,"x_min":119,"x_max":744,"o":"m 119 903 l 119 0 l 744 0 l 744 200 l 358 200 l 358 361 l 675 361 l 675 561 l 358 561 l 358 703 l 731 703 l 731 903 l 119 903 m 192 972 l 372 972 l 439 1053 l 444 1053 l 511 972 l 692 972 l 558 1144 l 325 1144 l 192 972 "},"Ě":{"ha":833,"x_min":119,"x_max":744,"o":"m 119 903 l 119 0 l 744 0 l 744 200 l 358 200 l 358 361 l 675 361 l 675 561 l 358 561 l 358 703 l 731 703 l 731 903 l 119 903 m 692 1144 l 511 1144 l 444 1064 l 439 1064 l 372 1144 l 192 1144 l 325 972 l 558 972 l 692 1144 "},"Ë":{"ha":833,"x_min":119,"x_max":744,"o":"m 119 903 l 119 0 l 744 0 l 744 200 l 358 200 l 358 361 l 675 361 l 675 561 l 358 561 l 358 703 l 731 703 l 731 903 l 119 903 m 297 964 q 376 995 346 964 q 406 1072 406 1026 q 376 1149 406 1118 q 297 1181 346 1181 q 219 1149 249 1181 q 189 1072 189 1118 q 219 995 189 1026 q 297 964 249 964 m 586 964 q 665 995 635 964 q 694 1072 694 1026 q 665 1149 694 1118 q 586 1181 635 1181 q 508 1149 538 1181 q 478 1072 478 1118 q 508 995 478 1026 q 586 964 538 964 "},"Ē":{"ha":833,"x_min":119,"x_max":744,"o":"m 119 903 l 119 0 l 744 0 l 744 200 l 358 200 l 358 361 l 675 361 l 675 561 l 358 561 l 358 703 l 731 703 l 731 903 l 119 903 m 236 1144 l 236 994 l 647 994 l 647 1144 l 236 1144 "},"Ĕ":{"ha":833,"x_min":119,"x_max":744,"o":"m 119 903 l 119 0 l 744 0 l 744 200 l 358 200 l 358 361 l 675 361 l 675 561 l 358 561 l 358 703 l 731 703 l 731 903 l 119 903 m 442 972 q 583 1017 536 972 q 639 1144 631 1063 l 511 1144 q 489 1104 504 1119 q 442 1089 474 1089 q 394 1104 410 1089 q 372 1144 379 1119 l 244 1144 q 300 1017 253 1063 q 442 972 347 972 "},"Ė":{"ha":833,"x_min":119,"x_max":744,"o":"m 119 903 l 119 0 l 744 0 l 744 200 l 358 200 l 358 361 l 675 361 l 675 561 l 358 561 l 358 703 l 731 703 l 731 903 l 119 903 m 442 967 q 538 1000 500 967 q 575 1086 575 1033 q 538 1172 575 1139 q 442 1206 500 1206 q 346 1172 383 1206 q 308 1086 308 1139 q 346 1000 308 1033 q 442 967 383 967 "},"Ẹ":{"ha":833,"x_min":119,"x_max":744,"o":"m 119 903 l 119 0 l 744 0 l 744 200 l 358 200 l 358 361 l 675 361 l 675 561 l 358 561 l 358 703 l 731 703 l 731 903 l 119 903 m 439 -367 q 549 -328 506 -367 q 592 -228 592 -290 q 549 -126 592 -165 q 439 -86 506 -86 q 329 -126 372 -86 q 286 -228 286 -165 q 329 -328 286 -290 q 439 -367 372 -367 "},"Ẻ":{"ha":833,"x_min":119,"x_max":744,"o":"m 119 903 l 119 0 l 744 0 l 744 200 l 358 200 l 358 361 l 675 361 l 675 561 l 358 561 l 358 703 l 731 703 l 731 903 l 119 903 m 372 1047 l 389 956 q 469 967 432 957 q 535 995 507 976 q 581 1041 564 1014 q 597 1106 597 1068 q 585 1157 597 1133 q 544 1198 574 1181 q 467 1226 515 1215 q 347 1239 419 1236 l 319 1122 q 404 1108 381 1118 q 428 1081 428 1097 q 412 1057 428 1064 q 372 1047 396 1050 "},"Ẽ":{"ha":833,"x_min":119,"x_max":744,"o":"m 119 903 l 119 0 l 744 0 l 744 200 l 358 200 l 358 361 l 675 361 l 675 561 l 358 561 l 358 703 l 731 703 l 731 903 l 119 903 m 531 972 q 585 984 558 972 q 633 1021 611 996 q 669 1084 654 1046 q 692 1175 685 1122 l 572 1175 q 550 1129 564 1142 q 519 1117 536 1117 q 488 1126 504 1117 q 450 1146 471 1135 q 405 1166 429 1157 q 353 1175 381 1175 q 250 1126 296 1175 q 192 972 204 1078 l 311 972 q 333 1018 319 1006 q 364 1031 347 1031 q 395 1022 378 1031 q 433 1001 413 1013 q 478 981 454 990 q 531 972 503 972 "},"Ế":{"ha":833,"x_min":119,"x_max":885,"o":"m 119 903 l 119 0 l 744 0 l 744 200 l 358 200 l 358 361 l 675 361 l 675 561 l 358 561 l 358 703 l 731 703 l 731 903 l 119 903 m 704 1242 l 610 1069 l 743 1069 l 885 1242 l 704 1242 m 339 1136 l 206 972 l 372 972 l 439 1044 l 444 1044 l 511 972 l 678 972 l 544 1136 l 339 1136 "},"Ề":{"ha":833,"x_min":119,"x_max":801,"o":"m 119 903 l 119 0 l 744 0 l 744 200 l 358 200 l 358 361 l 675 361 l 675 561 l 358 561 l 358 703 l 731 703 l 731 903 l 119 903 m 801 1069 l 707 1242 l 526 1242 l 668 1069 l 801 1069 m 339 1136 l 206 972 l 372 972 l 439 1044 l 444 1044 l 511 972 l 678 972 l 544 1136 l 339 1136 "},"Ể":{"ha":833,"x_min":119,"x_max":817,"o":"m 119 903 l 119 0 l 744 0 l 744 200 l 358 200 l 358 361 l 675 361 l 675 561 l 358 561 l 358 703 l 731 703 l 731 903 l 119 903 m 628 1111 l 644 1039 q 767 1071 718 1043 q 817 1164 817 1099 q 807 1207 817 1186 q 772 1243 797 1228 q 706 1268 747 1258 q 600 1281 664 1278 l 578 1186 q 649 1172 631 1182 q 667 1144 667 1161 q 656 1121 667 1128 q 628 1111 644 1114 m 339 1136 l 206 972 l 372 972 l 439 1044 l 444 1044 l 511 972 l 678 972 l 544 1136 l 339 1136 "},"Ễ":{"ha":833,"x_min":119,"x_max":744,"o":"m 119 903 l 119 0 l 744 0 l 744 200 l 358 200 l 358 361 l 675 361 l 675 561 l 358 561 l 358 703 l 731 703 l 731 903 l 119 903 m 339 1136 l 206 972 l 372 972 l 439 1044 l 444 1044 l 511 972 l 678 972 l 544 1136 l 339 1136 m 225 1186 l 325 1186 q 344 1225 332 1214 q 372 1236 356 1236 q 401 1228 386 1236 q 434 1211 415 1221 q 475 1194 453 1201 q 525 1186 497 1186 q 609 1225 571 1186 q 658 1356 647 1264 l 558 1356 q 540 1317 551 1328 q 511 1306 528 1306 q 483 1313 497 1306 q 449 1331 468 1321 q 408 1348 431 1340 q 358 1356 386 1356 q 274 1317 313 1356 q 225 1186 236 1278 "},"Ệ":{"ha":833,"x_min":119,"x_max":744,"o":"m 119 903 l 119 0 l 744 0 l 744 200 l 358 200 l 358 361 l 675 361 l 675 561 l 358 561 l 358 703 l 731 703 l 731 903 l 119 903 m 192 972 l 372 972 l 439 1053 l 444 1053 l 511 972 l 692 972 l 558 1144 l 325 1144 l 192 972 m 439 -367 q 549 -328 506 -367 q 592 -228 592 -290 q 549 -126 592 -165 q 439 -86 506 -86 q 329 -126 372 -86 q 286 -228 286 -165 q 329 -328 286 -290 q 439 -367 372 -367 "},"Ę":{"ha":833,"x_min":119,"x_max":775,"o":"m 119 903 l 119 0 l 558 0 q 522 -28 542 -11 q 486 -67 503 -44 q 458 -119 469 -90 q 447 -181 447 -147 q 497 -281 447 -246 q 617 -317 546 -317 q 701 -302 657 -317 q 775 -264 746 -287 l 722 -144 q 700 -158 713 -151 q 675 -164 688 -164 q 637 -153 654 -164 q 619 -117 619 -142 q 628 -75 619 -96 q 653 -37 638 -54 q 691 -10 669 -21 q 736 0 713 0 l 744 0 l 744 200 l 358 200 l 358 361 l 675 361 l 675 561 l 358 561 l 358 703 l 731 703 l 731 903 l 119 903 "},"Ĝ":{"ha":833,"x_min":56,"x_max":767,"o":"m 56 444 q 89 242 56 329 q 180 98 122 156 q 315 12 238 40 q 479 -17 392 -17 q 564 -7 522 -17 q 643 18 606 3 q 712 53 681 33 q 767 94 743 74 l 767 525 l 442 525 l 442 331 l 554 331 l 554 206 q 526 193 543 197 q 493 189 510 189 q 349 257 396 189 q 301 453 301 325 q 315 563 301 514 q 353 644 329 611 q 410 696 378 678 q 481 714 443 714 q 560 699 529 714 q 619 656 592 683 l 750 803 q 639 884 706 849 q 481 919 572 919 q 315 888 393 919 q 180 797 238 857 q 89 647 122 736 q 56 444 56 558 m 208 972 l 389 972 l 456 1053 l 461 1053 l 528 972 l 708 972 l 575 1144 l 342 1144 l 208 972 "},"Ğ":{"ha":833,"x_min":56,"x_max":767,"o":"m 56 444 q 89 242 56 329 q 180 98 122 156 q 315 12 238 40 q 479 -17 392 -17 q 564 -7 522 -17 q 643 18 606 3 q 712 53 681 33 q 767 94 743 74 l 767 525 l 442 525 l 442 331 l 554 331 l 554 206 q 526 193 543 197 q 493 189 510 189 q 349 257 396 189 q 301 453 301 325 q 315 563 301 514 q 353 644 329 611 q 410 696 378 678 q 481 714 443 714 q 560 699 529 714 q 619 656 592 683 l 750 803 q 639 884 706 849 q 481 919 572 919 q 315 888 393 919 q 180 797 238 857 q 89 647 122 736 q 56 444 56 558 m 458 972 q 600 1017 553 972 q 656 1144 647 1063 l 528 1144 q 506 1104 521 1119 q 458 1089 490 1089 q 411 1104 426 1089 q 389 1144 396 1119 l 261 1144 q 317 1017 269 1063 q 458 972 364 972 "},"Ġ":{"ha":833,"x_min":56,"x_max":767,"o":"m 56 444 q 89 242 56 329 q 180 98 122 156 q 315 12 238 40 q 479 -17 392 -17 q 564 -7 522 -17 q 643 18 606 3 q 712 53 681 33 q 767 94 743 74 l 767 525 l 442 525 l 442 331 l 554 331 l 554 206 q 526 193 543 197 q 493 189 510 189 q 349 257 396 189 q 301 453 301 325 q 315 563 301 514 q 353 644 329 611 q 410 696 378 678 q 481 714 443 714 q 560 699 529 714 q 619 656 592 683 l 750 803 q 639 884 706 849 q 481 919 572 919 q 315 888 393 919 q 180 797 238 857 q 89 647 122 736 q 56 444 56 558 m 458 967 q 554 1000 517 967 q 592 1086 592 1033 q 554 1172 592 1139 q 458 1206 517 1206 q 363 1172 400 1206 q 325 1086 325 1139 q 363 1000 325 1033 q 458 967 400 967 "},"Ģ":{"ha":833,"x_min":56,"x_max":767,"o":"m 56 444 q 89 242 56 329 q 180 98 122 156 q 315 12 238 40 q 479 -17 392 -17 q 564 -7 522 -17 q 643 18 606 3 q 712 53 681 33 q 767 94 743 74 l 767 525 l 442 525 l 442 331 l 554 331 l 554 206 q 526 193 543 197 q 493 189 510 189 q 349 257 396 189 q 301 453 301 325 q 315 563 301 514 q 353 644 329 611 q 410 696 378 678 q 481 714 443 714 q 560 699 529 714 q 619 656 592 683 l 750 803 q 639 884 706 849 q 481 919 572 919 q 315 888 393 919 q 180 797 238 857 q 89 647 122 736 q 56 444 56 558 m 411 -56 l 411 -56 l 367 -139 q 410 -158 399 -147 q 422 -186 422 -169 q 391 -219 422 -210 q 311 -233 360 -229 l 328 -325 q 428 -314 381 -324 q 513 -285 476 -304 q 570 -240 549 -267 q 592 -175 592 -212 q 552 -92 592 -121 q 411 -56 513 -64 "},"Ǧ":{"ha":833,"x_min":56,"x_max":767,"o":"m 56 444 q 89 242 56 329 q 180 98 122 156 q 315 12 238 40 q 479 -17 392 -17 q 564 -7 522 -17 q 643 18 606 3 q 712 53 681 33 q 767 94 743 74 l 767 525 l 442 525 l 442 331 l 554 331 l 554 206 q 526 193 543 197 q 493 189 510 189 q 349 257 396 189 q 301 453 301 325 q 315 563 301 514 q 353 644 329 611 q 410 696 378 678 q 481 714 443 714 q 560 699 529 714 q 619 656 592 683 l 750 803 q 639 884 706 849 q 481 919 572 919 q 315 888 393 919 q 180 797 238 857 q 89 647 122 736 q 56 444 56 558 m 708 1144 l 528 1144 l 461 1064 l 456 1064 l 389 1144 l 208 1144 l 342 972 l 575 972 l 708 1144 "},"Ḡ":{"ha":833,"x_min":56,"x_max":767,"o":"m 56 444 q 89 242 56 329 q 180 98 122 156 q 315 12 238 40 q 479 -17 392 -17 q 564 -7 522 -17 q 643 18 606 3 q 712 53 681 33 q 767 94 743 74 l 767 525 l 442 525 l 442 331 l 554 331 l 554 206 q 526 193 543 197 q 493 189 510 189 q 349 257 396 189 q 301 453 301 325 q 315 563 301 514 q 353 644 329 611 q 410 696 378 678 q 481 714 443 714 q 560 699 529 714 q 619 656 592 683 l 750 803 q 639 884 706 849 q 481 919 572 919 q 315 888 393 919 q 180 797 238 857 q 89 647 122 736 q 56 444 56 558 m 253 1144 l 253 994 l 664 994 l 664 1144 l 253 1144 "},"Ĥ":{"ha":833,"x_min":81,"x_max":753,"o":"m 81 903 l 81 0 l 319 0 l 319 358 l 514 358 l 514 0 l 753 0 l 753 903 l 514 903 l 514 567 l 319 567 l 319 903 l 81 903 m 167 972 l 347 972 l 414 1053 l 419 1053 l 486 972 l 667 972 l 533 1144 l 300 1144 l 167 972 "},"Ḥ":{"ha":833,"x_min":81,"x_max":753,"o":"m 81 903 l 81 0 l 319 0 l 319 358 l 514 358 l 514 0 l 753 0 l 753 903 l 514 903 l 514 567 l 319 567 l 319 903 l 81 903 m 417 -367 q 526 -328 483 -367 q 569 -228 569 -290 q 526 -126 569 -165 q 417 -86 483 -86 q 307 -126 350 -86 q 264 -228 264 -165 q 307 -328 264 -290 q 417 -367 350 -367 "},"Ḫ":{"ha":833,"x_min":81,"x_max":753,"o":"m 81 903 l 81 0 l 319 0 l 319 358 l 514 358 l 514 0 l 753 0 l 753 903 l 514 903 l 514 567 l 319 567 l 319 903 l 81 903 m 417 -294 q 503 -278 467 -294 q 565 -235 540 -262 q 603 -172 590 -208 q 617 -94 615 -135 l 486 -94 q 465 -147 482 -126 q 417 -167 449 -167 q 368 -147 385 -167 q 347 -94 351 -126 l 217 -94 q 231 -172 218 -135 q 268 -235 243 -208 q 330 -278 293 -262 q 417 -294 367 -294 "},"Ħ":{"ha":833,"x_min":0,"x_max":833,"o":"m 514 672 l 514 567 l 319 567 l 319 672 l 514 672 m 833 672 l 833 783 l 753 783 l 753 903 l 514 903 l 514 783 l 319 783 l 319 903 l 81 903 l 81 782 l 0 775 l 0 672 l 81 672 l 81 0 l 319 0 l 319 358 l 514 358 l 514 0 l 753 0 l 753 672 l 833 672 "},"Ì":{"ha":833,"x_min":92,"x_max":742,"o":"m 92 200 l 92 0 l 742 0 l 742 200 l 536 200 l 536 703 l 742 703 l 742 903 l 92 903 l 92 703 l 297 703 l 297 200 l 92 200 m 175 1144 l 344 972 l 533 972 l 425 1144 l 175 1144 "},"Í":{"ha":833,"x_min":92,"x_max":742,"o":"m 92 200 l 92 0 l 742 0 l 742 200 l 536 200 l 536 703 l 742 703 l 742 903 l 92 903 l 92 703 l 297 703 l 297 200 l 92 200 m 489 972 l 658 1144 l 408 1144 l 300 972 l 489 972 "},"Î":{"ha":833,"x_min":92,"x_max":742,"o":"m 92 200 l 92 0 l 742 0 l 742 200 l 536 200 l 536 703 l 742 703 l 742 903 l 92 903 l 92 703 l 297 703 l 297 200 l 92 200 m 167 972 l 347 972 l 414 1053 l 419 1053 l 486 972 l 667 972 l 533 1144 l 300 1144 l 167 972 "},"Ĩ":{"ha":833,"x_min":92,"x_max":742,"o":"m 92 200 l 92 0 l 742 0 l 742 200 l 536 200 l 536 703 l 742 703 l 742 903 l 92 903 l 92 703 l 297 703 l 297 200 l 92 200 m 506 972 q 560 984 533 972 q 608 1021 586 996 q 644 1084 629 1046 q 667 1175 660 1122 l 547 1175 q 525 1129 539 1142 q 494 1117 511 1117 q 463 1126 479 1117 q 425 1146 446 1135 q 380 1166 404 1157 q 328 1175 356 1175 q 225 1126 271 1175 q 167 972 179 1078 l 286 972 q 308 1018 294 1006 q 339 1031 322 1031 q 370 1022 353 1031 q 408 1001 388 1013 q 453 981 429 990 q 506 972 478 972 "},"Ï":{"ha":833,"x_min":92,"x_max":742,"o":"m 92 200 l 92 0 l 742 0 l 742 200 l 536 200 l 536 703 l 742 703 l 742 903 l 92 903 l 92 703 l 297 703 l 297 200 l 92 200 m 272 964 q 351 995 321 964 q 381 1072 381 1026 q 351 1149 381 1118 q 272 1181 321 1181 q 194 1149 224 1181 q 164 1072 164 1118 q 194 995 164 1026 q 272 964 224 964 m 561 964 q 640 995 610 964 q 669 1072 669 1026 q 640 1149 669 1118 q 561 1181 610 1181 q 483 1149 513 1181 q 453 1072 453 1118 q 483 995 453 1026 q 561 964 513 964 "},"Ī":{"ha":833,"x_min":92,"x_max":742,"o":"m 92 200 l 92 0 l 742 0 l 742 200 l 536 200 l 536 703 l 742 703 l 742 903 l 92 903 l 92 703 l 297 703 l 297 200 l 92 200 m 211 1144 l 211 994 l 622 994 l 622 1144 l 211 1144 "},"Ĭ":{"ha":833,"x_min":92,"x_max":742,"o":"m 92 200 l 92 0 l 742 0 l 742 200 l 536 200 l 536 703 l 742 703 l 742 903 l 92 903 l 92 703 l 297 703 l 297 200 l 92 200 m 417 972 q 558 1017 511 972 q 614 1144 606 1063 l 486 1144 q 464 1104 479 1119 q 417 1089 449 1089 q 369 1104 385 1089 q 347 1144 354 1119 l 219 1144 q 275 1017 228 1063 q 417 972 322 972 "},"İ":{"ha":833,"x_min":92,"x_max":742,"o":"m 92 200 l 92 0 l 742 0 l 742 200 l 536 200 l 536 703 l 742 703 l 742 903 l 92 903 l 92 703 l 297 703 l 297 200 l 92 200 m 417 967 q 513 1000 475 967 q 550 1086 550 1033 q 513 1172 550 1139 q 417 1206 475 1206 q 321 1172 358 1206 q 283 1086 283 1139 q 321 1000 283 1033 q 417 967 358 967 "},"Ǐ":{"ha":833,"x_min":92,"x_max":742,"o":"m 92 200 l 92 0 l 742 0 l 742 200 l 536 200 l 536 703 l 742 703 l 742 903 l 92 903 l 92 703 l 297 703 l 297 200 l 92 200 m 667 1144 l 486 1144 l 419 1064 l 414 1064 l 347 1144 l 167 1144 l 300 972 l 533 972 l 667 1144 "},"Ỉ":{"ha":833,"x_min":92,"x_max":742,"o":"m 92 200 l 92 0 l 742 0 l 742 200 l 536 200 l 536 703 l 742 703 l 742 903 l 92 903 l 92 703 l 297 703 l 297 200 l 92 200 m 347 1047 l 364 956 q 444 967 407 957 q 510 995 482 976 q 556 1041 539 1014 q 572 1106 572 1068 q 560 1157 572 1133 q 519 1198 549 1181 q 442 1226 490 1215 q 322 1239 394 1236 l 294 1122 q 379 1108 356 1118 q 403 1081 403 1097 q 387 1057 403 1064 q 347 1047 371 1050 "},"Ị":{"ha":833,"x_min":92,"x_max":742,"o":"m 92 200 l 92 0 l 742 0 l 742 200 l 536 200 l 536 703 l 742 703 l 742 903 l 92 903 l 92 703 l 297 703 l 297 200 l 92 200 m 417 -367 q 526 -328 483 -367 q 569 -228 569 -290 q 526 -126 569 -165 q 417 -86 483 -86 q 307 -126 350 -86 q 264 -228 264 -165 q 307 -328 264 -290 q 417 -367 350 -367 "},"Į":{"ha":833,"x_min":92,"x_max":742,"o":"m 92 200 l 92 0 l 363 0 q 329 -26 347 -10 q 294 -66 311 -43 q 267 -117 278 -89 q 256 -181 256 -146 q 305 -281 256 -246 q 425 -317 354 -317 q 510 -302 465 -317 q 583 -264 554 -287 l 531 -144 q 509 -158 522 -151 q 482 -164 496 -164 q 445 -153 463 -164 q 428 -117 428 -142 q 451 -51 428 -83 q 536 0 475 -19 l 742 0 l 742 200 l 536 200 l 536 703 l 742 703 l 742 903 l 92 903 l 92 703 l 297 703 l 297 200 l 92 200 "},"Ĵ":{"ha":833,"x_min":71,"x_max":729,"o":"m 206 281 l 71 132 q 140 62 103 90 q 218 16 178 33 q 299 -9 258 -1 q 378 -17 340 -17 q 542 10 475 -17 q 651 81 610 36 q 711 186 693 126 q 729 314 729 246 l 729 903 l 147 903 l 147 703 l 490 703 l 490 333 q 483 263 490 290 q 459 218 475 235 q 421 195 443 201 q 369 189 399 189 q 286 213 328 189 q 206 281 244 236 m 197 972 l 378 972 l 444 1053 l 450 1053 l 517 972 l 697 972 l 564 1144 l 331 1144 l 197 972 "},"Ķ":{"ha":833,"x_min":79,"x_max":832,"o":"m 79 903 l 79 0 l 319 0 l 319 225 l 406 347 l 569 0 l 832 0 l 544 536 l 810 903 l 547 903 l 325 567 l 319 567 l 319 903 l 79 903 m 389 -56 l 389 -56 l 344 -139 q 388 -158 376 -147 q 400 -186 400 -169 q 369 -219 400 -210 q 289 -233 338 -229 l 306 -325 q 406 -314 358 -324 q 490 -285 454 -304 q 548 -240 526 -267 q 569 -175 569 -212 q 530 -92 569 -121 q 389 -56 490 -64 "},"Ĺ":{"ha":833,"x_min":133,"x_max":757,"o":"m 133 903 l 133 0 l 757 0 l 757 200 l 372 200 l 372 903 l 133 903 m 347 972 l 517 1144 l 267 1144 l 158 972 l 347 972 "},"Ľ":{"ha":833,"x_min":133,"x_max":757,"o":"m 133 903 l 133 0 l 757 0 l 757 200 l 372 200 l 372 903 l 133 903 m 535 707 l 635 707 l 674 918 l 676 1021 l 526 1021 l 535 707 "},"Ļ":{"ha":833,"x_min":133,"x_max":757,"o":"m 133 903 l 133 0 l 757 0 l 757 200 l 372 200 l 372 903 l 133 903 m 400 -56 l 400 -56 l 356 -139 q 399 -158 388 -147 q 411 -186 411 -169 q 380 -219 411 -210 q 300 -233 349 -229 l 317 -325 q 417 -314 369 -324 q 501 -285 465 -304 q 559 -240 538 -267 q 581 -175 581 -212 q 541 -92 581 -121 q 400 -56 501 -64 "},"Ŀ":{"ha":833,"x_min":133,"x_max":794,"o":"m 133 903 l 133 0 l 757 0 l 757 200 l 372 200 l 372 903 l 133 903 m 642 357 q 751 395 708 357 q 794 496 794 433 q 751 598 794 558 q 642 638 708 638 q 532 598 575 638 q 489 496 489 558 q 532 395 489 433 q 642 357 575 357 "},"Ḷ":{"ha":833,"x_min":133,"x_max":757,"o":"m 133 903 l 133 0 l 757 0 l 757 200 l 372 200 l 372 903 l 133 903 m 453 -367 q 563 -328 519 -367 q 606 -228 606 -290 q 563 -126 606 -165 q 453 -86 519 -86 q 343 -126 386 -86 q 300 -228 300 -165 q 343 -328 300 -290 q 453 -367 386 -367 "},"Ḹ":{"ha":833,"x_min":69,"x_max":757,"o":"m 133 903 l 133 0 l 757 0 l 757 200 l 372 200 l 372 903 l 133 903 m 69 1144 l 69 994 l 481 994 l 481 1144 l 69 1144 m 453 -367 q 563 -328 519 -367 q 606 -228 606 -290 q 563 -126 606 -165 q 453 -86 519 -86 q 343 -126 386 -86 q 300 -228 300 -165 q 343 -328 300 -290 q 453 -367 386 -367 "},"Ḻ":{"ha":833,"x_min":133,"x_max":757,"o":"m 133 903 l 133 0 l 757 0 l 757 200 l 372 200 l 372 903 l 133 903 m 653 -272 l 653 -122 l 253 -122 l 253 -272 l 653 -272 "},"Ł":{"ha":833,"x_min":35,"x_max":757,"o":"m 757 200 l 372 200 l 372 376 l 649 531 l 649 714 l 372 560 l 372 903 l 133 903 l 133 443 l 35 386 l 35 203 l 133 260 l 133 0 l 757 0 l 757 200 "},"Ṃ":{"ha":833,"x_min":81,"x_max":753,"o":"m 81 903 l 81 0 l 269 0 l 269 213 q 266 315 269 253 q 258 442 263 376 q 249 569 254 508 q 239 671 243 631 l 244 671 l 315 403 l 363 240 l 465 240 l 513 403 l 588 671 l 592 671 q 582 569 588 631 q 572 442 576 508 q 565 315 568 376 q 561 213 561 253 l 561 0 l 753 0 l 753 903 l 518 903 l 446 608 l 421 492 l 417 492 l 392 608 l 315 903 l 81 903 m 417 -367 q 526 -328 483 -367 q 569 -228 569 -290 q 526 -126 569 -165 q 417 -86 483 -86 q 307 -126 350 -86 q 264 -228 264 -165 q 307 -328 264 -290 q 417 -367 350 -367 "},"Ń":{"ha":833,"x_min":83,"x_max":750,"o":"m 83 903 l 83 0 l 311 0 l 311 261 q 299 436 311 344 q 278 606 286 528 l 283 606 l 357 404 l 508 0 l 750 0 l 750 903 l 522 903 l 522 642 q 526 555 522 600 q 535 465 529 510 q 546 376 540 419 q 556 297 551 333 l 550 297 l 476 500 l 325 903 l 83 903 m 497 972 l 667 1144 l 417 1144 l 308 972 l 497 972 "},"Ň":{"ha":833,"x_min":83,"x_max":750,"o":"m 83 903 l 83 0 l 311 0 l 311 261 q 299 436 311 344 q 278 606 286 528 l 283 606 l 357 404 l 508 0 l 750 0 l 750 903 l 522 903 l 522 642 q 526 555 522 600 q 535 465 529 510 q 546 376 540 419 q 556 297 551 333 l 550 297 l 476 500 l 325 903 l 83 903 m 675 1144 l 494 1144 l 428 1064 l 422 1064 l 356 1144 l 175 1144 l 308 972 l 542 972 l 675 1144 "},"Ñ":{"ha":833,"x_min":83,"x_max":750,"o":"m 83 903 l 83 0 l 311 0 l 311 261 q 299 436 311 344 q 278 606 286 528 l 283 606 l 357 404 l 508 0 l 750 0 l 750 903 l 522 903 l 522 642 q 526 555 522 600 q 535 465 529 510 q 546 376 540 419 q 556 297 551 333 l 550 297 l 476 500 l 325 903 l 83 903 m 514 972 q 568 984 542 972 q 616 1021 594 996 q 653 1084 638 1046 q 675 1175 668 1122 l 556 1175 q 533 1129 547 1142 q 503 1117 519 1117 q 471 1126 488 1117 q 433 1146 454 1135 q 388 1166 413 1157 q 336 1175 364 1175 q 233 1126 279 1175 q 175 972 188 1078 l 294 972 q 317 1018 303 1006 q 347 1031 331 1031 q 378 1022 361 1031 q 417 1001 396 1013 q 462 981 438 990 q 514 972 486 972 "},"Ņ":{"ha":833,"x_min":83,"x_max":750,"o":"m 83 903 l 83 0 l 311 0 l 311 261 q 299 436 311 344 q 278 606 286 528 l 283 606 l 357 404 l 508 0 l 750 0 l 750 903 l 522 903 l 522 642 q 526 555 522 600 q 535 465 529 510 q 546 376 540 419 q 556 297 551 333 l 550 297 l 476 500 l 325 903 l 83 903 m 364 -56 l 364 -56 l 319 -139 q 363 -158 351 -147 q 375 -186 375 -169 q 344 -219 375 -210 q 264 -233 313 -229 l 281 -325 q 381 -314 333 -324 q 465 -285 429 -304 q 523 -240 501 -267 q 544 -175 544 -212 q 505 -92 544 -121 q 364 -56 465 -64 "},"Ṅ":{"ha":833,"x_min":83,"x_max":750,"o":"m 83 903 l 83 0 l 311 0 l 311 261 q 299 436 311 344 q 278 606 286 528 l 283 606 l 357 404 l 508 0 l 750 0 l 750 903 l 522 903 l 522 642 q 526 555 522 600 q 535 465 529 510 q 546 376 540 419 q 556 297 551 333 l 550 297 l 476 500 l 325 903 l 83 903 m 425 967 q 521 1000 483 967 q 558 1086 558 1033 q 521 1172 558 1139 q 425 1206 483 1206 q 329 1172 367 1206 q 292 1086 292 1139 q 329 1000 292 1033 q 425 967 367 967 "},"Ṇ":{"ha":833,"x_min":83,"x_max":750,"o":"m 83 903 l 83 0 l 311 0 l 311 261 q 299 436 311 344 q 278 606 286 528 l 283 606 l 357 404 l 508 0 l 750 0 l 750 903 l 522 903 l 522 642 q 526 555 522 600 q 535 465 529 510 q 546 376 540 419 q 556 297 551 333 l 550 297 l 476 500 l 325 903 l 83 903 m 417 -367 q 526 -328 483 -367 q 569 -228 569 -290 q 526 -126 569 -165 q 417 -86 483 -86 q 307 -126 350 -86 q 264 -228 264 -165 q 307 -328 264 -290 q 417 -367 350 -367 "},"Ṉ":{"ha":833,"x_min":83,"x_max":750,"o":"m 83 903 l 83 0 l 311 0 l 311 261 q 299 436 311 344 q 278 606 286 528 l 283 606 l 357 404 l 508 0 l 750 0 l 750 903 l 522 903 l 522 642 q 526 555 522 600 q 535 465 529 510 q 546 376 540 419 q 556 297 551 333 l 550 297 l 476 500 l 325 903 l 83 903 m 617 -272 l 617 -122 l 217 -122 l 217 -272 l 617 -272 "},"Ò":{"ha":833,"x_min":47,"x_max":786,"o":"m 417 -17 q 567 15 499 -17 q 683 108 635 47 q 759 256 732 168 q 786 456 786 344 q 759 653 786 567 q 683 799 732 739 q 567 889 635 858 q 417 919 499 919 q 267 889 335 919 q 150 799 199 858 q 74 653 101 740 q 47 456 47 567 q 74 256 47 344 q 150 108 101 168 q 267 15 199 47 q 417 -17 335 -17 m 417 189 q 325 260 358 189 q 292 456 292 332 q 325 647 292 579 q 417 714 358 714 q 508 647 475 714 q 542 456 542 579 q 508 260 542 332 q 417 189 475 189 m 175 1144 l 344 972 l 533 972 l 425 1144 l 175 1144 "},"Ó":{"ha":833,"x_min":47,"x_max":786,"o":"m 417 -17 q 567 15 499 -17 q 683 108 635 47 q 759 256 732 168 q 786 456 786 344 q 759 653 786 567 q 683 799 732 739 q 567 889 635 858 q 417 919 499 919 q 267 889 335 919 q 150 799 199 858 q 74 653 101 740 q 47 456 47 567 q 74 256 47 344 q 150 108 101 168 q 267 15 199 47 q 417 -17 335 -17 m 417 189 q 325 260 358 189 q 292 456 292 332 q 325 647 292 579 q 417 714 358 714 q 508 647 475 714 q 542 456 542 579 q 508 260 542 332 q 417 189 475 189 m 489 972 l 658 1144 l 408 1144 l 300 972 l 489 972 "},"Ô":{"ha":833,"x_min":47,"x_max":786,"o":"m 417 -17 q 567 15 499 -17 q 683 108 635 47 q 759 256 732 168 q 786 456 786 344 q 759 653 786 567 q 683 799 732 739 q 567 889 635 858 q 417 919 499 919 q 267 889 335 919 q 150 799 199 858 q 74 653 101 740 q 47 456 47 567 q 74 256 47 344 q 150 108 101 168 q 267 15 199 47 q 417 -17 335 -17 m 417 189 q 325 260 358 189 q 292 456 292 332 q 325 647 292 579 q 417 714 358 714 q 508 647 475 714 q 542 456 542 579 q 508 260 542 332 q 417 189 475 189 m 167 972 l 347 972 l 414 1053 l 419 1053 l 486 972 l 667 972 l 533 1144 l 300 1144 l 167 972 "},"Õ":{"ha":833,"x_min":47,"x_max":786,"o":"m 417 -17 q 567 15 499 -17 q 683 108 635 47 q 759 256 732 168 q 786 456 786 344 q 759 653 786 567 q 683 799 732 739 q 567 889 635 858 q 417 919 499 919 q 267 889 335 919 q 150 799 199 858 q 74 653 101 740 q 47 456 47 567 q 74 256 47 344 q 150 108 101 168 q 267 15 199 47 q 417 -17 335 -17 m 417 189 q 325 260 358 189 q 292 456 292 332 q 325 647 292 579 q 417 714 358 714 q 508 647 475 714 q 542 456 542 579 q 508 260 542 332 q 417 189 475 189 m 506 972 q 560 984 533 972 q 608 1021 586 996 q 644 1084 629 1046 q 667 1175 660 1122 l 547 1175 q 525 1129 539 1142 q 494 1117 511 1117 q 463 1126 479 1117 q 425 1146 446 1135 q 380 1166 404 1157 q 328 1175 356 1175 q 225 1126 271 1175 q 167 972 179 1078 l 286 972 q 308 1018 294 1006 q 339 1031 322 1031 q 370 1022 353 1031 q 408 1001 388 1013 q 453 981 429 990 q 506 972 478 972 "},"Ö":{"ha":833,"x_min":47,"x_max":786,"o":"m 417 -17 q 567 15 499 -17 q 683 108 635 47 q 759 256 732 168 q 786 456 786 344 q 759 653 786 567 q 683 799 732 739 q 567 889 635 858 q 417 919 499 919 q 267 889 335 919 q 150 799 199 858 q 74 653 101 740 q 47 456 47 567 q 74 256 47 344 q 150 108 101 168 q 267 15 199 47 q 417 -17 335 -17 m 417 189 q 325 260 358 189 q 292 456 292 332 q 325 647 292 579 q 417 714 358 714 q 508 647 475 714 q 542 456 542 579 q 508 260 542 332 q 417 189 475 189 m 272 964 q 351 995 321 964 q 381 1072 381 1026 q 351 1149 381 1118 q 272 1181 321 1181 q 194 1149 224 1181 q 164 1072 164 1118 q 194 995 164 1026 q 272 964 224 964 m 561 964 q 640 995 610 964 q 669 1072 669 1026 q 640 1149 669 1118 q 561 1181 610 1181 q 483 1149 513 1181 q 453 1072 453 1118 q 483 995 453 1026 q 561 964 513 964 "},"Ō":{"ha":833,"x_min":47,"x_max":786,"o":"m 417 -17 q 567 15 499 -17 q 683 108 635 47 q 759 256 732 168 q 786 456 786 344 q 759 653 786 567 q 683 799 732 739 q 567 889 635 858 q 417 919 499 919 q 267 889 335 919 q 150 799 199 858 q 74 653 101 740 q 47 456 47 567 q 74 256 47 344 q 150 108 101 168 q 267 15 199 47 q 417 -17 335 -17 m 417 189 q 325 260 358 189 q 292 456 292 332 q 325 647 292 579 q 417 714 358 714 q 508 647 475 714 q 542 456 542 579 q 508 260 542 332 q 417 189 475 189 m 211 1144 l 211 994 l 622 994 l 622 1144 l 211 1144 "},"Ŏ":{"ha":833,"x_min":47,"x_max":786,"o":"m 417 -17 q 567 15 499 -17 q 683 108 635 47 q 759 256 732 168 q 786 456 786 344 q 759 653 786 567 q 683 799 732 739 q 567 889 635 858 q 417 919 499 919 q 267 889 335 919 q 150 799 199 858 q 74 653 101 740 q 47 456 47 567 q 74 256 47 344 q 150 108 101 168 q 267 15 199 47 q 417 -17 335 -17 m 417 189 q 325 260 358 189 q 292 456 292 332 q 325 647 292 579 q 417 714 358 714 q 508 647 475 714 q 542 456 542 579 q 508 260 542 332 q 417 189 475 189 m 417 972 q 558 1017 511 972 q 614 1144 606 1063 l 486 1144 q 464 1104 479 1119 q 417 1089 449 1089 q 369 1104 385 1089 q 347 1144 354 1119 l 219 1144 q 275 1017 228 1063 q 417 972 322 972 "},"Ő":{"ha":833,"x_min":47,"x_max":786,"o":"m 417 -17 q 567 15 499 -17 q 683 108 635 47 q 759 256 732 168 q 786 456 786 344 q 759 653 786 567 q 683 799 732 739 q 567 889 635 858 q 417 919 499 919 q 267 889 335 919 q 150 799 199 858 q 74 653 101 740 q 47 456 47 567 q 74 256 47 344 q 150 108 101 168 q 267 15 199 47 q 417 -17 335 -17 m 417 189 q 325 260 358 189 q 292 456 292 332 q 325 647 292 579 q 417 714 358 714 q 508 647 475 714 q 542 456 542 579 q 508 260 542 332 q 417 189 475 189 m 211 972 l 369 972 l 497 1144 l 297 1144 l 211 972 m 558 1144 l 472 972 l 631 972 l 758 1144 l 558 1144 "},"Ǒ":{"ha":833,"x_min":47,"x_max":786,"o":"m 417 -17 q 567 15 499 -17 q 683 108 635 47 q 759 256 732 168 q 786 456 786 344 q 759 653 786 567 q 683 799 732 739 q 567 889 635 858 q 417 919 499 919 q 267 889 335 919 q 150 799 199 858 q 74 653 101 740 q 47 456 47 567 q 74 256 47 344 q 150 108 101 168 q 267 15 199 47 q 417 -17 335 -17 m 417 189 q 325 260 358 189 q 292 456 292 332 q 325 647 292 579 q 417 714 358 714 q 508 647 475 714 q 542 456 542 579 q 508 260 542 332 q 417 189 475 189 m 667 1144 l 486 1144 l 419 1064 l 414 1064 l 347 1144 l 167 1144 l 300 972 l 533 972 l 667 1144 "},"Ọ":{"ha":833,"x_min":47,"x_max":786,"o":"m 417 -17 q 567 15 499 -17 q 683 108 635 47 q 759 256 732 168 q 786 456 786 344 q 759 653 786 567 q 683 799 732 739 q 567 889 635 858 q 417 919 499 919 q 267 889 335 919 q 150 799 199 858 q 74 653 101 740 q 47 456 47 567 q 74 256 47 344 q 150 108 101 168 q 267 15 199 47 q 417 -17 335 -17 m 417 189 q 325 260 358 189 q 292 456 292 332 q 325 647 292 579 q 417 714 358 714 q 508 647 475 714 q 542 456 542 579 q 508 260 542 332 q 417 189 475 189 m 417 -367 q 526 -328 483 -367 q 569 -228 569 -290 q 526 -126 569 -165 q 417 -86 483 -86 q 307 -126 350 -86 q 264 -228 264 -165 q 307 -328 264 -290 q 417 -367 350 -367 "},"Ỏ":{"ha":833,"x_min":47,"x_max":786,"o":"m 417 -17 q 567 15 499 -17 q 683 108 635 47 q 759 256 732 168 q 786 456 786 344 q 759 653 786 567 q 683 799 732 739 q 567 889 635 858 q 417 919 499 919 q 267 889 335 919 q 150 799 199 858 q 74 653 101 740 q 47 456 47 567 q 74 256 47 344 q 150 108 101 168 q 267 15 199 47 q 417 -17 335 -17 m 417 189 q 325 260 358 189 q 292 456 292 332 q 325 647 292 579 q 417 714 358 714 q 508 647 475 714 q 542 456 542 579 q 508 260 542 332 q 417 189 475 189 m 347 1047 l 364 956 q 444 967 407 957 q 510 995 482 976 q 556 1041 539 1014 q 572 1106 572 1068 q 560 1157 572 1133 q 519 1198 549 1181 q 442 1226 490 1215 q 322 1239 394 1236 l 294 1122 q 379 1108 356 1118 q 403 1081 403 1097 q 387 1057 403 1064 q 347 1047 371 1050 "},"Ố":{"ha":833,"x_min":47,"x_max":860,"o":"m 417 -17 q 567 15 499 -17 q 683 108 635 47 q 759 256 732 168 q 786 456 786 344 q 759 653 786 567 q 683 799 732 739 q 567 889 635 858 q 417 919 499 919 q 267 889 335 919 q 150 799 199 858 q 74 653 101 740 q 47 456 47 567 q 74 256 47 344 q 150 108 101 168 q 267 15 199 47 q 417 -17 335 -17 m 417 189 q 325 260 358 189 q 292 456 292 332 q 325 647 292 579 q 417 714 358 714 q 508 647 475 714 q 542 456 542 579 q 508 260 542 332 q 417 189 475 189 m 679 1242 l 585 1069 l 718 1069 l 860 1242 l 679 1242 m 314 1136 l 181 972 l 347 972 l 414 1044 l 419 1044 l 486 972 l 653 972 l 519 1136 l 314 1136 "},"Ồ":{"ha":833,"x_min":47,"x_max":786,"o":"m 417 -17 q 567 15 499 -17 q 683 108 635 47 q 759 256 732 168 q 786 456 786 344 q 759 653 786 567 q 683 799 732 739 q 567 889 635 858 q 417 919 499 919 q 267 889 335 919 q 150 799 199 858 q 74 653 101 740 q 47 456 47 567 q 74 256 47 344 q 150 108 101 168 q 267 15 199 47 q 417 -17 335 -17 m 417 189 q 325 260 358 189 q 292 456 292 332 q 325 647 292 579 q 417 714 358 714 q 508 647 475 714 q 542 456 542 579 q 508 260 542 332 q 417 189 475 189 m 776 1069 l 682 1242 l 501 1242 l 643 1069 l 776 1069 m 314 1136 l 181 972 l 347 972 l 414 1044 l 419 1044 l 486 972 l 653 972 l 519 1136 l 314 1136 "},"Ổ":{"ha":833,"x_min":47,"x_max":792,"o":"m 417 -17 q 567 15 499 -17 q 683 108 635 47 q 759 256 732 168 q 786 456 786 344 q 759 653 786 567 q 683 799 732 739 q 567 889 635 858 q 417 919 499 919 q 267 889 335 919 q 150 799 199 858 q 74 653 101 740 q 47 456 47 567 q 74 256 47 344 q 150 108 101 168 q 267 15 199 47 q 417 -17 335 -17 m 417 189 q 325 260 358 189 q 292 456 292 332 q 325 647 292 579 q 417 714 358 714 q 508 647 475 714 q 542 456 542 579 q 508 260 542 332 q 417 189 475 189 m 603 1111 l 619 1039 q 742 1071 693 1043 q 792 1164 792 1099 q 782 1207 792 1186 q 747 1243 772 1228 q 681 1268 722 1258 q 575 1281 639 1278 l 553 1186 q 624 1172 606 1182 q 642 1144 642 1161 q 631 1121 642 1128 q 603 1111 619 1114 m 314 1136 l 181 972 l 347 972 l 414 1044 l 419 1044 l 486 972 l 653 972 l 519 1136 l 314 1136 "},"Ỗ":{"ha":833,"x_min":47,"x_max":786,"o":"m 417 -17 q 567 15 499 -17 q 683 108 635 47 q 759 256 732 168 q 786 456 786 344 q 759 653 786 567 q 683 799 732 739 q 567 889 635 858 q 417 919 499 919 q 267 889 335 919 q 150 799 199 858 q 74 653 101 740 q 47 456 47 567 q 74 256 47 344 q 150 108 101 168 q 267 15 199 47 q 417 -17 335 -17 m 417 189 q 325 260 358 189 q 292 456 292 332 q 325 647 292 579 q 417 714 358 714 q 508 647 475 714 q 542 456 542 579 q 508 260 542 332 q 417 189 475 189 m 314 1136 l 181 972 l 347 972 l 414 1044 l 419 1044 l 486 972 l 653 972 l 519 1136 l 314 1136 m 200 1186 l 300 1186 q 319 1225 307 1214 q 347 1236 331 1236 q 376 1228 361 1236 q 409 1211 390 1221 q 450 1194 428 1201 q 500 1186 472 1186 q 584 1225 546 1186 q 633 1356 622 1264 l 533 1356 q 515 1317 526 1328 q 486 1306 503 1306 q 458 1313 472 1306 q 424 1331 443 1321 q 383 1348 406 1340 q 333 1356 361 1356 q 249 1317 288 1356 q 200 1186 211 1278 "},"Ộ":{"ha":833,"x_min":47,"x_max":786,"o":"m 417 -17 q 567 15 499 -17 q 683 108 635 47 q 759 256 732 168 q 786 456 786 344 q 759 653 786 567 q 683 799 732 739 q 567 889 635 858 q 417 919 499 919 q 267 889 335 919 q 150 799 199 858 q 74 653 101 740 q 47 456 47 567 q 74 256 47 344 q 150 108 101 168 q 267 15 199 47 q 417 -17 335 -17 m 417 189 q 325 260 358 189 q 292 456 292 332 q 325 647 292 579 q 417 714 358 714 q 508 647 475 714 q 542 456 542 579 q 508 260 542 332 q 417 189 475 189 m 167 972 l 347 972 l 414 1053 l 419 1053 l 486 972 l 667 972 l 533 1144 l 300 1144 l 167 972 m 417 -367 q 526 -328 483 -367 q 569 -228 569 -290 q 526 -126 569 -165 q 417 -86 483 -86 q 307 -126 350 -86 q 264 -228 264 -165 q 307 -328 264 -290 q 417 -367 350 -367 "},"Ø":{"ha":833,"x_min":33,"x_max":817,"o":"m 353 218 l 542 489 l 542 456 q 508 260 542 332 q 417 189 475 189 q 353 218 379 189 m 490 676 l 294 393 q 292 424 293 408 q 292 456 292 439 q 325 647 292 579 q 417 714 358 714 q 490 676 461 714 m 719 746 l 817 886 l 692 967 l 618 860 q 417 919 531 919 q 267 889 335 919 q 150 799 199 858 q 74 653 101 740 q 47 456 47 567 q 67 282 47 360 q 122 146 86 204 l 33 17 l 158 -64 l 228 36 q 417 -17 310 -17 q 567 15 499 -17 q 683 108 635 47 q 759 256 732 168 q 786 456 786 344 q 769 617 786 544 q 719 746 751 689 "},"Œ":{"ha":833,"x_min":19,"x_max":828,"o":"m 19 456 q 49 250 19 336 q 128 108 78 164 q 247 26 179 53 q 394 0 315 0 l 828 0 l 828 200 l 611 200 l 611 361 l 764 361 l 764 561 l 611 561 l 611 703 l 814 703 l 814 903 l 408 903 q 256 878 326 903 q 133 799 185 853 q 50 660 81 744 q 19 456 19 575 m 264 456 q 273 586 264 536 q 298 664 282 636 q 335 701 314 692 q 381 711 356 711 l 400 711 l 400 192 l 381 192 q 335 203 356 192 q 298 243 314 214 q 273 324 282 272 q 264 456 264 375 "},"Ơ":{"ha":833,"x_min":47,"x_max":844,"o":"m 417 189 q 325 260 358 189 q 292 456 292 332 q 325 647 292 579 q 417 714 358 714 q 508 647 475 714 q 542 456 542 579 q 508 260 542 332 q 417 189 475 189 m 800 1094 l 639 1025 q 653 997 646 1014 q 661 958 661 979 q 641 901 661 918 q 589 878 621 885 q 417 919 514 919 q 267 889 335 919 q 150 799 199 858 q 74 653 101 740 q 47 456 47 567 q 74 256 47 344 q 150 108 101 168 q 267 15 199 47 q 417 -17 335 -17 q 567 15 499 -17 q 683 108 635 47 q 759 256 732 168 q 786 456 786 344 q 760 651 786 565 q 686 796 735 736 q 800 857 756 814 q 844 975 844 900 q 831 1044 844 1013 q 800 1094 817 1075 "},"Ớ":{"ha":833,"x_min":47,"x_max":844,"o":"m 417 189 q 325 260 358 189 q 292 456 292 332 q 325 647 292 579 q 417 714 358 714 q 508 647 475 714 q 542 456 542 579 q 508 260 542 332 q 417 189 475 189 m 800 1094 l 639 1025 q 653 997 646 1014 q 661 958 661 979 q 641 901 661 918 q 589 878 621 885 q 417 919 514 919 q 267 889 335 919 q 150 799 199 858 q 74 653 101 740 q 47 456 47 567 q 74 256 47 344 q 150 108 101 168 q 267 15 199 47 q 417 -17 335 -17 q 567 15 499 -17 q 683 108 635 47 q 759 256 732 168 q 786 456 786 344 q 760 651 786 565 q 686 796 735 736 q 800 857 756 814 q 844 975 844 900 q 831 1044 844 1013 q 800 1094 817 1075 m 489 972 l 658 1144 l 408 1144 l 300 972 l 489 972 "},"Ờ":{"ha":833,"x_min":47,"x_max":844,"o":"m 417 189 q 325 260 358 189 q 292 456 292 332 q 325 647 292 579 q 417 714 358 714 q 508 647 475 714 q 542 456 542 579 q 508 260 542 332 q 417 189 475 189 m 800 1094 l 639 1025 q 653 997 646 1014 q 661 958 661 979 q 641 901 661 918 q 589 878 621 885 q 417 919 514 919 q 267 889 335 919 q 150 799 199 858 q 74 653 101 740 q 47 456 47 567 q 74 256 47 344 q 150 108 101 168 q 267 15 199 47 q 417 -17 335 -17 q 567 15 499 -17 q 683 108 635 47 q 759 256 732 168 q 786 456 786 344 q 760 651 786 565 q 686 796 735 736 q 800 857 756 814 q 844 975 844 900 q 831 1044 844 1013 q 800 1094 817 1075 m 175 1144 l 344 972 l 533 972 l 425 1144 l 175 1144 "},"Ở":{"ha":833,"x_min":47,"x_max":844,"o":"m 417 189 q 325 260 358 189 q 292 456 292 332 q 325 647 292 579 q 417 714 358 714 q 508 647 475 714 q 542 456 542 579 q 508 260 542 332 q 417 189 475 189 m 800 1094 l 639 1025 q 653 997 646 1014 q 661 958 661 979 q 641 901 661 918 q 589 878 621 885 q 417 919 514 919 q 267 889 335 919 q 150 799 199 858 q 74 653 101 740 q 47 456 47 567 q 74 256 47 344 q 150 108 101 168 q 267 15 199 47 q 417 -17 335 -17 q 567 15 499 -17 q 683 108 635 47 q 759 256 732 168 q 786 456 786 344 q 760 651 786 565 q 686 796 735 736 q 800 857 756 814 q 844 975 844 900 q 831 1044 844 1013 q 800 1094 817 1075 m 347 1047 l 364 956 q 444 967 407 957 q 510 995 482 976 q 556 1041 539 1014 q 572 1106 572 1068 q 560 1157 572 1133 q 519 1198 549 1181 q 442 1226 490 1215 q 322 1239 394 1236 l 294 1122 q 379 1108 356 1118 q 403 1081 403 1097 q 387 1057 403 1064 q 347 1047 371 1050 "},"Ỡ":{"ha":833,"x_min":47,"x_max":844,"o":"m 417 189 q 325 260 358 189 q 292 456 292 332 q 325 647 292 579 q 417 714 358 714 q 508 647 475 714 q 542 456 542 579 q 508 260 542 332 q 417 189 475 189 m 800 1094 l 639 1025 q 653 997 646 1014 q 661 958 661 979 q 641 901 661 918 q 589 878 621 885 q 417 919 514 919 q 267 889 335 919 q 150 799 199 858 q 74 653 101 740 q 47 456 47 567 q 74 256 47 344 q 150 108 101 168 q 267 15 199 47 q 417 -17 335 -17 q 567 15 499 -17 q 683 108 635 47 q 759 256 732 168 q 786 456 786 344 q 760 651 786 565 q 686 796 735 736 q 800 857 756 814 q 844 975 844 900 q 831 1044 844 1013 q 800 1094 817 1075 m 506 972 q 560 984 533 972 q 608 1021 586 996 q 644 1084 629 1046 q 667 1175 660 1122 l 547 1175 q 525 1129 539 1142 q 494 1117 511 1117 q 463 1126 479 1117 q 425 1146 446 1135 q 380 1166 404 1157 q 328 1175 356 1175 q 225 1126 271 1175 q 167 972 179 1078 l 286 972 q 308 1018 294 1006 q 339 1031 322 1031 q 370 1022 353 1031 q 408 1001 388 1013 q 453 981 429 990 q 506 972 478 972 "},"Ợ":{"ha":833,"x_min":47,"x_max":844,"o":"m 417 189 q 325 260 358 189 q 292 456 292 332 q 325 647 292 579 q 417 714 358 714 q 508 647 475 714 q 542 456 542 579 q 508 260 542 332 q 417 189 475 189 m 800 1094 l 639 1025 q 653 997 646 1014 q 661 958 661 979 q 641 901 661 918 q 589 878 621 885 q 417 919 514 919 q 267 889 335 919 q 150 799 199 858 q 74 653 101 740 q 47 456 47 567 q 74 256 47 344 q 150 108 101 168 q 267 15 199 47 q 417 -17 335 -17 q 567 15 499 -17 q 683 108 635 47 q 759 256 732 168 q 786 456 786 344 q 760 651 786 565 q 686 796 735 736 q 800 857 756 814 q 844 975 844 900 q 831 1044 844 1013 q 800 1094 817 1075 m 417 -367 q 526 -328 483 -367 q 569 -228 569 -290 q 526 -126 569 -165 q 417 -86 483 -86 q 307 -126 350 -86 q 264 -228 264 -165 q 307 -328 264 -290 q 417 -367 350 -367 "},"Ǫ":{"ha":833,"x_min":47,"x_max":786,"o":"m 608 -264 l 556 -144 q 533 -158 546 -151 q 508 -164 521 -164 q 470 -153 488 -164 q 453 -117 453 -142 q 472 -52 453 -86 q 544 6 492 -18 q 643 68 599 29 q 719 162 688 107 q 769 290 751 217 q 786 456 786 363 q 759 653 786 567 q 683 799 732 739 q 567 889 635 858 q 417 919 499 919 q 267 889 335 919 q 150 799 199 858 q 74 653 101 740 q 47 456 47 567 q 67 285 47 365 q 126 143 86 206 q 226 39 165 81 q 369 -14 288 -3 q 310 -81 340 -39 q 281 -181 281 -124 q 330 -281 281 -246 q 450 -317 379 -317 q 535 -302 490 -317 q 608 -264 579 -287 m 417 189 q 325 260 358 189 q 292 456 292 332 q 325 647 292 579 q 417 714 358 714 q 508 647 475 714 q 542 456 542 579 q 508 260 542 332 q 417 189 475 189 "},"Ŕ":{"ha":833,"x_min":81,"x_max":828,"o":"m 319 492 l 319 714 l 400 714 q 508 692 471 714 q 544 611 544 669 q 400 492 544 492 l 319 492 m 561 0 l 828 0 l 632 350 q 738 450 699 386 q 778 611 778 514 q 749 752 778 696 q 670 842 719 808 q 555 889 621 875 q 417 903 489 903 l 81 903 l 81 0 l 319 0 l 319 303 l 406 303 l 561 0 m 492 972 l 661 1144 l 411 1144 l 303 972 l 492 972 "},"Ř":{"ha":833,"x_min":81,"x_max":828,"o":"m 319 492 l 319 714 l 400 714 q 508 692 471 714 q 544 611 544 669 q 400 492 544 492 l 319 492 m 561 0 l 828 0 l 632 350 q 738 450 699 386 q 778 611 778 514 q 749 752 778 696 q 670 842 719 808 q 555 889 621 875 q 417 903 489 903 l 81 903 l 81 0 l 319 0 l 319 303 l 406 303 l 561 0 m 669 1144 l 489 1144 l 422 1064 l 417 1064 l 350 1144 l 169 1144 l 303 972 l 536 972 l 669 1144 "},"Ŗ":{"ha":833,"x_min":81,"x_max":828,"o":"m 319 492 l 319 714 l 400 714 q 508 692 471 714 q 544 611 544 669 q 400 492 544 492 l 319 492 m 561 0 l 828 0 l 632 350 q 738 450 699 386 q 778 611 778 514 q 749 752 778 696 q 670 842 719 808 q 555 889 621 875 q 417 903 489 903 l 81 903 l 81 0 l 319 0 l 319 303 l 406 303 l 561 0 m 392 -56 l 392 -56 l 347 -139 q 391 -158 379 -147 q 403 -186 403 -169 q 372 -219 403 -210 q 292 -233 340 -229 l 308 -325 q 409 -314 361 -324 q 493 -285 457 -304 q 551 -240 529 -267 q 572 -175 572 -212 q 533 -92 572 -121 q 392 -56 493 -64 "},"Ṛ":{"ha":833,"x_min":81,"x_max":828,"o":"m 319 492 l 319 714 l 400 714 q 508 692 471 714 q 544 611 544 669 q 400 492 544 492 l 319 492 m 561 0 l 828 0 l 632 350 q 738 450 699 386 q 778 611 778 514 q 749 752 778 696 q 670 842 719 808 q 555 889 621 875 q 417 903 489 903 l 81 903 l 81 0 l 319 0 l 319 303 l 406 303 l 561 0 m 444 -367 q 554 -328 511 -367 q 597 -228 597 -290 q 554 -126 597 -165 q 444 -86 511 -86 q 335 -126 378 -86 q 292 -228 292 -165 q 335 -328 292 -290 q 444 -367 378 -367 "},"Ṝ":{"ha":833,"x_min":81,"x_max":828,"o":"m 319 492 l 319 714 l 400 714 q 508 692 471 714 q 544 611 544 669 q 400 492 544 492 l 319 492 m 561 0 l 828 0 l 632 350 q 738 450 699 386 q 778 611 778 514 q 749 752 778 696 q 670 842 719 808 q 555 889 621 875 q 417 903 489 903 l 81 903 l 81 0 l 319 0 l 319 303 l 406 303 l 561 0 m 214 1144 l 214 994 l 625 994 l 625 1144 l 214 1144 m 444 -367 q 554 -328 511 -367 q 597 -228 597 -290 q 554 -126 597 -165 q 444 -86 511 -86 q 335 -126 378 -86 q 292 -228 292 -165 q 335 -328 292 -290 q 444 -367 378 -367 "},"Ṟ":{"ha":833,"x_min":81,"x_max":828,"o":"m 319 492 l 319 714 l 400 714 q 508 692 471 714 q 544 611 544 669 q 400 492 544 492 l 319 492 m 561 0 l 828 0 l 632 350 q 738 450 699 386 q 778 611 778 514 q 749 752 778 696 q 670 842 719 808 q 555 889 621 875 q 417 903 489 903 l 81 903 l 81 0 l 319 0 l 319 303 l 406 303 l 561 0 m 644 -272 l 644 -122 l 244 -122 l 244 -272 l 644 -272 "},"Ś":{"ha":833,"x_min":61,"x_max":772,"o":"m 197 276 l 61 113 q 230 15 138 46 q 411 -17 322 -17 q 566 7 499 -17 q 679 70 633 31 q 749 163 725 110 q 772 272 772 215 q 723 426 772 367 q 582 519 674 486 l 478 563 q 373 604 410 588 q 336 653 336 621 q 439 714 336 714 q 536 697 493 714 q 628 649 579 681 l 747 799 q 600 890 681 861 q 439 919 519 919 q 298 897 361 919 q 190 837 235 875 q 119 748 144 799 q 94 639 94 697 q 110 550 94 590 q 151 478 125 510 q 211 424 176 447 q 285 388 246 401 l 397 340 q 453 320 429 329 q 494 301 478 311 q 519 281 511 292 q 528 253 528 269 q 503 206 528 222 q 417 189 479 189 q 306 213 364 189 q 197 276 249 238 m 497 972 l 667 1144 l 417 1144 l 308 972 l 497 972 "},"Ŝ":{"ha":833,"x_min":61,"x_max":772,"o":"m 197 276 l 61 113 q 230 15 138 46 q 411 -17 322 -17 q 566 7 499 -17 q 679 70 633 31 q 749 163 725 110 q 772 272 772 215 q 723 426 772 367 q 582 519 674 486 l 478 563 q 373 604 410 588 q 336 653 336 621 q 439 714 336 714 q 536 697 493 714 q 628 649 579 681 l 747 799 q 600 890 681 861 q 439 919 519 919 q 298 897 361 919 q 190 837 235 875 q 119 748 144 799 q 94 639 94 697 q 110 550 94 590 q 151 478 125 510 q 211 424 176 447 q 285 388 246 401 l 397 340 q 453 320 429 329 q 494 301 478 311 q 519 281 511 292 q 528 253 528 269 q 503 206 528 222 q 417 189 479 189 q 306 213 364 189 q 197 276 249 238 m 175 972 l 356 972 l 422 1053 l 428 1053 l 494 972 l 675 972 l 542 1144 l 308 1144 l 175 972 "},"Š":{"ha":833,"x_min":61,"x_max":772,"o":"m 197 276 l 61 113 q 230 15 138 46 q 411 -17 322 -17 q 566 7 499 -17 q 679 70 633 31 q 749 163 725 110 q 772 272 772 215 q 723 426 772 367 q 582 519 674 486 l 478 563 q 373 604 410 588 q 336 653 336 621 q 439 714 336 714 q 536 697 493 714 q 628 649 579 681 l 747 799 q 600 890 681 861 q 439 919 519 919 q 298 897 361 919 q 190 837 235 875 q 119 748 144 799 q 94 639 94 697 q 110 550 94 590 q 151 478 125 510 q 211 424 176 447 q 285 388 246 401 l 397 340 q 453 320 429 329 q 494 301 478 311 q 519 281 511 292 q 528 253 528 269 q 503 206 528 222 q 417 189 479 189 q 306 213 364 189 q 197 276 249 238 m 675 1144 l 494 1144 l 428 1064 l 422 1064 l 356 1144 l 175 1144 l 308 972 l 542 972 l 675 1144 "},"Ş":{"ha":833,"x_min":61,"x_max":772,"o":"m 197 276 l 61 113 q 230 15 138 46 q 411 -17 322 -17 q 566 7 499 -17 q 679 70 633 31 q 749 163 725 110 q 772 272 772 215 q 723 426 772 367 q 582 519 674 486 l 478 563 q 373 604 410 588 q 336 653 336 621 q 439 714 336 714 q 536 697 493 714 q 628 649 579 681 l 747 799 q 600 890 681 861 q 439 919 519 919 q 298 897 361 919 q 190 837 235 875 q 119 748 144 799 q 94 639 94 697 q 110 550 94 590 q 151 478 125 510 q 211 424 176 447 q 285 388 246 401 l 397 340 q 453 320 429 329 q 494 301 478 311 q 519 281 511 292 q 528 253 528 269 q 503 206 528 222 q 417 189 479 189 q 306 213 364 189 q 197 276 249 238 m 353 6 l 297 -106 q 360 -132 346 -118 q 375 -161 375 -146 q 344 -202 375 -189 q 264 -219 313 -215 l 281 -311 q 381 -300 333 -310 q 465 -272 429 -290 q 523 -226 501 -253 q 544 -161 544 -199 q 522 -92 544 -117 q 464 -56 500 -68 l 489 6 l 353 6 "},"Ș":{"ha":833,"x_min":61,"x_max":772,"o":"m 197 276 l 61 113 q 230 15 138 46 q 411 -17 322 -17 q 566 7 499 -17 q 679 70 633 31 q 749 163 725 110 q 772 272 772 215 q 723 426 772 367 q 582 519 674 486 l 478 563 q 373 604 410 588 q 336 653 336 621 q 439 714 336 714 q 536 697 493 714 q 628 649 579 681 l 747 799 q 600 890 681 861 q 439 919 519 919 q 298 897 361 919 q 190 837 235 875 q 119 748 144 799 q 94 639 94 697 q 110 550 94 590 q 151 478 125 510 q 211 424 176 447 q 285 388 246 401 l 397 340 q 453 320 429 329 q 494 301 478 311 q 519 281 511 292 q 528 253 528 269 q 503 206 528 222 q 417 189 479 189 q 306 213 364 189 q 197 276 249 238 m 378 -56 l 378 -56 l 333 -139 q 377 -158 365 -147 q 389 -186 389 -169 q 358 -219 389 -210 q 278 -233 326 -229 l 294 -325 q 395 -314 347 -324 q 479 -285 443 -304 q 537 -240 515 -267 q 558 -175 558 -212 q 519 -92 558 -121 q 378 -56 479 -64 "},"Ṡ":{"ha":833,"x_min":61,"x_max":772,"o":"m 197 276 l 61 113 q 230 15 138 46 q 411 -17 322 -17 q 566 7 499 -17 q 679 70 633 31 q 749 163 725 110 q 772 272 772 215 q 723 426 772 367 q 582 519 674 486 l 478 563 q 373 604 410 588 q 336 653 336 621 q 439 714 336 714 q 536 697 493 714 q 628 649 579 681 l 747 799 q 600 890 681 861 q 439 919 519 919 q 298 897 361 919 q 190 837 235 875 q 119 748 144 799 q 94 639 94 697 q 110 550 94 590 q 151 478 125 510 q 211 424 176 447 q 285 388 246 401 l 397 340 q 453 320 429 329 q 494 301 478 311 q 519 281 511 292 q 528 253 528 269 q 503 206 528 222 q 417 189 479 189 q 306 213 364 189 q 197 276 249 238 m 425 967 q 521 1000 483 967 q 558 1086 558 1033 q 521 1172 558 1139 q 425 1206 483 1206 q 329 1172 367 1206 q 292 1086 292 1139 q 329 1000 292 1033 q 425 967 367 967 "},"Ṣ":{"ha":833,"x_min":61,"x_max":772,"o":"m 197 276 l 61 113 q 230 15 138 46 q 411 -17 322 -17 q 566 7 499 -17 q 679 70 633 31 q 749 163 725 110 q 772 272 772 215 q 723 426 772 367 q 582 519 674 486 l 478 563 q 373 604 410 588 q 336 653 336 621 q 439 714 336 714 q 536 697 493 714 q 628 649 579 681 l 747 799 q 600 890 681 861 q 439 919 519 919 q 298 897 361 919 q 190 837 235 875 q 119 748 144 799 q 94 639 94 697 q 110 550 94 590 q 151 478 125 510 q 211 424 176 447 q 285 388 246 401 l 397 340 q 453 320 429 329 q 494 301 478 311 q 519 281 511 292 q 528 253 528 269 q 503 206 528 222 q 417 189 479 189 q 306 213 364 189 q 197 276 249 238 m 431 -367 q 540 -328 497 -367 q 583 -228 583 -290 q 540 -126 583 -165 q 431 -86 497 -86 q 321 -126 364 -86 q 278 -228 278 -165 q 321 -328 278 -290 q 431 -367 364 -367 "},"ẞ":{"ha":833,"x_min":82,"x_max":786,"o":"m 82 619 l 82 0 l 326 0 l 326 589 q 345 692 326 657 q 413 728 364 728 q 465 707 444 728 q 493 658 485 686 l 413 500 l 428 363 q 506 315 475 344 q 538 253 538 286 q 530 196 538 217 q 515 175 522 175 q 496 183 510 175 q 463 211 482 190 l 340 67 q 419 10 368 36 q 549 -17 469 -17 q 656 4 611 -17 q 729 60 700 25 q 772 144 758 96 q 786 250 786 193 q 772 340 786 301 q 738 408 758 379 q 694 459 718 438 q 651 497 671 481 l 728 650 q 692 760 718 710 q 626 845 667 810 q 533 900 586 881 q 418 919 481 919 q 263 896 326 919 q 158 831 199 872 q 100 736 118 790 q 82 619 82 682 "},"Ť":{"ha":833,"x_min":38,"x_max":796,"o":"m 297 703 l 297 0 l 536 0 l 536 703 l 796 703 l 796 903 l 38 903 l 38 703 l 297 703 m 667 1144 l 486 1144 l 419 1064 l 414 1064 l 347 1144 l 167 1144 l 300 972 l 533 972 l 667 1144 "},"Ţ":{"ha":833,"x_min":38,"x_max":796,"o":"m 297 703 l 297 0 l 536 0 l 536 703 l 796 703 l 796 903 l 38 903 l 38 703 l 297 703 m 353 6 l 297 -106 q 360 -132 346 -118 q 375 -161 375 -146 q 344 -202 375 -189 q 264 -219 313 -215 l 281 -311 q 381 -300 333 -310 q 465 -272 429 -290 q 523 -226 501 -253 q 544 -161 544 -199 q 522 -92 544 -117 q 464 -56 500 -68 l 489 6 l 353 6 "},"Ț":{"ha":833,"x_min":38,"x_max":796,"o":"m 297 703 l 297 0 l 536 0 l 536 703 l 796 703 l 796 903 l 38 903 l 38 703 l 297 703 m 364 -56 l 364 -56 l 319 -139 q 363 -158 351 -147 q 375 -186 375 -169 q 344 -219 375 -210 q 264 -233 313 -229 l 281 -325 q 381 -314 333 -324 q 465 -285 429 -304 q 523 -240 501 -267 q 544 -175 544 -212 q 505 -92 544 -121 q 364 -56 465 -64 "},"Ṭ":{"ha":833,"x_min":38,"x_max":796,"o":"m 297 703 l 297 0 l 536 0 l 536 703 l 796 703 l 796 903 l 38 903 l 38 703 l 297 703 m 417 -367 q 526 -328 483 -367 q 569 -228 569 -290 q 526 -126 569 -165 q 417 -86 483 -86 q 307 -126 350 -86 q 264 -228 264 -165 q 307 -328 264 -290 q 417 -367 350 -367 "},"Ṯ":{"ha":833,"x_min":38,"x_max":796,"o":"m 297 703 l 297 0 l 536 0 l 536 703 l 796 703 l 796 903 l 38 903 l 38 703 l 297 703 m 617 -272 l 617 -122 l 217 -122 l 217 -272 l 617 -272 "},"Ù":{"ha":833,"x_min":81,"x_max":753,"o":"m 81 903 l 81 350 q 100 198 81 265 q 161 83 119 131 q 267 9 203 35 q 419 -17 331 -17 q 572 9 508 -17 q 675 83 635 35 q 734 198 715 131 q 753 350 753 265 l 753 903 l 522 903 l 522 322 q 500 226 522 264 q 419 189 478 189 q 341 226 363 189 q 319 322 319 264 l 319 903 l 81 903 m 175 1144 l 344 972 l 533 972 l 425 1144 l 175 1144 "},"Ú":{"ha":833,"x_min":81,"x_max":753,"o":"m 81 903 l 81 350 q 100 198 81 265 q 161 83 119 131 q 267 9 203 35 q 419 -17 331 -17 q 572 9 508 -17 q 675 83 635 35 q 734 198 715 131 q 753 350 753 265 l 753 903 l 522 903 l 522 322 q 500 226 522 264 q 419 189 478 189 q 341 226 363 189 q 319 322 319 264 l 319 903 l 81 903 m 489 972 l 658 1144 l 408 1144 l 300 972 l 489 972 "},"Û":{"ha":833,"x_min":81,"x_max":753,"o":"m 81 903 l 81 350 q 100 198 81 265 q 161 83 119 131 q 267 9 203 35 q 419 -17 331 -17 q 572 9 508 -17 q 675 83 635 35 q 734 198 715 131 q 753 350 753 265 l 753 903 l 522 903 l 522 322 q 500 226 522 264 q 419 189 478 189 q 341 226 363 189 q 319 322 319 264 l 319 903 l 81 903 m 167 972 l 347 972 l 414 1053 l 419 1053 l 486 972 l 667 972 l 533 1144 l 300 1144 l 167 972 "},"Ũ":{"ha":833,"x_min":81,"x_max":753,"o":"m 81 903 l 81 350 q 100 198 81 265 q 161 83 119 131 q 267 9 203 35 q 419 -17 331 -17 q 572 9 508 -17 q 675 83 635 35 q 734 198 715 131 q 753 350 753 265 l 753 903 l 522 903 l 522 322 q 500 226 522 264 q 419 189 478 189 q 341 226 363 189 q 319 322 319 264 l 319 903 l 81 903 m 506 972 q 560 984 533 972 q 608 1021 586 996 q 644 1084 629 1046 q 667 1175 660 1122 l 547 1175 q 525 1129 539 1142 q 494 1117 511 1117 q 463 1126 479 1117 q 425 1146 446 1135 q 380 1166 404 1157 q 328 1175 356 1175 q 225 1126 271 1175 q 167 972 179 1078 l 286 972 q 308 1018 294 1006 q 339 1031 322 1031 q 370 1022 353 1031 q 408 1001 388 1013 q 453 981 429 990 q 506 972 478 972 "},"Ü":{"ha":833,"x_min":81,"x_max":753,"o":"m 81 903 l 81 350 q 100 198 81 265 q 161 83 119 131 q 267 9 203 35 q 419 -17 331 -17 q 572 9 508 -17 q 675 83 635 35 q 734 198 715 131 q 753 350 753 265 l 753 903 l 522 903 l 522 322 q 500 226 522 264 q 419 189 478 189 q 341 226 363 189 q 319 322 319 264 l 319 903 l 81 903 m 272 964 q 351 995 321 964 q 381 1072 381 1026 q 351 1149 381 1118 q 272 1181 321 1181 q 194 1149 224 1181 q 164 1072 164 1118 q 194 995 164 1026 q 272 964 224 964 m 561 964 q 640 995 610 964 q 669 1072 669 1026 q 640 1149 669 1118 q 561 1181 610 1181 q 483 1149 513 1181 q 453 1072 453 1118 q 483 995 453 1026 q 561 964 513 964 "},"Ū":{"ha":833,"x_min":81,"x_max":753,"o":"m 81 903 l 81 350 q 100 198 81 265 q 161 83 119 131 q 267 9 203 35 q 419 -17 331 -17 q 572 9 508 -17 q 675 83 635 35 q 734 198 715 131 q 753 350 753 265 l 753 903 l 522 903 l 522 322 q 500 226 522 264 q 419 189 478 189 q 341 226 363 189 q 319 322 319 264 l 319 903 l 81 903 m 211 1144 l 211 994 l 622 994 l 622 1144 l 211 1144 "},"Ŭ":{"ha":833,"x_min":81,"x_max":753,"o":"m 81 903 l 81 350 q 100 198 81 265 q 161 83 119 131 q 267 9 203 35 q 419 -17 331 -17 q 572 9 508 -17 q 675 83 635 35 q 734 198 715 131 q 753 350 753 265 l 753 903 l 522 903 l 522 322 q 500 226 522 264 q 419 189 478 189 q 341 226 363 189 q 319 322 319 264 l 319 903 l 81 903 m 417 972 q 558 1017 511 972 q 614 1144 606 1063 l 486 1144 q 464 1104 479 1119 q 417 1089 449 1089 q 369 1104 385 1089 q 347 1144 354 1119 l 219 1144 q 275 1017 228 1063 q 417 972 322 972 "},"Ů":{"ha":833,"x_min":81,"x_max":753,"o":"m 81 903 l 81 350 q 100 198 81 265 q 161 83 119 131 q 267 9 203 35 q 419 -17 331 -17 q 572 9 508 -17 q 675 83 635 35 q 734 198 715 131 q 753 350 753 265 l 753 903 l 522 903 l 522 322 q 500 226 522 264 q 419 189 478 189 q 341 226 363 189 q 319 322 319 264 l 319 903 l 81 903 m 417 967 q 538 1005 492 967 q 583 1108 583 1043 q 538 1212 583 1174 q 417 1250 492 1250 q 296 1212 342 1250 q 250 1108 250 1174 q 296 1005 250 1043 q 417 967 342 967 m 417 1053 q 379 1068 394 1053 q 364 1108 364 1083 q 379 1149 364 1133 q 417 1164 394 1164 q 454 1149 439 1164 q 469 1108 469 1133 q 454 1068 469 1083 q 417 1053 439 1053 "},"Ű":{"ha":833,"x_min":81,"x_max":758,"o":"m 81 903 l 81 350 q 100 198 81 265 q 161 83 119 131 q 267 9 203 35 q 419 -17 331 -17 q 572 9 508 -17 q 675 83 635 35 q 734 198 715 131 q 753 350 753 265 l 753 903 l 522 903 l 522 322 q 500 226 522 264 q 419 189 478 189 q 341 226 363 189 q 319 322 319 264 l 319 903 l 81 903 m 211 972 l 369 972 l 497 1144 l 297 1144 l 211 972 m 558 1144 l 472 972 l 631 972 l 758 1144 l 558 1144 "},"Ǔ":{"ha":833,"x_min":81,"x_max":753,"o":"m 81 903 l 81 350 q 100 198 81 265 q 161 83 119 131 q 267 9 203 35 q 419 -17 331 -17 q 572 9 508 -17 q 675 83 635 35 q 734 198 715 131 q 753 350 753 265 l 753 903 l 522 903 l 522 322 q 500 226 522 264 q 419 189 478 189 q 341 226 363 189 q 319 322 319 264 l 319 903 l 81 903 m 667 1144 l 486 1144 l 419 1064 l 414 1064 l 347 1144 l 167 1144 l 300 972 l 533 972 l 667 1144 "},"Ǖ":{"ha":833,"x_min":81,"x_max":753,"o":"m 81 903 l 81 350 q 100 198 81 265 q 161 83 119 131 q 267 9 203 35 q 419 -17 331 -17 q 572 9 508 -17 q 675 83 635 35 q 734 198 715 131 q 753 350 753 265 l 753 903 l 522 903 l 522 322 q 500 226 522 264 q 419 189 478 189 q 341 226 363 189 q 319 322 319 264 l 319 903 l 81 903 m 211 1325 l 211 1217 l 622 1217 l 622 1325 l 211 1325 m 272 964 q 340 991 314 964 q 367 1058 367 1018 q 340 1126 367 1099 q 272 1153 314 1153 q 204 1126 231 1153 q 178 1058 178 1099 q 204 991 178 1018 q 272 964 231 964 m 561 964 q 629 991 603 964 q 656 1058 656 1018 q 629 1126 656 1099 q 561 1153 603 1153 q 493 1126 519 1153 q 467 1058 467 1099 q 493 991 467 1018 q 561 964 519 964 "},"Ǘ":{"ha":833,"x_min":81,"x_max":753,"o":"m 81 903 l 81 350 q 100 198 81 265 q 161 83 119 131 q 267 9 203 35 q 419 -17 331 -17 q 572 9 508 -17 q 675 83 635 35 q 734 198 715 131 q 753 350 753 265 l 753 903 l 522 903 l 522 322 q 500 226 522 264 q 419 189 478 189 q 341 226 363 189 q 319 322 319 264 l 319 903 l 81 903 m 408 1367 l 300 1194 l 489 1194 l 656 1367 l 408 1367 m 272 964 q 340 991 314 964 q 367 1058 367 1018 q 340 1126 367 1099 q 272 1153 314 1153 q 204 1126 231 1153 q 178 1058 178 1099 q 204 991 178 1018 q 272 964 231 964 m 561 964 q 629 991 603 964 q 656 1058 656 1018 q 629 1126 656 1099 q 561 1153 603 1153 q 493 1126 519 1153 q 467 1058 467 1099 q 493 991 467 1018 q 561 964 519 964 "},"Ǚ":{"ha":833,"x_min":81,"x_max":753,"o":"m 81 903 l 81 350 q 100 198 81 265 q 161 83 119 131 q 267 9 203 35 q 419 -17 331 -17 q 572 9 508 -17 q 675 83 635 35 q 734 198 715 131 q 753 350 753 265 l 753 903 l 522 903 l 522 322 q 500 226 522 264 q 419 189 478 189 q 341 226 363 189 q 319 322 319 264 l 319 903 l 81 903 m 272 964 q 340 991 314 964 q 367 1058 367 1018 q 340 1126 367 1099 q 272 1153 314 1153 q 204 1126 231 1153 q 178 1058 178 1099 q 204 991 178 1018 q 272 964 231 964 m 561 964 q 629 991 603 964 q 656 1058 656 1018 q 629 1126 656 1099 q 561 1153 603 1153 q 493 1126 519 1153 q 467 1058 467 1099 q 493 991 467 1018 q 561 964 519 964 m 667 1367 l 486 1367 l 419 1286 l 414 1286 l 347 1367 l 167 1367 l 300 1194 l 533 1194 l 667 1367 "},"Ǜ":{"ha":833,"x_min":81,"x_max":753,"o":"m 81 903 l 81 350 q 100 198 81 265 q 161 83 119 131 q 267 9 203 35 q 419 -17 331 -17 q 572 9 508 -17 q 675 83 635 35 q 734 198 715 131 q 753 350 753 265 l 753 903 l 522 903 l 522 322 q 500 226 522 264 q 419 189 478 189 q 341 226 363 189 q 319 322 319 264 l 319 903 l 81 903 m 533 1194 l 425 1367 l 178 1367 l 344 1194 l 533 1194 m 561 964 q 629 991 603 964 q 656 1058 656 1018 q 629 1126 656 1099 q 561 1153 603 1153 q 493 1126 519 1153 q 467 1058 467 1099 q 493 991 467 1018 q 561 964 519 964 m 272 964 q 340 991 314 964 q 367 1058 367 1018 q 340 1126 367 1099 q 272 1153 314 1153 q 204 1126 231 1153 q 178 1058 178 1099 q 204 991 178 1018 q 272 964 231 964 "},"Ụ":{"ha":833,"x_min":81,"x_max":753,"o":"m 81 903 l 81 350 q 100 198 81 265 q 161 83 119 131 q 267 9 203 35 q 419 -17 331 -17 q 572 9 508 -17 q 675 83 635 35 q 734 198 715 131 q 753 350 753 265 l 753 903 l 522 903 l 522 322 q 500 226 522 264 q 419 189 478 189 q 341 226 363 189 q 319 322 319 264 l 319 903 l 81 903 m 417 -367 q 526 -328 483 -367 q 569 -228 569 -290 q 526 -126 569 -165 q 417 -86 483 -86 q 307 -126 350 -86 q 264 -228 264 -165 q 307 -328 264 -290 q 417 -367 350 -367 "},"Ủ":{"ha":833,"x_min":81,"x_max":753,"o":"m 81 903 l 81 350 q 100 198 81 265 q 161 83 119 131 q 267 9 203 35 q 419 -17 331 -17 q 572 9 508 -17 q 675 83 635 35 q 734 198 715 131 q 753 350 753 265 l 753 903 l 522 903 l 522 322 q 500 226 522 264 q 419 189 478 189 q 341 226 363 189 q 319 322 319 264 l 319 903 l 81 903 m 347 1047 l 364 956 q 444 967 407 957 q 510 995 482 976 q 556 1041 539 1014 q 572 1106 572 1068 q 560 1157 572 1133 q 519 1198 549 1181 q 442 1226 490 1215 q 322 1239 394 1236 l 294 1122 q 379 1108 356 1118 q 403 1081 403 1097 q 387 1057 403 1064 q 347 1047 371 1050 "},"Ų":{"ha":833,"x_min":81,"x_max":753,"o":"m 81 903 l 81 350 q 151 94 81 189 q 369 -14 222 -1 q 347 -35 363 -21 q 317 -71 332 -50 q 292 -119 303 -92 q 281 -181 281 -147 q 330 -281 281 -246 q 450 -317 379 -317 q 535 -302 490 -317 q 608 -264 579 -287 l 556 -144 q 533 -158 546 -151 q 508 -164 521 -164 q 470 -153 488 -164 q 453 -117 453 -142 q 457 -88 453 -103 q 475 -58 461 -74 q 514 -24 489 -42 q 581 14 539 -7 q 711 141 669 57 q 753 350 753 225 l 753 903 l 522 903 l 522 322 q 500 226 522 264 q 419 189 478 189 q 341 226 363 189 q 319 322 319 264 l 319 903 l 81 903 "},"Ư":{"ha":833,"x_min":81,"x_max":933,"o":"m 889 1122 l 728 1053 q 742 1024 735 1042 q 750 986 750 1007 q 740 942 750 958 q 713 917 729 925 q 676 906 696 908 q 639 903 657 903 l 522 903 l 522 322 q 500 226 522 264 q 419 189 478 189 q 341 226 363 189 q 319 322 319 264 l 319 903 l 81 903 l 81 350 q 100 198 81 265 q 161 83 119 131 q 267 9 203 35 q 419 -17 331 -17 q 572 9 508 -17 q 675 83 635 35 q 734 198 715 131 q 753 350 753 265 l 753 818 q 824 840 792 825 q 881 877 857 854 q 919 931 906 900 q 933 1003 933 963 q 919 1072 933 1040 q 889 1122 906 1103 "},"Ứ":{"ha":833,"x_min":81,"x_max":933,"o":"m 889 1122 l 728 1053 q 742 1024 735 1042 q 750 986 750 1007 q 740 942 750 958 q 713 917 729 925 q 676 906 696 908 q 639 903 657 903 l 522 903 l 522 322 q 500 226 522 264 q 419 189 478 189 q 341 226 363 189 q 319 322 319 264 l 319 903 l 81 903 l 81 350 q 100 198 81 265 q 161 83 119 131 q 267 9 203 35 q 419 -17 331 -17 q 572 9 508 -17 q 675 83 635 35 q 734 198 715 131 q 753 350 753 265 l 753 818 q 824 840 792 825 q 881 877 857 854 q 919 931 906 900 q 933 1003 933 963 q 919 1072 933 1040 q 889 1122 906 1103 m 489 972 l 658 1144 l 408 1144 l 300 972 l 489 972 "},"Ừ":{"ha":833,"x_min":81,"x_max":933,"o":"m 889 1122 l 728 1053 q 742 1024 735 1042 q 750 986 750 1007 q 740 942 750 958 q 713 917 729 925 q 676 906 696 908 q 639 903 657 903 l 522 903 l 522 322 q 500 226 522 264 q 419 189 478 189 q 341 226 363 189 q 319 322 319 264 l 319 903 l 81 903 l 81 350 q 100 198 81 265 q 161 83 119 131 q 267 9 203 35 q 419 -17 331 -17 q 572 9 508 -17 q 675 83 635 35 q 734 198 715 131 q 753 350 753 265 l 753 818 q 824 840 792 825 q 881 877 857 854 q 919 931 906 900 q 933 1003 933 963 q 919 1072 933 1040 q 889 1122 906 1103 m 175 1144 l 344 972 l 533 972 l 425 1144 l 175 1144 "},"Ử":{"ha":833,"x_min":81,"x_max":933,"o":"m 889 1122 l 728 1053 q 742 1024 735 1042 q 750 986 750 1007 q 740 942 750 958 q 713 917 729 925 q 676 906 696 908 q 639 903 657 903 l 522 903 l 522 322 q 500 226 522 264 q 419 189 478 189 q 341 226 363 189 q 319 322 319 264 l 319 903 l 81 903 l 81 350 q 100 198 81 265 q 161 83 119 131 q 267 9 203 35 q 419 -17 331 -17 q 572 9 508 -17 q 675 83 635 35 q 734 198 715 131 q 753 350 753 265 l 753 818 q 824 840 792 825 q 881 877 857 854 q 919 931 906 900 q 933 1003 933 963 q 919 1072 933 1040 q 889 1122 906 1103 m 347 1047 l 364 956 q 444 967 407 957 q 510 995 482 976 q 556 1041 539 1014 q 572 1106 572 1068 q 560 1157 572 1133 q 519 1198 549 1181 q 442 1226 490 1215 q 322 1239 394 1236 l 294 1122 q 379 1108 356 1118 q 403 1081 403 1097 q 387 1057 403 1064 q 347 1047 371 1050 "},"Ữ":{"ha":833,"x_min":81,"x_max":933,"o":"m 889 1122 l 728 1053 q 742 1024 735 1042 q 750 986 750 1007 q 740 942 750 958 q 713 917 729 925 q 676 906 696 908 q 639 903 657 903 l 522 903 l 522 322 q 500 226 522 264 q 419 189 478 189 q 341 226 363 189 q 319 322 319 264 l 319 903 l 81 903 l 81 350 q 100 198 81 265 q 161 83 119 131 q 267 9 203 35 q 419 -17 331 -17 q 572 9 508 -17 q 675 83 635 35 q 734 198 715 131 q 753 350 753 265 l 753 818 q 824 840 792 825 q 881 877 857 854 q 919 931 906 900 q 933 1003 933 963 q 919 1072 933 1040 q 889 1122 906 1103 m 506 972 q 560 984 533 972 q 608 1021 586 996 q 644 1084 629 1046 q 667 1175 660 1122 l 547 1175 q 525 1129 539 1142 q 494 1117 511 1117 q 463 1126 479 1117 q 425 1146 446 1135 q 380 1166 404 1157 q 328 1175 356 1175 q 225 1126 271 1175 q 167 972 179 1078 l 286 972 q 308 1018 294 1006 q 339 1031 322 1031 q 370 1022 353 1031 q 408 1001 388 1013 q 453 981 429 990 q 506 972 478 972 "},"Ự":{"ha":833,"x_min":81,"x_max":933,"o":"m 889 1122 l 728 1053 q 742 1024 735 1042 q 750 986 750 1007 q 740 942 750 958 q 713 917 729 925 q 676 906 696 908 q 639 903 657 903 l 522 903 l 522 322 q 500 226 522 264 q 419 189 478 189 q 341 226 363 189 q 319 322 319 264 l 319 903 l 81 903 l 81 350 q 100 198 81 265 q 161 83 119 131 q 267 9 203 35 q 419 -17 331 -17 q 572 9 508 -17 q 675 83 635 35 q 734 198 715 131 q 753 350 753 265 l 753 818 q 824 840 792 825 q 881 877 857 854 q 919 931 906 900 q 933 1003 933 963 q 919 1072 933 1040 q 889 1122 906 1103 m 417 -367 q 526 -328 483 -367 q 569 -228 569 -290 q 526 -126 569 -165 q 417 -86 483 -86 q 307 -126 350 -86 q 264 -228 264 -165 q 307 -328 264 -290 q 417 -367 350 -367 "},"Ẁ":{"ha":833,"x_min":3,"x_max":832,"o":"m 3 903 l 115 0 l 357 0 l 394 247 q 407 338 401 292 q 415 424 413 383 l 419 424 q 427 338 421 383 q 440 247 433 292 l 481 0 l 728 0 l 832 903 l 604 903 l 593 456 l 593 222 l 588 222 q 565 342 578 283 q 543 456 553 400 l 497 675 l 358 675 l 308 456 q 285 339 297 397 q 264 222 272 281 l 258 222 l 258 456 l 247 903 l 3 903 m 175 1144 l 344 972 l 533 972 l 425 1144 l 175 1144 "},"Ẃ":{"ha":833,"x_min":3,"x_max":832,"o":"m 3 903 l 115 0 l 357 0 l 394 247 q 407 338 401 292 q 415 424 413 383 l 419 424 q 427 338 421 383 q 440 247 433 292 l 481 0 l 728 0 l 832 903 l 604 903 l 593 456 l 593 222 l 588 222 q 565 342 578 283 q 543 456 553 400 l 497 675 l 358 675 l 308 456 q 285 339 297 397 q 264 222 272 281 l 258 222 l 258 456 l 247 903 l 3 903 m 489 972 l 658 1144 l 408 1144 l 300 972 l 489 972 "},"Ŵ":{"ha":833,"x_min":3,"x_max":832,"o":"m 3 903 l 115 0 l 357 0 l 394 247 q 407 338 401 292 q 415 424 413 383 l 419 424 q 427 338 421 383 q 440 247 433 292 l 481 0 l 728 0 l 832 903 l 604 903 l 593 456 l 593 222 l 588 222 q 565 342 578 283 q 543 456 553 400 l 497 675 l 358 675 l 308 456 q 285 339 297 397 q 264 222 272 281 l 258 222 l 258 456 l 247 903 l 3 903 m 167 972 l 347 972 l 414 1053 l 419 1053 l 486 972 l 667 972 l 533 1144 l 300 1144 l 167 972 "},"Ẅ":{"ha":833,"x_min":3,"x_max":832,"o":"m 3 903 l 115 0 l 357 0 l 394 247 q 407 338 401 292 q 415 424 413 383 l 419 424 q 427 338 421 383 q 440 247 433 292 l 481 0 l 728 0 l 832 903 l 604 903 l 593 456 l 593 222 l 588 222 q 565 342 578 283 q 543 456 553 400 l 497 675 l 358 675 l 308 456 q 285 339 297 397 q 264 222 272 281 l 258 222 l 258 456 l 247 903 l 3 903 m 272 964 q 351 995 321 964 q 381 1072 381 1026 q 351 1149 381 1118 q 272 1181 321 1181 q 194 1149 224 1181 q 164 1072 164 1118 q 194 995 164 1026 q 272 964 224 964 m 561 964 q 640 995 610 964 q 669 1072 669 1026 q 640 1149 669 1118 q 561 1181 610 1181 q 483 1149 513 1181 q 453 1072 453 1118 q 483 995 453 1026 q 561 964 513 964 "},"Ỳ":{"ha":833,"x_min":11,"x_max":822,"o":"m 297 299 l 297 0 l 536 0 l 536 299 l 822 903 l 572 903 l 497 706 q 459 603 478 653 q 421 500 440 554 l 415 500 q 378 603 396 554 q 342 706 360 653 l 267 903 l 11 903 l 297 299 m 175 1144 l 344 972 l 533 972 l 425 1144 l 175 1144 "},"Ý":{"ha":833,"x_min":11,"x_max":822,"o":"m 297 299 l 297 0 l 536 0 l 536 299 l 822 903 l 572 903 l 497 706 q 459 603 478 653 q 421 500 440 554 l 415 500 q 378 603 396 554 q 342 706 360 653 l 267 903 l 11 903 l 297 299 m 489 972 l 658 1144 l 408 1144 l 300 972 l 489 972 "},"Ŷ":{"ha":833,"x_min":11,"x_max":822,"o":"m 297 299 l 297 0 l 536 0 l 536 299 l 822 903 l 572 903 l 497 706 q 459 603 478 653 q 421 500 440 554 l 415 500 q 378 603 396 554 q 342 706 360 653 l 267 903 l 11 903 l 297 299 m 167 972 l 347 972 l 414 1053 l 419 1053 l 486 972 l 667 972 l 533 1144 l 300 1144 l 167 972 "},"Ÿ":{"ha":833,"x_min":11,"x_max":822,"o":"m 297 299 l 297 0 l 536 0 l 536 299 l 822 903 l 572 903 l 497 706 q 459 603 478 653 q 421 500 440 554 l 415 500 q 378 603 396 554 q 342 706 360 653 l 267 903 l 11 903 l 297 299 m 272 964 q 351 995 321 964 q 381 1072 381 1026 q 351 1149 381 1118 q 272 1181 321 1181 q 194 1149 224 1181 q 164 1072 164 1118 q 194 995 164 1026 q 272 964 224 964 m 561 964 q 640 995 610 964 q 669 1072 669 1026 q 640 1149 669 1118 q 561 1181 610 1181 q 483 1149 513 1181 q 453 1072 453 1118 q 483 995 453 1026 q 561 964 513 964 "},"Ẏ":{"ha":833,"x_min":11,"x_max":822,"o":"m 297 299 l 297 0 l 536 0 l 536 299 l 822 903 l 572 903 l 497 706 q 459 603 478 653 q 421 500 440 554 l 415 500 q 378 603 396 554 q 342 706 360 653 l 267 903 l 11 903 l 297 299 m 417 967 q 513 1000 475 967 q 550 1086 550 1033 q 513 1172 550 1139 q 417 1206 475 1206 q 321 1172 358 1206 q 283 1086 283 1139 q 321 1000 283 1033 q 417 967 358 967 "},"Ỵ":{"ha":833,"x_min":11,"x_max":822,"o":"m 297 299 l 297 0 l 536 0 l 536 299 l 822 903 l 572 903 l 497 706 q 459 603 478 653 q 421 500 440 554 l 415 500 q 378 603 396 554 q 342 706 360 653 l 267 903 l 11 903 l 297 299 m 417 -367 q 526 -328 483 -367 q 569 -228 569 -290 q 526 -126 569 -165 q 417 -86 483 -86 q 307 -126 350 -86 q 264 -228 264 -165 q 307 -328 264 -290 q 417 -367 350 -367 "},"Ỷ":{"ha":833,"x_min":11,"x_max":822,"o":"m 297 299 l 297 0 l 536 0 l 536 299 l 822 903 l 572 903 l 497 706 q 459 603 478 653 q 421 500 440 554 l 415 500 q 378 603 396 554 q 342 706 360 653 l 267 903 l 11 903 l 297 299 m 347 1047 l 364 956 q 444 967 407 957 q 510 995 482 976 q 556 1041 539 1014 q 572 1106 572 1068 q 560 1157 572 1133 q 519 1198 549 1181 q 442 1226 490 1215 q 322 1239 394 1236 l 294 1122 q 379 1108 356 1118 q 403 1081 403 1097 q 387 1057 403 1064 q 347 1047 371 1050 "},"Ỹ":{"ha":833,"x_min":11,"x_max":822,"o":"m 297 299 l 297 0 l 536 0 l 536 299 l 822 903 l 572 903 l 497 706 q 459 603 478 653 q 421 500 440 554 l 415 500 q 378 603 396 554 q 342 706 360 653 l 267 903 l 11 903 l 297 299 m 506 972 q 560 984 533 972 q 608 1021 586 996 q 644 1084 629 1046 q 667 1175 660 1122 l 547 1175 q 525 1129 539 1142 q 494 1117 511 1117 q 463 1126 479 1117 q 425 1146 446 1135 q 380 1166 404 1157 q 328 1175 356 1175 q 225 1126 271 1175 q 167 972 179 1078 l 286 972 q 308 1018 294 1006 q 339 1031 322 1031 q 370 1022 353 1031 q 408 1001 388 1013 q 453 981 429 990 q 506 972 478 972 "},"Ź":{"ha":833,"x_min":74,"x_max":764,"o":"m 74 144 l 74 0 l 764 0 l 764 200 l 368 200 l 760 758 l 760 903 l 111 903 l 111 703 l 465 703 l 74 144 m 508 972 l 678 1144 l 428 1144 l 319 972 l 508 972 "},"Ž":{"ha":833,"x_min":74,"x_max":764,"o":"m 74 144 l 74 0 l 764 0 l 764 200 l 368 200 l 760 758 l 760 903 l 111 903 l 111 703 l 465 703 l 74 144 m 686 1144 l 506 1144 l 439 1064 l 433 1064 l 367 1144 l 186 1144 l 319 972 l 553 972 l 686 1144 "},"Ż":{"ha":833,"x_min":74,"x_max":764,"o":"m 74 144 l 74 0 l 764 0 l 764 200 l 368 200 l 760 758 l 760 903 l 111 903 l 111 703 l 465 703 l 74 144 m 436 967 q 532 1000 494 967 q 569 1086 569 1033 q 532 1172 569 1139 q 436 1206 494 1206 q 340 1172 378 1206 q 303 1086 303 1139 q 340 1000 303 1033 q 436 967 378 967 "},"Ẓ":{"ha":833,"x_min":74,"x_max":764,"o":"m 74 144 l 74 0 l 764 0 l 764 200 l 368 200 l 760 758 l 760 903 l 111 903 l 111 703 l 465 703 l 74 144 m 431 -367 q 540 -328 497 -367 q 583 -228 583 -290 q 540 -126 583 -165 q 431 -86 497 -86 q 321 -126 364 -86 q 278 -228 278 -165 q 321 -328 278 -290 q 431 -367 364 -367 "},"Ð":{"ha":833,"x_min":-6,"x_max":783,"o":"m 89 408 l 89 0 l 358 0 q 526 26 449 0 q 661 108 604 53 q 751 250 718 164 q 783 456 783 336 q 751 660 783 575 q 660 799 718 744 q 521 878 601 853 q 344 903 440 903 l 89 903 l 89 519 l -6 511 l -6 408 l 89 408 m 331 192 l 328 192 l 328 408 l 458 408 l 458 519 l 328 519 l 328 711 l 331 711 q 411 701 374 711 q 477 663 449 690 q 522 585 506 635 q 539 456 539 535 q 522 325 539 376 q 477 244 506 274 q 411 203 449 215 q 331 192 374 192 "},"Þ":{"ha":833,"x_min":86,"x_max":797,"o":"m 86 903 l 86 0 l 325 0 l 325 156 l 436 156 q 572 174 507 156 q 688 231 638 193 q 767 329 738 269 q 797 472 797 389 q 768 615 797 557 q 690 708 739 672 q 574 758 640 743 q 436 772 508 772 l 325 772 l 325 903 l 86 903 m 425 344 l 325 344 l 325 583 l 425 583 q 528 558 492 583 q 564 472 564 533 q 530 378 564 411 q 425 344 496 344 "},"Ə":{"ha":833,"x_min":78,"x_max":783,"o":"m 322 356 l 542 356 q 501 228 531 271 q 431 186 471 186 q 358 227 386 186 q 322 356 329 268 m 169 819 l 272 656 q 329 698 297 679 q 406 717 361 717 q 544 528 526 717 l 83 528 q 79 487 81 507 q 78 447 78 467 q 103 249 78 336 q 176 103 129 163 q 288 14 222 44 q 431 -17 353 -17 q 574 15 508 -17 q 685 106 639 46 q 758 254 732 167 q 783 453 783 342 q 758 651 783 564 q 686 797 732 738 q 576 888 640 857 q 436 919 513 919 q 282 892 346 919 q 169 819 218 864 "},"à":{"ha":833,"x_min":75,"x_max":753,"o":"m 75 197 q 90 115 75 154 q 133 47 104 76 q 204 1 163 18 q 300 -17 246 -17 q 425 9 365 -17 q 536 72 485 35 l 542 72 l 558 0 l 753 0 l 753 386 q 730 533 753 471 q 665 634 707 594 q 562 692 622 674 q 428 711 501 711 q 258 688 340 711 q 97 619 176 664 l 181 464 q 290 508 243 493 q 381 522 336 522 q 473 505 439 522 q 514 450 507 488 q 311 425 394 443 q 176 376 228 407 q 99 300 124 344 q 75 197 75 256 m 303 217 q 312 250 303 235 q 344 278 321 265 q 409 298 368 290 q 514 308 450 306 l 514 219 q 453 183 486 199 q 378 167 419 167 q 303 217 303 167 m 183 1039 l 375 797 l 547 797 l 425 1039 l 183 1039 "},"á":{"ha":833,"x_min":75,"x_max":753,"o":"m 75 197 q 90 115 75 154 q 133 47 104 76 q 204 1 163 18 q 300 -17 246 -17 q 425 9 365 -17 q 536 72 485 35 l 542 72 l 558 0 l 753 0 l 753 386 q 730 533 753 471 q 665 634 707 594 q 562 692 622 674 q 428 711 501 711 q 258 688 340 711 q 97 619 176 664 l 181 464 q 290 508 243 493 q 381 522 336 522 q 473 505 439 522 q 514 450 507 488 q 311 425 394 443 q 176 376 228 407 q 99 300 124 344 q 75 197 75 256 m 303 217 q 312 250 303 235 q 344 278 321 265 q 409 298 368 290 q 514 308 450 306 l 514 219 q 453 183 486 199 q 378 167 419 167 q 303 217 303 167 m 475 797 l 667 1039 l 425 1039 l 303 797 l 475 797 "},"â":{"ha":833,"x_min":75,"x_max":753,"o":"m 75 197 q 90 115 75 154 q 133 47 104 76 q 204 1 163 18 q 300 -17 246 -17 q 425 9 365 -17 q 536 72 485 35 l 542 72 l 558 0 l 753 0 l 753 386 q 730 533 753 471 q 665 634 707 594 q 562 692 622 674 q 428 711 501 711 q 258 688 340 711 q 97 619 176 664 l 181 464 q 290 508 243 493 q 381 522 336 522 q 473 505 439 522 q 514 450 507 488 q 311 425 394 443 q 176 376 228 407 q 99 300 124 344 q 75 197 75 256 m 303 217 q 312 250 303 235 q 344 278 321 265 q 409 298 368 290 q 514 308 450 306 l 514 219 q 453 183 486 199 q 378 167 419 167 q 303 217 303 167 m 325 1039 l 183 797 l 356 797 l 422 928 l 428 928 l 494 797 l 667 797 l 525 1039 l 325 1039 "},"ã":{"ha":833,"x_min":75,"x_max":753,"o":"m 75 197 q 90 115 75 154 q 133 47 104 76 q 204 1 163 18 q 300 -17 246 -17 q 425 9 365 -17 q 536 72 485 35 l 542 72 l 558 0 l 753 0 l 753 386 q 730 533 753 471 q 665 634 707 594 q 562 692 622 674 q 428 711 501 711 q 258 688 340 711 q 97 619 176 664 l 181 464 q 290 508 243 493 q 381 522 336 522 q 473 505 439 522 q 514 450 507 488 q 311 425 394 443 q 176 376 228 407 q 99 300 124 344 q 75 197 75 256 m 303 217 q 312 250 303 235 q 344 278 321 265 q 409 298 368 290 q 514 308 450 306 l 514 219 q 453 183 486 199 q 378 167 419 167 q 303 217 303 167 m 172 797 l 172 797 l 292 797 q 317 854 303 839 q 353 869 331 869 q 381 858 367 869 q 414 833 396 847 q 453 808 432 819 q 500 797 474 797 q 615 849 567 797 q 678 1014 663 900 l 558 1014 q 533 957 547 972 q 497 942 519 942 q 468 953 483 942 q 435 978 453 964 q 397 1003 418 992 q 350 1014 375 1014 q 235 963 283 1014 q 172 797 188 911 "},"ä":{"ha":833,"x_min":75,"x_max":753,"o":"m 75 197 q 90 115 75 154 q 133 47 104 76 q 204 1 163 18 q 300 -17 246 -17 q 425 9 365 -17 q 536 72 485 35 l 542 72 l 558 0 l 753 0 l 753 386 q 730 533 753 471 q 665 634 707 594 q 562 692 622 674 q 428 711 501 711 q 258 688 340 711 q 97 619 176 664 l 181 464 q 290 508 243 493 q 381 522 336 522 q 473 505 439 522 q 514 450 507 488 q 311 425 394 443 q 176 376 228 407 q 99 300 124 344 q 75 197 75 256 m 303 217 q 312 250 303 235 q 344 278 321 265 q 409 298 368 290 q 514 308 450 306 l 514 219 q 453 183 486 199 q 378 167 419 167 q 303 217 303 167 m 267 783 q 355 818 321 783 q 389 906 389 853 q 355 993 389 958 q 267 1028 321 1028 q 178 993 213 1028 q 144 906 144 958 q 178 818 144 853 q 267 783 213 783 m 583 783 q 672 818 638 783 q 706 906 706 853 q 672 993 706 958 q 583 1028 638 1028 q 495 993 529 1028 q 461 906 461 958 q 495 818 461 853 q 583 783 529 783 "},"ā":{"ha":833,"x_min":75,"x_max":753,"o":"m 75 197 q 90 115 75 154 q 133 47 104 76 q 204 1 163 18 q 300 -17 246 -17 q 425 9 365 -17 q 536 72 485 35 l 542 72 l 558 0 l 753 0 l 753 386 q 730 533 753 471 q 665 634 707 594 q 562 692 622 674 q 428 711 501 711 q 258 688 340 711 q 97 619 176 664 l 181 464 q 290 508 243 493 q 381 522 336 522 q 473 505 439 522 q 514 450 507 488 q 311 425 394 443 q 176 376 228 407 q 99 300 124 344 q 75 197 75 256 m 303 217 q 312 250 303 235 q 344 278 321 265 q 409 298 368 290 q 514 308 450 306 l 514 219 q 453 183 486 199 q 378 167 419 167 q 303 217 303 167 m 225 967 l 225 817 l 625 817 l 625 967 l 225 967 "},"ă":{"ha":833,"x_min":75,"x_max":753,"o":"m 75 197 q 90 115 75 154 q 133 47 104 76 q 204 1 163 18 q 300 -17 246 -17 q 425 9 365 -17 q 536 72 485 35 l 542 72 l 558 0 l 753 0 l 753 386 q 730 533 753 471 q 665 634 707 594 q 562 692 622 674 q 428 711 501 711 q 258 688 340 711 q 97 619 176 664 l 181 464 q 290 508 243 493 q 381 522 336 522 q 473 505 439 522 q 514 450 507 488 q 311 425 394 443 q 176 376 228 407 q 99 300 124 344 q 75 197 75 256 m 303 217 q 312 250 303 235 q 344 278 321 265 q 409 298 368 290 q 514 308 450 306 l 514 219 q 453 183 486 199 q 378 167 419 167 q 303 217 303 167 m 425 797 q 519 815 479 797 q 585 865 558 833 q 624 938 611 896 q 639 1025 638 979 l 508 1025 q 483 953 503 981 q 425 925 464 925 q 367 953 386 925 q 342 1025 347 981 l 211 1025 q 226 938 213 979 q 265 865 239 896 q 331 815 292 833 q 425 797 371 797 "},"å":{"ha":833,"x_min":75,"x_max":753,"o":"m 75 197 q 90 115 75 154 q 133 47 104 76 q 204 1 163 18 q 300 -17 246 -17 q 425 9 365 -17 q 536 72 485 35 l 542 72 l 558 0 l 753 0 l 753 386 q 730 533 753 471 q 665 634 707 594 q 562 692 622 674 q 428 711 501 711 q 258 688 340 711 q 97 619 176 664 l 181 464 q 290 508 243 493 q 381 522 336 522 q 473 505 439 522 q 514 450 507 488 q 311 425 394 443 q 176 376 228 407 q 99 300 124 344 q 75 197 75 256 m 303 217 q 312 250 303 235 q 344 278 321 265 q 409 298 368 290 q 514 308 450 306 l 514 219 q 453 183 486 199 q 378 167 419 167 q 303 217 303 167 m 425 764 q 546 804 500 764 q 592 911 592 844 q 546 1018 592 978 q 425 1058 500 1058 q 304 1018 350 1058 q 258 911 258 978 q 304 804 258 844 q 425 764 350 764 m 425 850 q 388 867 403 850 q 372 911 372 883 q 388 956 372 939 q 425 972 403 972 q 463 956 447 972 q 478 911 478 939 q 463 867 478 883 q 425 850 447 850 "},"ǎ":{"ha":833,"x_min":75,"x_max":753,"o":"m 75 197 q 90 115 75 154 q 133 47 104 76 q 204 1 163 18 q 300 -17 246 -17 q 425 9 365 -17 q 536 72 485 35 l 542 72 l 558 0 l 753 0 l 753 386 q 730 533 753 471 q 665 634 707 594 q 562 692 622 674 q 428 711 501 711 q 258 688 340 711 q 97 619 176 664 l 181 464 q 290 508 243 493 q 381 522 336 522 q 473 505 439 522 q 514 450 507 488 q 311 425 394 443 q 176 376 228 407 q 99 300 124 344 q 75 197 75 256 m 303 217 q 312 250 303 235 q 344 278 321 265 q 409 298 368 290 q 514 308 450 306 l 514 219 q 453 183 486 199 q 378 167 419 167 q 303 217 303 167 m 183 1039 l 325 797 l 525 797 l 667 1039 l 494 1039 l 428 908 l 422 908 l 356 1039 l 183 1039 "},"ạ":{"ha":833,"x_min":75,"x_max":753,"o":"m 75 197 q 90 115 75 154 q 133 47 104 76 q 204 1 163 18 q 300 -17 246 -17 q 425 9 365 -17 q 536 72 485 35 l 542 72 l 558 0 l 753 0 l 753 386 q 730 533 753 471 q 665 634 707 594 q 562 692 622 674 q 428 711 501 711 q 258 688 340 711 q 97 619 176 664 l 181 464 q 290 508 243 493 q 381 522 336 522 q 473 505 439 522 q 514 450 507 488 q 311 425 394 443 q 176 376 228 407 q 99 300 124 344 q 75 197 75 256 m 303 217 q 312 250 303 235 q 344 278 321 265 q 409 298 368 290 q 514 308 450 306 l 514 219 q 453 183 486 199 q 378 167 419 167 q 303 217 303 167 m 433 -367 q 543 -328 500 -367 q 586 -228 586 -290 q 543 -126 586 -165 q 433 -86 500 -86 q 324 -126 367 -86 q 281 -228 281 -165 q 324 -328 281 -290 q 433 -367 367 -367 "},"ả":{"ha":833,"x_min":75,"x_max":753,"o":"m 75 197 q 90 115 75 154 q 133 47 104 76 q 204 1 163 18 q 300 -17 246 -17 q 425 9 365 -17 q 536 72 485 35 l 542 72 l 558 0 l 753 0 l 753 386 q 730 533 753 471 q 665 634 707 594 q 562 692 622 674 q 428 711 501 711 q 258 688 340 711 q 97 619 176 664 l 181 464 q 290 508 243 493 q 381 522 336 522 q 473 505 439 522 q 514 450 507 488 q 311 425 394 443 q 176 376 228 407 q 99 300 124 344 q 75 197 75 256 m 303 217 q 312 250 303 235 q 344 278 321 265 q 409 298 368 290 q 514 308 450 306 l 514 219 q 453 183 486 199 q 378 167 419 167 q 303 217 303 167 m 356 867 l 372 775 q 453 786 415 776 q 519 815 490 796 q 564 860 547 833 q 581 925 581 888 q 569 976 581 953 q 528 1017 557 1000 q 451 1045 499 1035 q 331 1058 403 1056 l 303 942 q 388 927 364 938 q 411 900 411 917 q 395 876 411 883 q 356 867 379 869 "},"ấ":{"ha":833,"x_min":75,"x_max":847,"o":"m 75 197 q 90 115 75 154 q 133 47 104 76 q 204 1 163 18 q 300 -17 246 -17 q 425 9 365 -17 q 536 72 485 35 l 542 72 l 558 0 l 753 0 l 753 386 q 730 533 753 471 q 665 634 707 594 q 562 692 622 674 q 428 711 501 711 q 258 688 340 711 q 97 619 176 664 l 181 464 q 290 508 243 493 q 381 522 336 522 q 473 505 439 522 q 514 450 507 488 q 311 425 394 443 q 176 376 228 407 q 99 300 124 344 q 75 197 75 256 m 303 217 q 312 250 303 235 q 344 278 321 265 q 409 298 368 290 q 514 308 450 306 l 514 219 q 453 183 486 199 q 378 167 419 167 q 303 217 303 167 m 331 981 l 219 797 l 364 797 l 422 883 l 428 883 l 486 797 l 631 797 l 519 981 l 331 981 m 675 1067 l 583 900 l 714 900 l 847 1067 l 675 1067 "},"ầ":{"ha":833,"x_min":75,"x_max":797,"o":"m 75 197 q 90 115 75 154 q 133 47 104 76 q 204 1 163 18 q 300 -17 246 -17 q 425 9 365 -17 q 536 72 485 35 l 542 72 l 558 0 l 753 0 l 753 386 q 730 533 753 471 q 665 634 707 594 q 562 692 622 674 q 428 711 501 711 q 258 688 340 711 q 97 619 176 664 l 181 464 q 290 508 243 493 q 381 522 336 522 q 473 505 439 522 q 514 450 507 488 q 311 425 394 443 q 176 376 228 407 q 99 300 124 344 q 75 197 75 256 m 303 217 q 312 250 303 235 q 344 278 321 265 q 409 298 368 290 q 514 308 450 306 l 514 219 q 453 183 486 199 q 378 167 419 167 q 303 217 303 167 m 331 981 l 219 797 l 364 797 l 422 883 l 428 883 l 486 797 l 631 797 l 519 981 l 331 981 m 797 900 l 706 1067 l 533 1067 l 667 900 l 797 900 "},"ẩ":{"ha":833,"x_min":75,"x_max":803,"o":"m 75 197 q 90 115 75 154 q 133 47 104 76 q 204 1 163 18 q 300 -17 246 -17 q 425 9 365 -17 q 536 72 485 35 l 542 72 l 558 0 l 753 0 l 753 386 q 730 533 753 471 q 665 634 707 594 q 562 692 622 674 q 428 711 501 711 q 258 688 340 711 q 97 619 176 664 l 181 464 q 290 508 243 493 q 381 522 336 522 q 473 505 439 522 q 514 450 507 488 q 311 425 394 443 q 176 376 228 407 q 99 300 124 344 q 75 197 75 256 m 303 217 q 312 250 303 235 q 344 278 321 265 q 409 298 368 290 q 514 308 450 306 l 514 219 q 453 183 486 199 q 378 167 419 167 q 303 217 303 167 m 331 981 l 219 797 l 364 797 l 422 883 l 428 883 l 486 797 l 631 797 l 519 981 l 331 981 m 614 950 l 628 872 q 696 885 664 876 q 751 908 728 893 q 789 948 775 924 q 803 1008 803 972 q 792 1052 803 1032 q 757 1087 782 1072 q 690 1110 732 1101 q 583 1122 647 1119 l 561 1025 q 632 1010 614 1021 q 650 983 650 1000 q 640 960 650 967 q 614 950 631 953 "},"ẫ":{"ha":833,"x_min":75,"x_max":753,"o":"m 75 197 q 90 115 75 154 q 133 47 104 76 q 204 1 163 18 q 300 -17 246 -17 q 425 9 365 -17 q 536 72 485 35 l 542 72 l 558 0 l 753 0 l 753 386 q 730 533 753 471 q 665 634 707 594 q 562 692 622 674 q 428 711 501 711 q 258 688 340 711 q 97 619 176 664 l 181 464 q 290 508 243 493 q 381 522 336 522 q 473 505 439 522 q 514 450 507 488 q 311 425 394 443 q 176 376 228 407 q 99 300 124 344 q 75 197 75 256 m 303 217 q 312 250 303 235 q 344 278 321 265 q 409 298 368 290 q 514 308 450 306 l 514 219 q 453 183 486 199 q 378 167 419 167 q 303 217 303 167 m 317 956 l 208 797 l 361 797 l 422 875 l 428 875 l 489 797 l 642 797 l 533 956 l 317 956 m 214 1006 l 314 1006 q 333 1044 321 1033 q 361 1056 344 1056 q 388 1048 375 1056 q 417 1031 401 1040 q 454 1013 433 1021 q 503 1006 475 1006 q 587 1044 549 1006 q 636 1175 625 1083 l 536 1175 q 517 1136 529 1147 q 489 1125 506 1125 q 462 1133 475 1125 q 433 1150 449 1140 q 396 1167 417 1160 q 347 1175 375 1175 q 263 1136 301 1175 q 214 1006 225 1097 "},"ậ":{"ha":833,"x_min":75,"x_max":753,"o":"m 75 197 q 90 115 75 154 q 133 47 104 76 q 204 1 163 18 q 300 -17 246 -17 q 425 9 365 -17 q 536 72 485 35 l 542 72 l 558 0 l 753 0 l 753 386 q 730 533 753 471 q 665 634 707 594 q 562 692 622 674 q 428 711 501 711 q 258 688 340 711 q 97 619 176 664 l 181 464 q 290 508 243 493 q 381 522 336 522 q 473 505 439 522 q 514 450 507 488 q 311 425 394 443 q 176 376 228 407 q 99 300 124 344 q 75 197 75 256 m 303 217 q 312 250 303 235 q 344 278 321 265 q 409 298 368 290 q 514 308 450 306 l 514 219 q 453 183 486 199 q 378 167 419 167 q 303 217 303 167 m 325 1039 l 183 797 l 356 797 l 422 928 l 428 928 l 494 797 l 667 797 l 525 1039 l 325 1039 m 433 -367 q 543 -328 500 -367 q 586 -228 586 -290 q 543 -126 586 -165 q 433 -86 500 -86 q 324 -126 367 -86 q 281 -228 281 -165 q 324 -328 281 -290 q 433 -367 367 -367 "},"ắ":{"ha":833,"x_min":75,"x_max":753,"o":"m 75 197 q 90 115 75 154 q 133 47 104 76 q 204 1 163 18 q 300 -17 246 -17 q 425 9 365 -17 q 536 72 485 35 l 542 72 l 558 0 l 753 0 l 753 386 q 730 533 753 471 q 665 634 707 594 q 562 692 622 674 q 428 711 501 711 q 258 688 340 711 q 97 619 176 664 l 181 464 q 290 508 243 493 q 381 522 336 522 q 473 505 439 522 q 514 450 507 488 q 311 425 394 443 q 176 376 228 407 q 99 300 124 344 q 75 197 75 256 m 303 217 q 312 250 303 235 q 344 278 321 265 q 409 298 368 290 q 514 308 450 306 l 514 219 q 453 183 486 199 q 378 167 419 167 q 303 217 303 167 m 431 1136 l 356 969 l 472 969 l 597 1136 l 431 1136 m 425 797 q 512 813 475 797 q 574 856 549 829 q 611 920 599 883 q 625 997 624 957 l 522 997 q 492 935 515 960 q 425 911 469 911 q 358 935 381 911 q 328 997 335 960 l 225 997 q 239 920 226 957 q 276 856 251 883 q 338 813 301 829 q 425 797 375 797 "},"ằ":{"ha":833,"x_min":75,"x_max":753,"o":"m 75 197 q 90 115 75 154 q 133 47 104 76 q 204 1 163 18 q 300 -17 246 -17 q 425 9 365 -17 q 536 72 485 35 l 542 72 l 558 0 l 753 0 l 753 386 q 730 533 753 471 q 665 634 707 594 q 562 692 622 674 q 428 711 501 711 q 258 688 340 711 q 97 619 176 664 l 181 464 q 290 508 243 493 q 381 522 336 522 q 473 505 439 522 q 514 450 507 488 q 311 425 394 443 q 176 376 228 407 q 99 300 124 344 q 75 197 75 256 m 303 217 q 312 250 303 235 q 344 278 321 265 q 409 298 368 290 q 514 308 450 306 l 514 219 q 453 183 486 199 q 378 167 419 167 q 303 217 303 167 m 494 969 l 419 1136 l 253 1136 l 378 969 l 494 969 m 425 797 q 512 813 475 797 q 574 856 549 829 q 611 920 599 883 q 625 997 624 957 l 522 997 q 492 935 515 960 q 425 911 469 911 q 358 935 381 911 q 328 997 335 960 l 225 997 q 239 920 226 957 q 276 856 251 883 q 338 813 301 829 q 425 797 375 797 "},"ẳ":{"ha":833,"x_min":75,"x_max":753,"o":"m 75 197 q 90 115 75 154 q 133 47 104 76 q 204 1 163 18 q 300 -17 246 -17 q 425 9 365 -17 q 536 72 485 35 l 542 72 l 558 0 l 753 0 l 753 386 q 730 533 753 471 q 665 634 707 594 q 562 692 622 674 q 428 711 501 711 q 258 688 340 711 q 97 619 176 664 l 181 464 q 290 508 243 493 q 381 522 336 522 q 473 505 439 522 q 514 450 507 488 q 311 425 394 443 q 176 376 228 407 q 99 300 124 344 q 75 197 75 256 m 303 217 q 312 250 303 235 q 344 278 321 265 q 409 298 368 290 q 514 308 450 306 l 514 219 q 453 183 486 199 q 378 167 419 167 q 303 217 303 167 m 425 797 q 512 813 475 797 q 574 856 549 829 q 611 920 599 883 q 625 997 624 957 l 522 997 q 492 935 515 960 q 425 911 469 911 q 358 935 381 911 q 328 997 335 960 l 225 997 q 239 920 226 957 q 276 856 251 883 q 338 813 301 829 q 425 797 375 797 m 358 1054 l 372 976 q 440 989 408 981 q 496 1013 472 997 q 533 1052 519 1028 q 547 1113 547 1076 q 537 1156 547 1136 q 501 1191 526 1176 q 434 1215 476 1206 q 328 1226 392 1224 l 306 1129 q 376 1115 358 1125 q 394 1088 394 1104 q 385 1064 394 1071 q 358 1054 375 1057 "},"ẵ":{"ha":833,"x_min":75,"x_max":753,"o":"m 75 197 q 90 115 75 154 q 133 47 104 76 q 204 1 163 18 q 300 -17 246 -17 q 425 9 365 -17 q 536 72 485 35 l 542 72 l 558 0 l 753 0 l 753 386 q 730 533 753 471 q 665 634 707 594 q 562 692 622 674 q 428 711 501 711 q 258 688 340 711 q 97 619 176 664 l 181 464 q 290 508 243 493 q 381 522 336 522 q 473 505 439 522 q 514 450 507 488 q 311 425 394 443 q 176 376 228 407 q 99 300 124 344 q 75 197 75 256 m 303 217 q 312 250 303 235 q 344 278 321 265 q 409 298 368 290 q 514 308 450 306 l 514 219 q 453 183 486 199 q 378 167 419 167 q 303 217 303 167 m 425 797 q 512 811 475 797 q 574 848 549 825 q 611 902 599 871 q 625 969 624 933 l 517 969 q 490 925 510 944 q 425 906 469 906 q 360 925 381 906 q 333 969 340 944 l 225 969 q 276 848 226 899 q 425 797 325 797 m 214 1006 l 314 1006 q 333 1044 321 1033 q 361 1056 344 1056 q 388 1048 375 1056 q 417 1031 401 1040 q 454 1013 433 1021 q 503 1006 475 1006 q 587 1044 549 1006 q 636 1175 625 1083 l 536 1175 q 517 1136 529 1147 q 489 1125 506 1125 q 462 1133 475 1125 q 433 1150 449 1140 q 396 1167 417 1160 q 347 1175 375 1175 q 263 1136 301 1175 q 214 1006 225 1097 "},"ặ":{"ha":833,"x_min":75,"x_max":753,"o":"m 75 197 q 90 115 75 154 q 133 47 104 76 q 204 1 163 18 q 300 -17 246 -17 q 425 9 365 -17 q 536 72 485 35 l 542 72 l 558 0 l 753 0 l 753 386 q 730 533 753 471 q 665 634 707 594 q 562 692 622 674 q 428 711 501 711 q 258 688 340 711 q 97 619 176 664 l 181 464 q 290 508 243 493 q 381 522 336 522 q 473 505 439 522 q 514 450 507 488 q 311 425 394 443 q 176 376 228 407 q 99 300 124 344 q 75 197 75 256 m 303 217 q 312 250 303 235 q 344 278 321 265 q 409 298 368 290 q 514 308 450 306 l 514 219 q 453 183 486 199 q 378 167 419 167 q 303 217 303 167 m 425 797 q 519 815 479 797 q 585 865 558 833 q 624 938 611 896 q 639 1025 638 979 l 508 1025 q 483 953 503 981 q 425 925 464 925 q 367 953 386 925 q 342 1025 347 981 l 211 1025 q 226 938 213 979 q 265 865 239 896 q 331 815 292 833 q 425 797 371 797 m 433 -367 q 543 -328 500 -367 q 586 -228 586 -290 q 543 -126 586 -165 q 433 -86 500 -86 q 324 -126 367 -86 q 281 -228 281 -165 q 324 -328 281 -290 q 433 -367 367 -367 "},"ą":{"ha":833,"x_min":75,"x_max":781,"o":"m 75 197 q 90 115 75 154 q 133 47 104 76 q 204 1 163 18 q 300 -17 246 -17 q 425 9 365 -17 q 536 72 485 35 l 542 72 l 561 -6 q 535 -26 550 -12 q 506 -60 521 -40 q 482 -107 492 -81 q 472 -164 472 -133 q 517 -262 472 -229 q 628 -294 563 -294 q 708 -281 664 -294 q 781 -244 751 -268 l 733 -139 q 712 -151 725 -146 q 686 -156 699 -156 q 648 -144 665 -156 q 631 -108 631 -133 q 656 -48 631 -79 q 753 0 682 -17 l 753 386 q 730 533 753 471 q 665 634 707 594 q 562 692 622 674 q 428 711 501 711 q 258 688 340 711 q 97 619 176 664 l 181 464 q 290 508 243 493 q 381 522 336 522 q 473 505 439 522 q 514 450 507 488 q 311 425 394 443 q 176 376 228 407 q 99 300 124 344 q 75 197 75 256 m 303 217 q 312 250 303 235 q 344 278 321 265 q 409 298 368 290 q 514 308 450 306 l 514 219 q 453 183 486 199 q 378 167 419 167 q 303 217 303 167 "},"æ":{"ha":833,"x_min":22,"x_max":821,"o":"m 22 197 q 35 115 22 154 q 72 47 47 76 q 132 1 96 18 q 217 -17 168 -17 q 306 6 263 -17 q 403 83 349 29 q 489 10 439 38 q 614 -17 539 -17 q 706 0 654 -17 q 800 50 758 17 l 719 203 q 669 176 692 183 q 622 169 646 169 q 556 193 585 169 q 511 275 526 217 l 811 275 q 817 313 814 288 q 821 369 821 338 q 807 501 821 439 q 765 610 793 564 q 697 684 738 657 q 601 711 656 711 q 505 690 543 711 q 431 622 467 668 q 368 688 406 664 q 272 711 331 711 q 158 691 214 711 q 39 633 101 671 l 122 478 q 197 511 160 500 q 258 522 233 522 q 302 505 288 522 q 322 451 317 488 q 96 363 169 419 q 22 197 22 306 m 633 419 l 508 419 q 535 506 515 481 q 579 531 556 531 q 622 498 611 531 q 633 419 633 465 m 235 217 q 255 272 235 247 q 319 308 275 296 l 322 282 q 329 238 325 261 q 340 194 333 214 q 313 174 328 182 q 283 167 299 167 q 235 217 235 167 "},"ƀ":{"ha":833,"x_min":0,"x_max":775,"o":"m 328 211 l 328 439 q 376 478 353 467 q 428 489 400 489 q 505 455 479 489 q 531 342 531 421 q 522 264 531 296 q 498 213 513 232 q 464 186 483 194 q 422 178 444 178 q 374 185 399 178 q 328 211 350 192 m 322 614 l 328 714 l 328 764 l 564 764 l 564 875 l 328 875 l 328 967 l 89 967 l 89 874 l 0 867 l 0 764 l 89 764 l 89 0 l 275 0 l 294 75 l 300 75 q 386 6 340 29 q 479 -17 432 -17 q 590 8 536 -17 q 684 78 643 32 q 750 191 725 124 q 775 346 775 258 q 756 485 775 422 q 700 591 736 547 q 613 659 664 635 q 499 683 561 683 q 406 665 451 683 q 322 614 360 647 "},"ç":{"ha":833,"x_min":86,"x_max":765,"o":"m 86 347 q 116 193 86 261 q 198 78 146 125 q 322 8 250 32 q 475 -17 393 -17 q 622 7 544 -17 q 765 83 700 31 l 671 233 q 592 193 635 211 q 499 175 550 175 q 378 222 425 175 q 331 347 331 268 q 379 473 331 426 q 507 519 428 519 q 574 509 540 519 q 647 472 608 499 l 756 619 q 643 686 711 661 q 493 711 575 711 q 339 687 413 711 q 209 616 265 663 q 119 501 153 569 q 86 347 86 433 m 408 6 l 353 -106 q 416 -132 401 -118 q 431 -161 431 -146 q 399 -202 431 -189 q 319 -219 368 -215 l 336 -311 q 437 -300 389 -310 q 521 -272 485 -290 q 578 -226 557 -253 q 600 -161 600 -199 q 578 -92 600 -117 q 519 -56 556 -68 l 544 6 l 408 6 "},"ć":{"ha":833,"x_min":86,"x_max":765,"o":"m 86 347 q 116 193 86 261 q 198 78 146 125 q 322 8 250 32 q 475 -17 393 -17 q 622 7 544 -17 q 765 83 700 31 l 671 233 q 592 193 635 211 q 499 175 550 175 q 378 222 425 175 q 331 347 331 268 q 379 473 331 426 q 507 519 428 519 q 574 509 540 519 q 647 472 608 499 l 756 619 q 643 686 711 661 q 493 711 575 711 q 339 687 413 711 q 209 616 265 663 q 119 501 153 569 q 86 347 86 433 m 522 797 l 714 1039 l 472 1039 l 350 797 l 522 797 "},"ĉ":{"ha":833,"x_min":86,"x_max":765,"o":"m 86 347 q 116 193 86 261 q 198 78 146 125 q 322 8 250 32 q 475 -17 393 -17 q 622 7 544 -17 q 765 83 700 31 l 671 233 q 592 193 635 211 q 499 175 550 175 q 378 222 425 175 q 331 347 331 268 q 379 473 331 426 q 507 519 428 519 q 574 509 540 519 q 647 472 608 499 l 756 619 q 643 686 711 661 q 493 711 575 711 q 339 687 413 711 q 209 616 265 663 q 119 501 153 569 q 86 347 86 433 m 372 1039 l 231 797 l 403 797 l 469 928 l 475 928 l 542 797 l 714 797 l 572 1039 l 372 1039 "},"č":{"ha":833,"x_min":86,"x_max":765,"o":"m 86 347 q 116 193 86 261 q 198 78 146 125 q 322 8 250 32 q 475 -17 393 -17 q 622 7 544 -17 q 765 83 700 31 l 671 233 q 592 193 635 211 q 499 175 550 175 q 378 222 425 175 q 331 347 331 268 q 379 473 331 426 q 507 519 428 519 q 574 509 540 519 q 647 472 608 499 l 756 619 q 643 686 711 661 q 493 711 575 711 q 339 687 413 711 q 209 616 265 663 q 119 501 153 569 q 86 347 86 433 m 231 1039 l 372 797 l 572 797 l 714 1039 l 542 1039 l 475 908 l 469 908 l 403 1039 l 231 1039 "},"ċ":{"ha":833,"x_min":86,"x_max":765,"o":"m 86 347 q 116 193 86 261 q 198 78 146 125 q 322 8 250 32 q 475 -17 393 -17 q 622 7 544 -17 q 765 83 700 31 l 671 233 q 592 193 635 211 q 499 175 550 175 q 378 222 425 175 q 331 347 331 268 q 379 473 331 426 q 507 519 428 519 q 574 509 540 519 q 647 472 608 499 l 756 619 q 643 686 711 661 q 493 711 575 711 q 339 687 413 711 q 209 616 265 663 q 119 501 153 569 q 86 347 86 433 m 472 781 q 582 819 539 781 q 625 919 625 857 q 582 1022 625 982 q 472 1061 539 1061 q 363 1022 406 1061 q 319 919 319 982 q 363 819 319 857 q 472 781 406 781 "},"ď":{"ha":833,"x_min":22,"x_max":897,"o":"m 22 347 q 43 195 22 263 q 101 81 64 128 q 192 8 139 33 q 313 -17 246 -17 q 408 6 360 -17 q 492 64 456 28 l 497 64 l 514 0 l 708 0 l 708 967 l 469 967 l 469 742 l 478 642 q 408 692 446 674 q 313 711 371 711 q 206 686 258 711 q 113 615 153 661 q 47 500 72 568 q 22 347 22 432 m 267 350 q 300 479 267 442 q 378 517 333 517 q 426 510 403 517 q 469 483 449 503 l 469 228 q 427 188 450 199 q 375 178 404 178 q 295 217 324 178 q 267 350 267 256 m 756 761 l 856 761 l 894 972 l 897 1075 l 747 1075 l 756 761 "},"ḍ":{"ha":833,"x_min":58,"x_max":744,"o":"m 58 347 q 79 195 58 263 q 138 81 100 128 q 228 8 175 33 q 349 -17 282 -17 q 444 6 396 -17 q 528 64 492 28 l 533 64 l 550 0 l 744 0 l 744 967 l 506 967 l 506 742 l 514 642 q 444 692 482 674 q 349 711 407 711 q 242 686 294 711 q 149 615 189 661 q 83 500 108 568 q 58 347 58 432 m 303 350 q 336 479 303 442 q 414 517 369 517 q 462 510 439 517 q 506 483 485 503 l 506 228 q 463 188 486 199 q 411 178 440 178 q 331 217 360 178 q 303 350 303 256 m 431 -367 q 540 -328 497 -367 q 583 -228 583 -290 q 540 -126 583 -165 q 431 -86 497 -86 q 321 -126 364 -86 q 278 -228 278 -165 q 321 -328 278 -290 q 431 -367 364 -367 "},"ḏ":{"ha":833,"x_min":58,"x_max":744,"o":"m 58 347 q 79 195 58 263 q 138 81 100 128 q 228 8 175 33 q 349 -17 282 -17 q 444 6 396 -17 q 528 64 492 28 l 533 64 l 550 0 l 744 0 l 744 967 l 506 967 l 506 742 l 514 642 q 444 692 482 674 q 349 711 407 711 q 242 686 294 711 q 149 615 189 661 q 83 500 108 568 q 58 347 58 432 m 303 350 q 336 479 303 442 q 414 517 369 517 q 462 510 439 517 q 506 483 485 503 l 506 228 q 463 188 486 199 q 411 178 440 178 q 331 217 360 178 q 303 350 303 256 m 631 -272 l 631 -122 l 231 -122 l 231 -272 l 631 -272 "},"đ":{"ha":833,"x_min":58,"x_max":833,"o":"m 506 456 l 506 228 q 463 188 486 199 q 411 178 440 178 q 331 213 360 178 q 303 336 303 249 q 337 455 303 421 q 418 489 371 489 q 463 481 440 489 q 506 456 485 474 m 833 772 l 833 875 l 744 875 l 744 967 l 506 967 l 506 875 l 300 875 l 300 764 l 506 764 l 506 714 l 514 614 q 444 665 482 646 q 349 683 407 683 q 242 660 294 683 q 149 591 189 636 q 83 481 108 546 q 58 333 58 415 q 79 187 58 251 q 138 77 100 122 q 228 8 175 32 q 349 -17 282 -17 q 444 6 396 -17 q 528 64 492 28 l 533 64 l 550 0 l 744 0 l 744 765 l 833 772 "},"è":{"ha":833,"x_min":69,"x_max":764,"o":"m 69 347 q 99 193 69 261 q 181 78 129 125 q 305 8 233 32 q 458 -17 376 -17 q 599 3 524 -17 q 736 64 674 24 l 658 206 q 573 174 613 185 q 492 164 533 164 q 431 169 460 164 q 377 188 401 175 q 336 222 353 200 q 314 275 319 243 l 754 275 q 760 315 757 288 q 764 375 764 343 q 743 506 764 444 q 681 613 722 567 q 577 685 639 658 q 433 711 515 711 q 298 686 364 711 q 181 615 232 661 q 100 500 131 568 q 69 347 69 432 m 547 431 l 311 431 q 359 508 324 485 q 439 531 394 531 q 524 501 500 531 q 547 431 547 472 m 192 1039 l 383 797 l 556 797 l 433 1039 l 192 1039 "},"é":{"ha":833,"x_min":69,"x_max":764,"o":"m 69 347 q 99 193 69 261 q 181 78 129 125 q 305 8 233 32 q 458 -17 376 -17 q 599 3 524 -17 q 736 64 674 24 l 658 206 q 573 174 613 185 q 492 164 533 164 q 431 169 460 164 q 377 188 401 175 q 336 222 353 200 q 314 275 319 243 l 754 275 q 760 315 757 288 q 764 375 764 343 q 743 506 764 444 q 681 613 722 567 q 577 685 639 658 q 433 711 515 711 q 298 686 364 711 q 181 615 232 661 q 100 500 131 568 q 69 347 69 432 m 547 431 l 311 431 q 359 508 324 485 q 439 531 394 531 q 524 501 500 531 q 547 431 547 472 m 483 797 l 675 1039 l 433 1039 l 311 797 l 483 797 "},"ê":{"ha":833,"x_min":69,"x_max":764,"o":"m 69 347 q 99 193 69 261 q 181 78 129 125 q 305 8 233 32 q 458 -17 376 -17 q 599 3 524 -17 q 736 64 674 24 l 658 206 q 573 174 613 185 q 492 164 533 164 q 431 169 460 164 q 377 188 401 175 q 336 222 353 200 q 314 275 319 243 l 754 275 q 760 315 757 288 q 764 375 764 343 q 743 506 764 444 q 681 613 722 567 q 577 685 639 658 q 433 711 515 711 q 298 686 364 711 q 181 615 232 661 q 100 500 131 568 q 69 347 69 432 m 547 431 l 311 431 q 359 508 324 485 q 439 531 394 531 q 524 501 500 531 q 547 431 547 472 m 333 1039 l 192 797 l 364 797 l 431 928 l 436 928 l 503 797 l 675 797 l 533 1039 l 333 1039 "},"ě":{"ha":833,"x_min":69,"x_max":764,"o":"m 69 347 q 99 193 69 261 q 181 78 129 125 q 305 8 233 32 q 458 -17 376 -17 q 599 3 524 -17 q 736 64 674 24 l 658 206 q 573 174 613 185 q 492 164 533 164 q 431 169 460 164 q 377 188 401 175 q 336 222 353 200 q 314 275 319 243 l 754 275 q 760 315 757 288 q 764 375 764 343 q 743 506 764 444 q 681 613 722 567 q 577 685 639 658 q 433 711 515 711 q 298 686 364 711 q 181 615 232 661 q 100 500 131 568 q 69 347 69 432 m 547 431 l 311 431 q 359 508 324 485 q 439 531 394 531 q 524 501 500 531 q 547 431 547 472 m 192 1039 l 333 797 l 533 797 l 675 1039 l 503 1039 l 436 908 l 431 908 l 364 1039 l 192 1039 "},"ë":{"ha":833,"x_min":69,"x_max":764,"o":"m 69 347 q 99 193 69 261 q 181 78 129 125 q 305 8 233 32 q 458 -17 376 -17 q 599 3 524 -17 q 736 64 674 24 l 658 206 q 573 174 613 185 q 492 164 533 164 q 431 169 460 164 q 377 188 401 175 q 336 222 353 200 q 314 275 319 243 l 754 275 q 760 315 757 288 q 764 375 764 343 q 743 506 764 444 q 681 613 722 567 q 577 685 639 658 q 433 711 515 711 q 298 686 364 711 q 181 615 232 661 q 100 500 131 568 q 69 347 69 432 m 547 431 l 311 431 q 359 508 324 485 q 439 531 394 531 q 524 501 500 531 q 547 431 547 472 m 274 783 q 362 818 328 783 q 396 906 396 853 q 362 993 396 958 q 274 1028 328 1028 q 185 993 219 1028 q 151 906 151 958 q 185 818 151 853 q 274 783 219 783 m 590 783 q 678 818 644 783 q 713 906 713 853 q 678 993 713 958 q 590 1028 644 1028 q 502 993 536 1028 q 468 906 468 958 q 502 818 468 853 q 590 783 536 783 "},"ē":{"ha":833,"x_min":69,"x_max":764,"o":"m 69 347 q 99 193 69 261 q 181 78 129 125 q 305 8 233 32 q 458 -17 376 -17 q 599 3 524 -17 q 736 64 674 24 l 658 206 q 573 174 613 185 q 492 164 533 164 q 431 169 460 164 q 377 188 401 175 q 336 222 353 200 q 314 275 319 243 l 754 275 q 760 315 757 288 q 764 375 764 343 q 743 506 764 444 q 681 613 722 567 q 577 685 639 658 q 433 711 515 711 q 298 686 364 711 q 181 615 232 661 q 100 500 131 568 q 69 347 69 432 m 547 431 l 311 431 q 359 508 324 485 q 439 531 394 531 q 524 501 500 531 q 547 431 547 472 m 233 967 l 233 817 l 633 817 l 633 967 l 233 967 "},"ĕ":{"ha":833,"x_min":69,"x_max":764,"o":"m 69 347 q 99 193 69 261 q 181 78 129 125 q 305 8 233 32 q 458 -17 376 -17 q 599 3 524 -17 q 736 64 674 24 l 658 206 q 573 174 613 185 q 492 164 533 164 q 431 169 460 164 q 377 188 401 175 q 336 222 353 200 q 314 275 319 243 l 754 275 q 760 315 757 288 q 764 375 764 343 q 743 506 764 444 q 681 613 722 567 q 577 685 639 658 q 433 711 515 711 q 298 686 364 711 q 181 615 232 661 q 100 500 131 568 q 69 347 69 432 m 547 431 l 311 431 q 359 508 324 485 q 439 531 394 531 q 524 501 500 531 q 547 431 547 472 m 433 797 q 527 815 488 797 q 593 865 567 833 q 633 938 619 896 q 647 1025 646 979 l 517 1025 q 492 953 511 981 q 433 925 472 925 q 375 953 394 925 q 350 1025 356 981 l 219 1025 q 234 938 221 979 q 274 865 247 896 q 340 815 300 833 q 433 797 379 797 "},"ė":{"ha":833,"x_min":69,"x_max":764,"o":"m 69 347 q 99 193 69 261 q 181 78 129 125 q 305 8 233 32 q 458 -17 376 -17 q 599 3 524 -17 q 736 64 674 24 l 658 206 q 573 174 613 185 q 492 164 533 164 q 431 169 460 164 q 377 188 401 175 q 336 222 353 200 q 314 275 319 243 l 754 275 q 760 315 757 288 q 764 375 764 343 q 743 506 764 444 q 681 613 722 567 q 577 685 639 658 q 433 711 515 711 q 298 686 364 711 q 181 615 232 661 q 100 500 131 568 q 69 347 69 432 m 547 431 l 311 431 q 359 508 324 485 q 439 531 394 531 q 524 501 500 531 q 547 431 547 472 m 433 781 q 543 819 500 781 q 586 919 586 857 q 543 1022 586 982 q 433 1061 500 1061 q 324 1022 367 1061 q 281 919 281 982 q 324 819 281 857 q 433 781 367 781 "},"ẹ":{"ha":833,"x_min":69,"x_max":764,"o":"m 69 347 q 99 193 69 261 q 181 78 129 125 q 305 8 233 32 q 458 -17 376 -17 q 599 3 524 -17 q 736 64 674 24 l 658 206 q 573 174 613 185 q 492 164 533 164 q 431 169 460 164 q 377 188 401 175 q 336 222 353 200 q 314 275 319 243 l 754 275 q 760 315 757 288 q 764 375 764 343 q 743 506 764 444 q 681 613 722 567 q 577 685 639 658 q 433 711 515 711 q 298 686 364 711 q 181 615 232 661 q 100 500 131 568 q 69 347 69 432 m 547 431 l 311 431 q 359 508 324 485 q 439 531 394 531 q 524 501 500 531 q 547 431 547 472 m 433 -367 q 543 -328 500 -367 q 586 -228 586 -290 q 543 -126 586 -165 q 433 -86 500 -86 q 324 -126 367 -86 q 281 -228 281 -165 q 324 -328 281 -290 q 433 -367 367 -367 "},"ẻ":{"ha":833,"x_min":69,"x_max":764,"o":"m 69 347 q 99 193 69 261 q 181 78 129 125 q 305 8 233 32 q 458 -17 376 -17 q 599 3 524 -17 q 736 64 674 24 l 658 206 q 573 174 613 185 q 492 164 533 164 q 431 169 460 164 q 377 188 401 175 q 336 222 353 200 q 314 275 319 243 l 754 275 q 760 315 757 288 q 764 375 764 343 q 743 506 764 444 q 681 613 722 567 q 577 685 639 658 q 433 711 515 711 q 298 686 364 711 q 181 615 232 661 q 100 500 131 568 q 69 347 69 432 m 547 431 l 311 431 q 359 508 324 485 q 439 531 394 531 q 524 501 500 531 q 547 431 547 472 m 364 867 l 381 775 q 461 786 424 776 q 527 815 499 796 q 572 860 556 833 q 589 925 589 888 q 577 976 589 953 q 536 1017 565 1000 q 459 1045 507 1035 q 339 1058 411 1056 l 311 942 q 396 927 372 938 q 419 900 419 917 q 403 876 419 883 q 364 867 388 869 "},"ẽ":{"ha":833,"x_min":69,"x_max":764,"o":"m 69 347 q 99 193 69 261 q 181 78 129 125 q 305 8 233 32 q 458 -17 376 -17 q 599 3 524 -17 q 736 64 674 24 l 658 206 q 573 174 613 185 q 492 164 533 164 q 431 169 460 164 q 377 188 401 175 q 336 222 353 200 q 314 275 319 243 l 754 275 q 760 315 757 288 q 764 375 764 343 q 743 506 764 444 q 681 613 722 567 q 577 685 639 658 q 433 711 515 711 q 298 686 364 711 q 181 615 232 661 q 100 500 131 568 q 69 347 69 432 m 547 431 l 311 431 q 359 508 324 485 q 439 531 394 531 q 524 501 500 531 q 547 431 547 472 m 181 797 l 181 797 l 300 797 q 325 854 311 839 q 361 869 339 869 q 390 858 375 869 q 422 833 404 847 q 461 808 440 819 q 508 797 482 797 q 623 849 575 797 q 686 1014 671 900 l 567 1014 q 542 957 556 972 q 506 942 528 942 q 476 953 492 942 q 444 978 461 964 q 405 1003 426 992 q 358 1014 383 1014 q 244 963 292 1014 q 181 797 196 911 "},"ế":{"ha":833,"x_min":69,"x_max":856,"o":"m 69 347 q 99 193 69 261 q 181 78 129 125 q 305 8 233 32 q 458 -17 376 -17 q 599 3 524 -17 q 736 64 674 24 l 658 206 q 573 174 613 185 q 492 164 533 164 q 431 169 460 164 q 377 188 401 175 q 336 222 353 200 q 314 275 319 243 l 754 275 q 760 315 757 288 q 764 375 764 343 q 743 506 764 444 q 681 613 722 567 q 577 685 639 658 q 433 711 515 711 q 298 686 364 711 q 181 615 232 661 q 100 500 131 568 q 69 347 69 432 m 547 431 l 311 431 q 359 508 324 485 q 439 531 394 531 q 524 501 500 531 q 547 431 547 472 m 339 981 l 228 797 l 372 797 l 431 883 l 436 883 l 494 797 l 639 797 l 528 981 l 339 981 m 683 1067 l 592 900 l 722 900 l 856 1067 l 683 1067 "},"ề":{"ha":833,"x_min":69,"x_max":806,"o":"m 69 347 q 99 193 69 261 q 181 78 129 125 q 305 8 233 32 q 458 -17 376 -17 q 599 3 524 -17 q 736 64 674 24 l 658 206 q 573 174 613 185 q 492 164 533 164 q 431 169 460 164 q 377 188 401 175 q 336 222 353 200 q 314 275 319 243 l 754 275 q 760 315 757 288 q 764 375 764 343 q 743 506 764 444 q 681 613 722 567 q 577 685 639 658 q 433 711 515 711 q 298 686 364 711 q 181 615 232 661 q 100 500 131 568 q 69 347 69 432 m 547 431 l 311 431 q 359 508 324 485 q 439 531 394 531 q 524 501 500 531 q 547 431 547 472 m 339 981 l 228 797 l 372 797 l 431 883 l 436 883 l 494 797 l 639 797 l 528 981 l 339 981 m 806 900 l 714 1067 l 542 1067 l 675 900 l 806 900 "},"ể":{"ha":833,"x_min":69,"x_max":811,"o":"m 69 347 q 99 193 69 261 q 181 78 129 125 q 305 8 233 32 q 458 -17 376 -17 q 599 3 524 -17 q 736 64 674 24 l 658 206 q 573 174 613 185 q 492 164 533 164 q 431 169 460 164 q 377 188 401 175 q 336 222 353 200 q 314 275 319 243 l 754 275 q 760 315 757 288 q 764 375 764 343 q 743 506 764 444 q 681 613 722 567 q 577 685 639 658 q 433 711 515 711 q 298 686 364 711 q 181 615 232 661 q 100 500 131 568 q 69 347 69 432 m 547 431 l 311 431 q 359 508 324 485 q 439 531 394 531 q 524 501 500 531 q 547 431 547 472 m 339 981 l 228 797 l 372 797 l 431 883 l 436 883 l 494 797 l 639 797 l 528 981 l 339 981 m 622 950 l 636 872 q 704 885 672 876 q 760 908 736 893 q 797 948 783 924 q 811 1008 811 972 q 801 1052 811 1032 q 765 1087 790 1072 q 698 1110 740 1101 q 592 1122 656 1119 l 569 1025 q 640 1010 622 1021 q 658 983 658 1000 q 649 960 658 967 q 622 950 639 953 "},"ễ":{"ha":833,"x_min":69,"x_max":764,"o":"m 69 347 q 99 193 69 261 q 181 78 129 125 q 305 8 233 32 q 458 -17 376 -17 q 599 3 524 -17 q 736 64 674 24 l 658 206 q 573 174 613 185 q 492 164 533 164 q 431 169 460 164 q 377 188 401 175 q 336 222 353 200 q 314 275 319 243 l 754 275 q 760 315 757 288 q 764 375 764 343 q 743 506 764 444 q 681 613 722 567 q 577 685 639 658 q 433 711 515 711 q 298 686 364 711 q 181 615 232 661 q 100 500 131 568 q 69 347 69 432 m 547 431 l 311 431 q 359 508 324 485 q 439 531 394 531 q 524 501 500 531 q 547 431 547 472 m 325 956 l 217 797 l 369 797 l 431 875 l 436 875 l 497 797 l 650 797 l 542 956 l 325 956 m 222 1006 l 322 1006 q 341 1044 329 1033 q 369 1056 353 1056 q 397 1048 383 1056 q 426 1031 410 1040 q 463 1013 442 1021 q 511 1006 483 1006 q 595 1044 557 1006 q 644 1175 633 1083 l 544 1175 q 526 1136 538 1147 q 497 1125 514 1125 q 470 1133 483 1125 q 441 1150 457 1140 q 404 1167 425 1160 q 356 1175 383 1175 q 272 1136 310 1175 q 222 1006 233 1097 "},"ệ":{"ha":833,"x_min":69,"x_max":764,"o":"m 69 347 q 99 193 69 261 q 181 78 129 125 q 305 8 233 32 q 458 -17 376 -17 q 599 3 524 -17 q 736 64 674 24 l 658 206 q 573 174 613 185 q 492 164 533 164 q 431 169 460 164 q 377 188 401 175 q 336 222 353 200 q 314 275 319 243 l 754 275 q 760 315 757 288 q 764 375 764 343 q 743 506 764 444 q 681 613 722 567 q 577 685 639 658 q 433 711 515 711 q 298 686 364 711 q 181 615 232 661 q 100 500 131 568 q 69 347 69 432 m 547 431 l 311 431 q 359 508 324 485 q 439 531 394 531 q 524 501 500 531 q 547 431 547 472 m 333 1039 l 192 797 l 364 797 l 431 928 l 436 928 l 503 797 l 675 797 l 533 1039 l 333 1039 m 433 -367 q 543 -328 500 -367 q 586 -228 586 -290 q 543 -126 586 -165 q 433 -86 500 -86 q 324 -126 367 -86 q 281 -228 281 -165 q 324 -328 281 -290 q 433 -367 367 -367 "},"ę":{"ha":833,"x_min":69,"x_max":764,"o":"m 736 64 l 658 206 q 573 174 613 185 q 492 164 533 164 q 431 169 460 164 q 377 188 401 175 q 336 222 353 200 q 314 275 319 243 l 754 275 q 760 315 757 288 q 764 375 764 343 q 743 506 764 444 q 681 613 722 567 q 577 685 639 658 q 433 711 515 711 q 298 686 364 711 q 181 615 232 661 q 100 500 131 568 q 69 347 69 432 q 99 193 69 261 q 181 78 129 125 q 305 8 233 32 q 458 -17 376 -17 q 479 -17 469 -17 q 508 -14 489 -17 q 458 -76 482 -37 q 433 -164 433 -114 q 477 -262 433 -229 q 586 -294 521 -294 q 666 -281 622 -294 q 739 -244 710 -268 l 692 -139 q 670 -151 682 -146 q 646 -156 658 -156 q 606 -144 622 -156 q 589 -108 589 -132 q 594 -71 589 -89 q 617 -33 600 -53 q 662 9 633 -14 q 736 64 690 32 m 547 431 l 311 431 q 359 508 324 485 q 439 531 394 531 q 524 501 500 531 q 547 431 547 472 "},"ĝ":{"ha":833,"x_min":61,"x_max":799,"o":"m 254 -75 q 263 -49 254 -60 q 289 -25 271 -37 q 331 -31 307 -29 q 394 -33 354 -33 l 464 -33 q 544 -40 517 -33 q 572 -75 572 -47 q 527 -122 572 -104 q 411 -139 482 -139 q 297 -124 340 -139 q 254 -75 254 -108 m 61 -114 q 85 -194 61 -161 q 153 -247 110 -226 q 252 -277 196 -268 q 374 -286 308 -286 q 549 -268 471 -286 q 683 -217 628 -250 q 769 -137 739 -183 q 799 -33 799 -90 q 724 105 799 63 q 510 147 649 147 l 392 147 q 308 156 333 147 q 283 189 283 165 q 288 212 283 204 q 306 229 293 219 q 393 219 353 219 q 509 233 456 219 q 602 274 563 246 q 664 345 642 301 q 686 450 686 389 q 680 490 686 471 q 667 522 674 510 l 792 522 l 792 694 l 511 694 q 393 711 458 711 q 277 696 332 711 q 179 649 222 681 q 111 570 136 618 q 86 458 86 522 q 113 351 86 397 q 181 281 140 306 l 181 275 q 121 215 144 250 q 97 144 97 181 q 117 72 97 100 q 167 25 138 44 l 167 19 q 61 -114 61 -31 m 393 361 q 334 385 358 361 q 310 458 310 408 q 334 530 310 507 q 393 553 358 553 q 453 530 428 553 q 478 458 478 507 q 453 385 478 408 q 393 361 428 361 m 321 1039 l 179 797 l 351 797 l 418 928 l 424 928 l 490 797 l 663 797 l 521 1039 l 321 1039 "},"ğ":{"ha":833,"x_min":61,"x_max":799,"o":"m 254 -75 q 263 -49 254 -60 q 289 -25 271 -37 q 331 -31 307 -29 q 394 -33 354 -33 l 464 -33 q 544 -40 517 -33 q 572 -75 572 -47 q 527 -122 572 -104 q 411 -139 482 -139 q 297 -124 340 -139 q 254 -75 254 -108 m 61 -114 q 85 -194 61 -161 q 153 -247 110 -226 q 252 -277 196 -268 q 374 -286 308 -286 q 549 -268 471 -286 q 683 -217 628 -250 q 769 -137 739 -183 q 799 -33 799 -90 q 724 105 799 63 q 510 147 649 147 l 392 147 q 308 156 333 147 q 283 189 283 165 q 288 212 283 204 q 306 229 293 219 q 393 219 353 219 q 509 233 456 219 q 602 274 563 246 q 664 345 642 301 q 686 450 686 389 q 680 490 686 471 q 667 522 674 510 l 792 522 l 792 694 l 511 694 q 393 711 458 711 q 277 696 332 711 q 179 649 222 681 q 111 570 136 618 q 86 458 86 522 q 113 351 86 397 q 181 281 140 306 l 181 275 q 121 215 144 250 q 97 144 97 181 q 117 72 97 100 q 167 25 138 44 l 167 19 q 61 -114 61 -31 m 393 361 q 334 385 358 361 q 310 458 310 408 q 334 530 310 507 q 393 553 358 553 q 453 530 428 553 q 478 458 478 507 q 453 385 478 408 q 393 361 428 361 m 421 797 q 515 815 475 797 q 581 865 554 833 q 620 938 607 896 q 635 1025 633 979 l 504 1025 q 479 953 499 981 q 421 925 460 925 q 363 953 382 925 q 338 1025 343 981 l 207 1025 q 222 938 208 979 q 261 865 235 896 q 327 815 288 833 q 421 797 367 797 "},"ġ":{"ha":833,"x_min":61,"x_max":799,"o":"m 254 -75 q 263 -49 254 -60 q 289 -25 271 -37 q 331 -31 307 -29 q 394 -33 354 -33 l 464 -33 q 544 -40 517 -33 q 572 -75 572 -47 q 527 -122 572 -104 q 411 -139 482 -139 q 297 -124 340 -139 q 254 -75 254 -108 m 61 -114 q 85 -194 61 -161 q 153 -247 110 -226 q 252 -277 196 -268 q 374 -286 308 -286 q 549 -268 471 -286 q 683 -217 628 -250 q 769 -137 739 -183 q 799 -33 799 -90 q 724 105 799 63 q 510 147 649 147 l 392 147 q 308 156 333 147 q 283 189 283 165 q 288 212 283 204 q 306 229 293 219 q 393 219 353 219 q 509 233 456 219 q 602 274 563 246 q 664 345 642 301 q 686 450 686 389 q 680 490 686 471 q 667 522 674 510 l 792 522 l 792 694 l 511 694 q 393 711 458 711 q 277 696 332 711 q 179 649 222 681 q 111 570 136 618 q 86 458 86 522 q 113 351 86 397 q 181 281 140 306 l 181 275 q 121 215 144 250 q 97 144 97 181 q 117 72 97 100 q 167 25 138 44 l 167 19 q 61 -114 61 -31 m 393 361 q 334 385 358 361 q 310 458 310 408 q 334 530 310 507 q 393 553 358 553 q 453 530 428 553 q 478 458 478 507 q 453 385 478 408 q 393 361 428 361 m 421 781 q 531 819 488 781 q 574 919 574 857 q 531 1022 574 982 q 421 1061 488 1061 q 311 1022 354 1061 q 268 919 268 982 q 311 819 268 857 q 421 781 354 781 "},"ģ":{"ha":833,"x_min":61,"x_max":799,"o":"m 254 -75 q 263 -49 254 -60 q 289 -25 271 -37 q 331 -31 307 -29 q 394 -33 354 -33 l 464 -33 q 544 -40 517 -33 q 572 -75 572 -47 q 527 -122 572 -104 q 411 -139 482 -139 q 297 -124 340 -139 q 254 -75 254 -108 m 61 -114 q 85 -194 61 -161 q 153 -247 110 -226 q 252 -277 196 -268 q 374 -286 308 -286 q 549 -268 471 -286 q 683 -217 628 -250 q 769 -137 739 -183 q 799 -33 799 -90 q 724 105 799 63 q 510 147 649 147 l 392 147 q 308 156 333 147 q 283 189 283 165 q 288 212 283 204 q 306 229 293 219 q 393 219 353 219 q 509 233 456 219 q 602 274 563 246 q 664 345 642 301 q 686 450 686 389 q 680 490 686 471 q 667 522 674 510 l 792 522 l 792 694 l 511 694 q 393 711 458 711 q 277 696 332 711 q 179 649 222 681 q 111 570 136 618 q 86 458 86 522 q 113 351 86 397 q 181 281 140 306 l 181 275 q 121 215 144 250 q 97 144 97 181 q 117 72 97 100 q 167 25 138 44 l 167 19 q 61 -114 61 -31 m 393 361 q 334 385 358 361 q 310 458 310 408 q 334 530 310 507 q 393 553 358 553 q 453 530 428 553 q 478 458 478 507 q 453 385 478 408 q 393 361 428 361 m 474 758 l 474 758 l 518 842 q 474 861 486 850 q 463 889 463 872 q 494 922 463 913 q 574 936 525 932 l 557 1028 q 456 1016 504 1025 q 372 988 408 1007 q 315 942 336 969 q 293 878 293 915 q 302 830 293 850 q 332 795 311 810 q 388 772 353 781 q 474 758 422 763 "},"ǧ":{"ha":833,"x_min":61,"x_max":799,"o":"m 254 -75 q 263 -49 254 -60 q 289 -25 271 -37 q 331 -31 307 -29 q 394 -33 354 -33 l 464 -33 q 544 -40 517 -33 q 572 -75 572 -47 q 527 -122 572 -104 q 411 -139 482 -139 q 297 -124 340 -139 q 254 -75 254 -108 m 61 -114 q 85 -194 61 -161 q 153 -247 110 -226 q 252 -277 196 -268 q 374 -286 308 -286 q 549 -268 471 -286 q 683 -217 628 -250 q 769 -137 739 -183 q 799 -33 799 -90 q 724 105 799 63 q 510 147 649 147 l 392 147 q 308 156 333 147 q 283 189 283 165 q 288 212 283 204 q 306 229 293 219 q 393 219 353 219 q 509 233 456 219 q 602 274 563 246 q 664 345 642 301 q 686 450 686 389 q 680 490 686 471 q 667 522 674 510 l 792 522 l 792 694 l 511 694 q 393 711 458 711 q 277 696 332 711 q 179 649 222 681 q 111 570 136 618 q 86 458 86 522 q 113 351 86 397 q 181 281 140 306 l 181 275 q 121 215 144 250 q 97 144 97 181 q 117 72 97 100 q 167 25 138 44 l 167 19 q 61 -114 61 -31 m 393 361 q 334 385 358 361 q 310 458 310 408 q 334 530 310 507 q 393 553 358 553 q 453 530 428 553 q 478 458 478 507 q 453 385 478 408 q 393 361 428 361 m 179 1039 l 321 797 l 521 797 l 663 1039 l 490 1039 l 424 908 l 418 908 l 351 1039 l 179 1039 "},"ḡ":{"ha":833,"x_min":61,"x_max":799,"o":"m 254 -75 q 263 -49 254 -60 q 289 -25 271 -37 q 331 -31 307 -29 q 394 -33 354 -33 l 464 -33 q 544 -40 517 -33 q 572 -75 572 -47 q 527 -122 572 -104 q 411 -139 482 -139 q 297 -124 340 -139 q 254 -75 254 -108 m 61 -114 q 85 -194 61 -161 q 153 -247 110 -226 q 252 -277 196 -268 q 374 -286 308 -286 q 549 -268 471 -286 q 683 -217 628 -250 q 769 -137 739 -183 q 799 -33 799 -90 q 724 105 799 63 q 510 147 649 147 l 392 147 q 308 156 333 147 q 283 189 283 165 q 288 212 283 204 q 306 229 293 219 q 393 219 353 219 q 509 233 456 219 q 602 274 563 246 q 664 345 642 301 q 686 450 686 389 q 680 490 686 471 q 667 522 674 510 l 792 522 l 792 694 l 511 694 q 393 711 458 711 q 277 696 332 711 q 179 649 222 681 q 111 570 136 618 q 86 458 86 522 q 113 351 86 397 q 181 281 140 306 l 181 275 q 121 215 144 250 q 97 144 97 181 q 117 72 97 100 q 167 25 138 44 l 167 19 q 61 -114 61 -31 m 393 361 q 334 385 358 361 q 310 458 310 408 q 334 530 310 507 q 393 553 358 553 q 453 530 428 553 q 478 458 478 507 q 453 385 478 408 q 393 361 428 361 m 221 967 l 221 817 l 621 817 l 621 967 l 221 967 "},"ĥ":{"ha":833,"x_min":-39,"x_max":758,"o":"m 89 967 l 89 0 l 328 0 l 328 456 q 381 494 356 481 q 439 508 406 508 q 502 482 485 508 q 519 397 519 456 l 519 0 l 758 0 l 758 428 q 706 634 758 557 q 539 711 653 711 q 406 682 461 711 q 315 619 350 653 l 328 742 l 328 967 l 89 967 m -39 1042 l 142 1042 l 208 1122 l 214 1122 l 281 1042 l 461 1042 l 328 1214 l 94 1214 l -39 1042 "},"ḥ":{"ha":833,"x_min":89,"x_max":758,"o":"m 89 967 l 89 0 l 328 0 l 328 456 q 381 494 356 481 q 439 508 406 508 q 502 482 485 508 q 519 397 519 456 l 519 0 l 758 0 l 758 428 q 706 634 758 557 q 539 711 653 711 q 406 682 461 711 q 315 619 350 653 l 328 742 l 328 967 l 89 967 m 424 -367 q 533 -328 490 -367 q 576 -228 576 -290 q 533 -126 576 -165 q 424 -86 490 -86 q 314 -126 357 -86 q 271 -228 271 -165 q 314 -328 271 -290 q 424 -367 357 -367 "},"ḫ":{"ha":833,"x_min":89,"x_max":758,"o":"m 89 967 l 89 0 l 328 0 l 328 456 q 381 494 356 481 q 439 508 406 508 q 502 482 485 508 q 519 397 519 456 l 519 0 l 758 0 l 758 428 q 706 634 758 557 q 539 711 653 711 q 406 682 461 711 q 315 619 350 653 l 328 742 l 328 967 l 89 967 m 424 -294 q 510 -278 474 -294 q 572 -235 547 -262 q 610 -172 597 -208 q 624 -94 622 -135 l 493 -94 q 472 -147 489 -126 q 424 -167 456 -167 q 375 -147 392 -167 q 354 -94 358 -126 l 224 -94 q 238 -172 225 -135 q 275 -235 250 -208 q 337 -278 300 -262 q 424 -294 374 -294 "},"ħ":{"ha":833,"x_min":0,"x_max":758,"o":"m 315 592 l 328 714 l 328 764 l 564 764 l 564 875 l 328 875 l 328 967 l 89 967 l 89 874 l 0 867 l 0 764 l 89 764 l 89 0 l 328 0 l 328 428 q 381 467 356 453 q 439 481 406 481 q 502 454 485 481 q 519 369 519 428 l 519 0 l 758 0 l 758 400 q 706 606 758 529 q 539 683 653 683 q 406 654 461 683 q 315 592 350 625 "},"ì":{"ha":833,"x_min":103,"x_max":606,"o":"m 103 694 l 103 508 l 367 508 l 367 0 l 606 0 l 606 694 l 103 694 m 236 1039 l 428 797 l 600 797 l 478 1039 l 236 1039 "},"í":{"ha":833,"x_min":103,"x_max":719,"o":"m 103 694 l 103 508 l 367 508 l 367 0 l 606 0 l 606 694 l 103 694 m 528 797 l 719 1039 l 478 1039 l 356 797 l 528 797 "},"î":{"ha":833,"x_min":103,"x_max":719,"o":"m 103 694 l 103 508 l 367 508 l 367 0 l 606 0 l 606 694 l 103 694 m 378 1039 l 236 797 l 408 797 l 475 928 l 481 928 l 547 797 l 719 797 l 578 1039 l 378 1039 "},"ĩ":{"ha":833,"x_min":103,"x_max":731,"o":"m 103 694 l 103 508 l 367 508 l 367 0 l 606 0 l 606 694 l 103 694 m 225 797 l 225 797 l 344 797 q 369 854 356 839 q 406 869 383 869 q 434 858 419 869 q 467 833 449 847 q 506 808 485 819 q 553 797 526 797 q 667 849 619 797 q 731 1014 715 900 l 611 1014 q 586 957 600 972 q 550 942 572 942 q 521 953 536 942 q 488 978 506 964 q 449 1003 471 992 q 403 1014 428 1014 q 288 963 336 1014 q 225 797 240 911 "},"ï":{"ha":833,"x_min":103,"x_max":758,"o":"m 103 694 l 103 508 l 367 508 l 367 0 l 606 0 l 606 694 l 103 694 m 319 783 q 408 818 374 783 q 442 906 442 853 q 408 993 442 958 q 319 1028 374 1028 q 231 993 265 1028 q 197 906 197 958 q 231 818 197 853 q 319 783 265 783 m 636 783 q 724 818 690 783 q 758 906 758 853 q 724 993 758 958 q 636 1028 690 1028 q 548 993 582 1028 q 514 906 514 958 q 548 818 514 853 q 636 783 582 783 "},"ī":{"ha":833,"x_min":103,"x_max":678,"o":"m 103 694 l 103 508 l 367 508 l 367 0 l 606 0 l 606 694 l 103 694 m 278 967 l 278 817 l 678 817 l 678 967 l 278 967 "},"ĭ":{"ha":833,"x_min":103,"x_max":692,"o":"m 103 694 l 103 508 l 367 508 l 367 0 l 606 0 l 606 694 l 103 694 m 478 797 q 572 815 532 797 q 638 865 611 833 q 677 938 664 896 q 692 1025 690 979 l 561 1025 q 536 953 556 981 q 478 925 517 925 q 419 953 439 925 q 394 1025 400 981 l 264 1025 q 278 938 265 979 q 318 865 292 896 q 384 815 344 833 q 478 797 424 797 "},"ǐ":{"ha":833,"x_min":103,"x_max":719,"o":"m 103 694 l 103 508 l 367 508 l 367 0 l 606 0 l 606 694 l 103 694 m 236 1039 l 378 797 l 578 797 l 719 1039 l 547 1039 l 481 908 l 475 908 l 408 1039 l 236 1039 "},"ỉ":{"ha":833,"x_min":103,"x_max":633,"o":"m 103 694 l 103 508 l 367 508 l 367 0 l 606 0 l 606 694 l 103 694 m 408 867 l 425 775 q 506 786 468 776 q 572 815 543 796 q 617 860 600 833 q 633 925 633 888 q 622 976 633 953 q 581 1017 610 1000 q 503 1045 551 1035 q 383 1058 456 1056 l 356 942 q 440 927 417 938 q 464 900 464 917 q 448 876 464 883 q 408 867 432 869 "},"ị":{"ha":833,"x_min":103,"x_max":631,"o":"m 103 694 l 103 508 l 367 508 l 367 0 l 606 0 l 606 694 l 103 694 m 478 781 q 588 819 544 781 q 631 919 631 857 q 588 1022 631 982 q 478 1061 544 1061 q 368 1022 411 1061 q 325 919 325 982 q 368 819 325 857 q 478 781 411 781 m 478 -367 q 588 -328 544 -367 q 631 -228 631 -290 q 588 -126 631 -165 q 478 -86 544 -86 q 368 -126 411 -86 q 325 -228 325 -165 q 368 -328 325 -290 q 478 -367 411 -367 "},"į":{"ha":833,"x_min":103,"x_max":653,"o":"m 367 508 l 367 0 l 436 0 q 408 -24 424 -8 q 378 -60 392 -39 q 354 -107 364 -81 q 344 -164 344 -133 q 390 -262 344 -229 q 500 -294 435 -294 q 580 -281 536 -294 q 653 -244 624 -268 l 606 -139 q 583 -151 594 -146 q 560 -156 571 -156 q 519 -144 536 -156 q 503 -108 503 -132 q 524 -48 503 -79 q 606 0 544 -17 l 606 694 l 103 694 l 103 508 l 367 508 m 478 781 q 588 819 544 781 q 631 919 631 857 q 588 1022 631 982 q 478 1061 544 1061 q 368 1022 411 1061 q 325 919 325 982 q 368 819 325 857 q 478 781 411 781 "},"ı":{"ha":833,"x_min":103,"x_max":606,"o":"m 103 694 l 103 508 l 367 508 l 367 0 l 606 0 l 606 694 l 103 694 "},"ĵ":{"ha":833,"x_min":51,"x_max":719,"o":"m 103 694 l 103 508 l 367 508 l 367 56 q 342 -45 367 -15 q 254 -75 318 -75 q 195 -69 226 -75 q 119 -44 164 -64 l 51 -214 q 150 -248 97 -235 q 271 -261 203 -261 q 434 -234 369 -261 q 537 -162 499 -207 q 590 -58 575 -117 q 606 64 606 0 l 606 694 l 103 694 m 378 1039 l 236 797 l 408 797 l 475 928 l 481 928 l 547 797 l 719 797 l 578 1039 l 378 1039 "},"ķ":{"ha":833,"x_min":89,"x_max":819,"o":"m 89 967 l 89 0 l 328 0 l 328 169 l 408 258 l 561 0 l 819 0 l 546 406 l 803 694 l 544 694 l 333 447 l 328 447 l 328 967 l 89 967 m 392 -56 l 392 -56 l 347 -139 q 391 -158 379 -147 q 403 -186 403 -169 q 372 -219 403 -210 q 292 -233 340 -229 l 308 -325 q 409 -314 361 -324 q 493 -285 457 -304 q 551 -240 529 -267 q 572 -175 572 -212 q 533 -92 572 -121 q 392 -56 493 -64 "},"ĸ":{"ha":833,"x_min":89,"x_max":819,"o":"m 89 694 l 89 0 l 328 0 l 328 167 l 410 247 l 561 0 l 819 0 l 546 406 l 803 694 l 544 694 l 333 453 l 328 453 l 328 694 l 89 694 "},"ĺ":{"ha":833,"x_min":75,"x_max":758,"o":"m 75 967 l 75 781 l 264 781 l 264 286 q 281 163 264 218 q 334 67 299 107 q 422 6 369 28 q 543 -17 474 -17 q 604 -14 576 -17 q 657 -7 632 -11 q 706 4 682 -3 q 758 19 731 11 l 707 194 q 607 175 650 175 q 570 180 589 175 q 537 197 551 185 q 513 228 522 208 q 503 278 503 247 l 503 967 l 75 967 m 435 1050 l 604 1222 l 354 1222 l 246 1050 l 435 1050 "},"ľ":{"ha":833,"x_min":75,"x_max":758,"o":"m 75 967 l 75 781 l 264 781 l 264 286 q 281 163 264 218 q 334 67 299 107 q 422 6 369 28 q 543 -17 474 -17 q 604 -14 576 -17 q 657 -7 632 -11 q 706 4 682 -3 q 758 19 731 11 l 707 194 q 607 175 650 175 q 570 180 589 175 q 537 197 551 185 q 513 228 522 208 q 503 278 503 247 l 503 967 l 75 967 m 582 761 l 682 761 l 721 972 l 724 1075 l 574 1075 l 582 761 "},"ŀ":{"ha":833,"x_min":1,"x_max":825,"o":"m 1 967 l 1 781 l 190 781 l 190 286 q 208 163 190 218 q 260 67 225 107 q 348 6 296 28 q 469 -17 400 -17 q 531 -14 503 -17 q 583 -7 558 -11 q 633 4 608 -3 q 685 19 657 11 l 633 194 q 533 175 576 175 q 497 180 515 175 q 463 197 478 185 q 439 228 449 208 q 429 278 429 247 l 429 967 l 1 967 m 672 354 q 782 392 739 354 q 825 493 825 431 q 782 595 825 556 q 672 635 739 635 q 563 595 606 635 q 519 493 519 556 q 563 392 519 431 q 672 354 606 354 "},"ļ":{"ha":833,"x_min":75,"x_max":758,"o":"m 75 967 l 75 781 l 264 781 l 264 286 q 281 163 264 218 q 334 67 299 107 q 422 6 369 28 q 543 -17 474 -17 q 604 -14 576 -17 q 657 -7 632 -11 q 706 4 682 -3 q 758 19 731 11 l 707 194 q 607 175 650 175 q 570 180 589 175 q 537 197 551 185 q 513 228 522 208 q 503 278 503 247 l 503 967 l 75 967 m 444 -56 l 444 -56 l 400 -139 q 444 -158 432 -147 q 456 -186 456 -169 q 424 -219 456 -210 q 344 -233 393 -229 l 361 -325 q 462 -314 414 -324 q 546 -285 510 -304 q 603 -240 582 -267 q 625 -175 625 -212 q 585 -92 625 -121 q 444 -56 546 -64 "},"ḷ":{"ha":833,"x_min":75,"x_max":758,"o":"m 75 967 l 75 781 l 264 781 l 264 286 q 281 163 264 218 q 334 67 299 107 q 422 6 369 28 q 543 -17 474 -17 q 604 -14 576 -17 q 657 -7 632 -11 q 706 4 682 -3 q 758 19 731 11 l 707 194 q 607 175 650 175 q 570 180 589 175 q 537 197 551 185 q 513 228 522 208 q 503 278 503 247 l 503 967 l 75 967 m 497 -367 q 607 -328 564 -367 q 650 -228 650 -290 q 607 -126 650 -165 q 497 -86 564 -86 q 388 -126 431 -86 q 344 -228 344 -165 q 388 -328 344 -290 q 497 -367 431 -367 "},"ḹ":{"ha":833,"x_min":75,"x_max":758,"o":"m 75 967 l 75 781 l 264 781 l 264 286 q 281 163 264 218 q 334 67 299 107 q 422 6 369 28 q 543 -17 474 -17 q 604 -14 576 -17 q 657 -7 632 -11 q 706 4 682 -3 q 758 19 731 11 l 707 194 q 607 175 650 175 q 570 180 589 175 q 537 197 551 185 q 513 228 522 208 q 503 278 503 247 l 503 967 l 75 967 m 171 1256 l 171 1106 l 571 1106 l 571 1256 l 171 1256 m 497 -367 q 607 -328 564 -367 q 650 -228 650 -290 q 607 -126 650 -165 q 497 -86 564 -86 q 388 -126 431 -86 q 344 -228 344 -165 q 388 -328 344 -290 q 497 -367 431 -367 "},"ḻ":{"ha":833,"x_min":75,"x_max":758,"o":"m 75 967 l 75 781 l 264 781 l 264 286 q 281 163 264 218 q 334 67 299 107 q 422 6 369 28 q 543 -17 474 -17 q 604 -14 576 -17 q 657 -7 632 -11 q 706 4 682 -3 q 758 19 731 11 l 707 194 q 607 175 650 175 q 570 180 589 175 q 537 197 551 185 q 513 228 522 208 q 503 278 503 247 l 503 967 l 75 967 m 697 -272 l 697 -122 l 297 -122 l 297 -272 l 697 -272 "},"ł":{"ha":833,"x_min":75,"x_max":758,"o":"m 758 19 l 707 194 q 607 175 650 175 q 570 180 589 175 q 537 197 551 185 q 513 228 522 208 q 503 278 503 247 l 503 471 l 701 578 l 701 767 l 503 660 l 503 967 l 75 967 l 75 781 l 264 781 l 264 543 l 113 458 l 113 269 l 264 354 l 264 286 q 281 163 264 218 q 334 67 299 107 q 422 6 369 28 q 543 -17 474 -17 q 604 -14 576 -17 q 657 -7 632 -11 q 706 4 682 -3 q 758 19 731 11 "},"ṃ":{"ha":833,"x_min":36,"x_max":806,"o":"m 36 694 l 36 0 l 261 0 l 261 456 q 303 508 279 508 q 331 467 331 508 l 331 0 l 511 0 l 511 456 q 557 508 529 508 q 581 467 581 508 l 581 0 l 806 0 l 806 483 q 765 649 806 588 q 650 711 724 711 q 554 678 592 711 q 501 600 517 644 q 459 683 490 654 q 385 711 428 711 q 289 681 322 711 q 238 610 256 650 l 232 610 l 215 694 l 36 694 m 419 -367 q 529 -328 486 -367 q 572 -228 572 -290 q 529 -126 572 -165 q 419 -86 486 -86 q 310 -126 353 -86 q 267 -228 267 -165 q 310 -328 267 -290 q 419 -367 353 -367 "},"ń":{"ha":833,"x_min":89,"x_max":758,"o":"m 89 694 l 89 0 l 328 0 l 328 456 q 381 494 356 481 q 439 508 406 508 q 502 482 485 508 q 519 397 519 456 l 519 0 l 758 0 l 758 428 q 706 634 758 557 q 538 711 653 711 q 404 681 461 711 q 306 611 347 651 l 300 611 l 283 694 l 89 694 m 486 797 l 678 1039 l 436 1039 l 314 797 l 486 797 "},"ň":{"ha":833,"x_min":89,"x_max":758,"o":"m 89 694 l 89 0 l 328 0 l 328 456 q 381 494 356 481 q 439 508 406 508 q 502 482 485 508 q 519 397 519 456 l 519 0 l 758 0 l 758 428 q 706 634 758 557 q 538 711 653 711 q 404 681 461 711 q 306 611 347 651 l 300 611 l 283 694 l 89 694 m 194 1039 l 336 797 l 536 797 l 678 1039 l 506 1039 l 439 908 l 433 908 l 367 1039 l 194 1039 "},"ñ":{"ha":833,"x_min":89,"x_max":758,"o":"m 89 694 l 89 0 l 328 0 l 328 456 q 381 494 356 481 q 439 508 406 508 q 502 482 485 508 q 519 397 519 456 l 519 0 l 758 0 l 758 428 q 706 634 758 557 q 538 711 653 711 q 404 681 461 711 q 306 611 347 651 l 300 611 l 283 694 l 89 694 m 183 797 l 183 797 l 303 797 q 328 854 314 839 q 364 869 342 869 q 392 858 378 869 q 425 833 407 847 q 464 808 443 819 q 511 797 485 797 q 626 849 578 797 q 689 1014 674 900 l 569 1014 q 544 957 558 972 q 508 942 531 942 q 479 953 494 942 q 447 978 464 964 q 408 1003 429 992 q 361 1014 386 1014 q 247 963 294 1014 q 183 797 199 911 "},"ņ":{"ha":833,"x_min":89,"x_max":758,"o":"m 89 694 l 89 0 l 328 0 l 328 456 q 381 494 356 481 q 439 508 406 508 q 502 482 485 508 q 519 397 519 456 l 519 0 l 758 0 l 758 428 q 706 634 758 557 q 538 711 653 711 q 404 681 461 711 q 306 611 347 651 l 300 611 l 283 694 l 89 694 m 369 -56 l 369 -56 l 325 -139 q 369 -158 357 -147 q 381 -186 381 -169 q 349 -219 381 -210 q 269 -233 318 -229 l 286 -325 q 387 -314 339 -324 q 471 -285 435 -304 q 528 -240 507 -267 q 550 -175 550 -212 q 510 -92 550 -121 q 369 -56 471 -64 "},"ṅ":{"ha":833,"x_min":89,"x_max":758,"o":"m 89 694 l 89 0 l 328 0 l 328 456 q 381 494 356 481 q 439 508 406 508 q 502 482 485 508 q 519 397 519 456 l 519 0 l 758 0 l 758 428 q 706 634 758 557 q 538 711 653 711 q 404 681 461 711 q 306 611 347 651 l 300 611 l 283 694 l 89 694 m 436 781 q 546 819 503 781 q 589 919 589 857 q 546 1022 589 982 q 436 1061 503 1061 q 326 1022 369 1061 q 283 919 283 982 q 326 819 283 857 q 436 781 369 781 "},"ṇ":{"ha":833,"x_min":89,"x_max":758,"o":"m 89 694 l 89 0 l 328 0 l 328 456 q 381 494 356 481 q 439 508 406 508 q 502 482 485 508 q 519 397 519 456 l 519 0 l 758 0 l 758 428 q 706 634 758 557 q 538 711 653 711 q 404 681 461 711 q 306 611 347 651 l 300 611 l 283 694 l 89 694 m 422 -367 q 532 -328 489 -367 q 575 -228 575 -290 q 532 -126 575 -165 q 422 -86 489 -86 q 313 -126 356 -86 q 269 -228 269 -165 q 313 -328 269 -290 q 422 -367 356 -367 "},"ṉ":{"ha":833,"x_min":89,"x_max":758,"o":"m 89 694 l 89 0 l 328 0 l 328 456 q 381 494 356 481 q 439 508 406 508 q 502 482 485 508 q 519 397 519 456 l 519 0 l 758 0 l 758 428 q 706 634 758 557 q 538 711 653 711 q 404 681 461 711 q 306 611 347 651 l 300 611 l 283 694 l 89 694 m 622 -272 l 622 -122 l 222 -122 l 222 -272 l 622 -272 "},"ŉ":{"ha":833,"x_min":-79,"x_max":919,"o":"m -76 494 l -17 371 q 180 517 117 429 q 243 724 243 606 q 198 903 243 839 q 65 967 153 967 q -38 926 3 967 q -79 814 -79 885 q -41 714 -79 751 q 58 676 -3 676 q 71 677 65 676 q 83 679 76 678 q 40 571 79 615 q -76 494 0 526 m 528 611 l 522 611 l 506 694 l 311 694 l 311 0 l 550 0 l 550 456 q 587 494 571 481 q 628 508 603 508 q 669 482 657 508 q 681 397 681 456 l 681 0 l 919 0 l 919 428 q 874 634 919 557 q 726 711 828 711 q 613 681 660 711 q 528 611 565 651 "},"ò":{"ha":833,"x_min":58,"x_max":775,"o":"m 58 347 q 88 193 58 261 q 168 78 118 125 q 283 8 218 32 q 417 -17 347 -17 q 549 8 485 -17 q 664 78 614 32 q 744 193 714 125 q 775 347 775 261 q 744 501 775 433 q 664 616 714 569 q 549 687 614 663 q 417 711 485 711 q 283 687 347 711 q 168 616 218 663 q 88 501 118 569 q 58 347 58 433 m 303 347 q 329 473 303 426 q 417 519 356 519 q 504 473 478 519 q 531 347 531 426 q 504 222 531 268 q 417 175 478 175 q 329 222 356 175 q 303 347 303 268 m 175 1039 l 367 797 l 539 797 l 417 1039 l 175 1039 "},"ó":{"ha":833,"x_min":58,"x_max":775,"o":"m 58 347 q 88 193 58 261 q 168 78 118 125 q 283 8 218 32 q 417 -17 347 -17 q 549 8 485 -17 q 664 78 614 32 q 744 193 714 125 q 775 347 775 261 q 744 501 775 433 q 664 616 714 569 q 549 687 614 663 q 417 711 485 711 q 283 687 347 711 q 168 616 218 663 q 88 501 118 569 q 58 347 58 433 m 303 347 q 329 473 303 426 q 417 519 356 519 q 504 473 478 519 q 531 347 531 426 q 504 222 531 268 q 417 175 478 175 q 329 222 356 175 q 303 347 303 268 m 467 797 l 658 1039 l 417 1039 l 294 797 l 467 797 "},"ô":{"ha":833,"x_min":58,"x_max":775,"o":"m 58 347 q 88 193 58 261 q 168 78 118 125 q 283 8 218 32 q 417 -17 347 -17 q 549 8 485 -17 q 664 78 614 32 q 744 193 714 125 q 775 347 775 261 q 744 501 775 433 q 664 616 714 569 q 549 687 614 663 q 417 711 485 711 q 283 687 347 711 q 168 616 218 663 q 88 501 118 569 q 58 347 58 433 m 303 347 q 329 473 303 426 q 417 519 356 519 q 504 473 478 519 q 531 347 531 426 q 504 222 531 268 q 417 175 478 175 q 329 222 356 175 q 303 347 303 268 m 317 1039 l 175 797 l 347 797 l 414 928 l 419 928 l 486 797 l 658 797 l 517 1039 l 317 1039 "},"õ":{"ha":833,"x_min":58,"x_max":775,"o":"m 58 347 q 88 193 58 261 q 168 78 118 125 q 283 8 218 32 q 417 -17 347 -17 q 549 8 485 -17 q 664 78 614 32 q 744 193 714 125 q 775 347 775 261 q 744 501 775 433 q 664 616 714 569 q 549 687 614 663 q 417 711 485 711 q 283 687 347 711 q 168 616 218 663 q 88 501 118 569 q 58 347 58 433 m 303 347 q 329 473 303 426 q 417 519 356 519 q 504 473 478 519 q 531 347 531 426 q 504 222 531 268 q 417 175 478 175 q 329 222 356 175 q 303 347 303 268 m 164 797 l 164 797 l 283 797 q 308 854 294 839 q 344 869 322 869 q 373 858 358 869 q 406 833 388 847 q 444 808 424 819 q 492 797 465 797 q 606 849 558 797 q 669 1014 654 900 l 550 1014 q 525 957 539 972 q 489 942 511 942 q 460 953 475 942 q 427 978 444 964 q 388 1003 410 992 q 342 1014 367 1014 q 227 963 275 1014 q 164 797 179 911 "},"ö":{"ha":833,"x_min":58,"x_max":775,"o":"m 58 347 q 88 193 58 261 q 168 78 118 125 q 283 8 218 32 q 417 -17 347 -17 q 549 8 485 -17 q 664 78 614 32 q 744 193 714 125 q 775 347 775 261 q 744 501 775 433 q 664 616 714 569 q 549 687 614 663 q 417 711 485 711 q 283 687 347 711 q 168 616 218 663 q 88 501 118 569 q 58 347 58 433 m 303 347 q 329 473 303 426 q 417 519 356 519 q 504 473 478 519 q 531 347 531 426 q 504 222 531 268 q 417 175 478 175 q 329 222 356 175 q 303 347 303 268 m 258 783 q 347 818 313 783 q 381 906 381 853 q 347 993 381 958 q 258 1028 313 1028 q 170 993 204 1028 q 136 906 136 958 q 170 818 136 853 q 258 783 204 783 m 575 783 q 663 818 629 783 q 697 906 697 853 q 663 993 697 958 q 575 1028 629 1028 q 487 993 521 1028 q 453 906 453 958 q 487 818 453 853 q 575 783 521 783 "},"ō":{"ha":833,"x_min":58,"x_max":775,"o":"m 58 347 q 88 193 58 261 q 168 78 118 125 q 283 8 218 32 q 417 -17 347 -17 q 549 8 485 -17 q 664 78 614 32 q 744 193 714 125 q 775 347 775 261 q 744 501 775 433 q 664 616 714 569 q 549 687 614 663 q 417 711 485 711 q 283 687 347 711 q 168 616 218 663 q 88 501 118 569 q 58 347 58 433 m 303 347 q 329 473 303 426 q 417 519 356 519 q 504 473 478 519 q 531 347 531 426 q 504 222 531 268 q 417 175 478 175 q 329 222 356 175 q 303 347 303 268 m 217 967 l 217 817 l 617 817 l 617 967 l 217 967 "},"ŏ":{"ha":833,"x_min":58,"x_max":775,"o":"m 58 347 q 88 193 58 261 q 168 78 118 125 q 283 8 218 32 q 417 -17 347 -17 q 549 8 485 -17 q 664 78 614 32 q 744 193 714 125 q 775 347 775 261 q 744 501 775 433 q 664 616 714 569 q 549 687 614 663 q 417 711 485 711 q 283 687 347 711 q 168 616 218 663 q 88 501 118 569 q 58 347 58 433 m 303 347 q 329 473 303 426 q 417 519 356 519 q 504 473 478 519 q 531 347 531 426 q 504 222 531 268 q 417 175 478 175 q 329 222 356 175 q 303 347 303 268 m 417 797 q 510 815 471 797 q 576 865 550 833 q 616 938 603 896 q 631 1025 629 979 l 500 1025 q 475 953 494 981 q 417 925 456 925 q 358 953 378 925 q 333 1025 339 981 l 203 1025 q 217 938 204 979 q 257 865 231 896 q 323 815 283 833 q 417 797 363 797 "},"ő":{"ha":833,"x_min":58,"x_max":775,"o":"m 58 347 q 88 193 58 261 q 168 78 118 125 q 283 8 218 32 q 417 -17 347 -17 q 549 8 485 -17 q 664 78 614 32 q 744 193 714 125 q 775 347 775 261 q 744 501 775 433 q 664 616 714 569 q 549 687 614 663 q 417 711 485 711 q 283 687 347 711 q 168 616 218 663 q 88 501 118 569 q 58 347 58 433 m 303 347 q 329 473 303 426 q 417 519 356 519 q 504 473 478 519 q 531 347 531 426 q 504 222 531 268 q 417 175 478 175 q 329 222 356 175 q 303 347 303 268 m 322 1011 l 228 797 l 372 797 l 508 1011 l 322 1011 m 572 1011 l 478 797 l 622 797 l 758 1011 l 572 1011 "},"ǒ":{"ha":833,"x_min":58,"x_max":775,"o":"m 58 347 q 88 193 58 261 q 168 78 118 125 q 283 8 218 32 q 417 -17 347 -17 q 549 8 485 -17 q 664 78 614 32 q 744 193 714 125 q 775 347 775 261 q 744 501 775 433 q 664 616 714 569 q 549 687 614 663 q 417 711 485 711 q 283 687 347 711 q 168 616 218 663 q 88 501 118 569 q 58 347 58 433 m 303 347 q 329 473 303 426 q 417 519 356 519 q 504 473 478 519 q 531 347 531 426 q 504 222 531 268 q 417 175 478 175 q 329 222 356 175 q 303 347 303 268 m 175 1039 l 317 797 l 517 797 l 658 1039 l 486 1039 l 419 908 l 414 908 l 347 1039 l 175 1039 "},"ọ":{"ha":833,"x_min":58,"x_max":775,"o":"m 58 347 q 88 193 58 261 q 168 78 118 125 q 283 8 218 32 q 417 -17 347 -17 q 549 8 485 -17 q 664 78 614 32 q 744 193 714 125 q 775 347 775 261 q 744 501 775 433 q 664 616 714 569 q 549 687 614 663 q 417 711 485 711 q 283 687 347 711 q 168 616 218 663 q 88 501 118 569 q 58 347 58 433 m 303 347 q 329 473 303 426 q 417 519 356 519 q 504 473 478 519 q 531 347 531 426 q 504 222 531 268 q 417 175 478 175 q 329 222 356 175 q 303 347 303 268 m 417 -367 q 526 -328 483 -367 q 569 -228 569 -290 q 526 -126 569 -165 q 417 -86 483 -86 q 307 -126 350 -86 q 264 -228 264 -165 q 307 -328 264 -290 q 417 -367 350 -367 "},"ỏ":{"ha":833,"x_min":58,"x_max":775,"o":"m 58 347 q 88 193 58 261 q 168 78 118 125 q 283 8 218 32 q 417 -17 347 -17 q 549 8 485 -17 q 664 78 614 32 q 744 193 714 125 q 775 347 775 261 q 744 501 775 433 q 664 616 714 569 q 549 687 614 663 q 417 711 485 711 q 283 687 347 711 q 168 616 218 663 q 88 501 118 569 q 58 347 58 433 m 303 347 q 329 473 303 426 q 417 519 356 519 q 504 473 478 519 q 531 347 531 426 q 504 222 531 268 q 417 175 478 175 q 329 222 356 175 q 303 347 303 268 m 347 867 l 364 775 q 444 786 407 776 q 510 815 482 796 q 556 860 539 833 q 572 925 572 888 q 560 976 572 953 q 519 1017 549 1000 q 442 1045 490 1035 q 322 1058 394 1056 l 294 942 q 379 927 356 938 q 403 900 403 917 q 387 876 403 883 q 347 867 371 869 "},"ố":{"ha":833,"x_min":58,"x_max":839,"o":"m 58 347 q 88 193 58 261 q 168 78 118 125 q 283 8 218 32 q 417 -17 347 -17 q 549 8 485 -17 q 664 78 614 32 q 744 193 714 125 q 775 347 775 261 q 744 501 775 433 q 664 616 714 569 q 549 687 614 663 q 417 711 485 711 q 283 687 347 711 q 168 616 218 663 q 88 501 118 569 q 58 347 58 433 m 303 347 q 329 473 303 426 q 417 519 356 519 q 504 473 478 519 q 531 347 531 426 q 504 222 531 268 q 417 175 478 175 q 329 222 356 175 q 303 347 303 268 m 322 981 l 211 797 l 356 797 l 414 883 l 419 883 l 478 797 l 622 797 l 511 981 l 322 981 m 667 1067 l 575 900 l 706 900 l 839 1067 l 667 1067 "},"ồ":{"ha":833,"x_min":58,"x_max":789,"o":"m 58 347 q 88 193 58 261 q 168 78 118 125 q 283 8 218 32 q 417 -17 347 -17 q 549 8 485 -17 q 664 78 614 32 q 744 193 714 125 q 775 347 775 261 q 744 501 775 433 q 664 616 714 569 q 549 687 614 663 q 417 711 485 711 q 283 687 347 711 q 168 616 218 663 q 88 501 118 569 q 58 347 58 433 m 303 347 q 329 473 303 426 q 417 519 356 519 q 504 473 478 519 q 531 347 531 426 q 504 222 531 268 q 417 175 478 175 q 329 222 356 175 q 303 347 303 268 m 322 981 l 211 797 l 356 797 l 414 883 l 419 883 l 478 797 l 622 797 l 511 981 l 322 981 m 789 900 l 697 1067 l 525 1067 l 658 900 l 789 900 "},"ổ":{"ha":833,"x_min":58,"x_max":794,"o":"m 58 347 q 88 193 58 261 q 168 78 118 125 q 283 8 218 32 q 417 -17 347 -17 q 549 8 485 -17 q 664 78 614 32 q 744 193 714 125 q 775 347 775 261 q 744 501 775 433 q 664 616 714 569 q 549 687 614 663 q 417 711 485 711 q 283 687 347 711 q 168 616 218 663 q 88 501 118 569 q 58 347 58 433 m 303 347 q 329 473 303 426 q 417 519 356 519 q 504 473 478 519 q 531 347 531 426 q 504 222 531 268 q 417 175 478 175 q 329 222 356 175 q 303 347 303 268 m 322 981 l 211 797 l 356 797 l 414 883 l 419 883 l 478 797 l 622 797 l 511 981 l 322 981 m 606 950 l 619 872 q 688 885 656 876 q 743 908 719 893 q 781 948 767 924 q 794 1008 794 972 q 784 1052 794 1032 q 749 1087 774 1072 q 681 1110 724 1101 q 575 1122 639 1119 l 553 1025 q 624 1010 606 1021 q 642 983 642 1000 q 632 960 642 967 q 606 950 622 953 "},"ỗ":{"ha":833,"x_min":58,"x_max":775,"o":"m 58 347 q 88 193 58 261 q 168 78 118 125 q 283 8 218 32 q 417 -17 347 -17 q 549 8 485 -17 q 664 78 614 32 q 744 193 714 125 q 775 347 775 261 q 744 501 775 433 q 664 616 714 569 q 549 687 614 663 q 417 711 485 711 q 283 687 347 711 q 168 616 218 663 q 88 501 118 569 q 58 347 58 433 m 303 347 q 329 473 303 426 q 417 519 356 519 q 504 473 478 519 q 531 347 531 426 q 504 222 531 268 q 417 175 478 175 q 329 222 356 175 q 303 347 303 268 m 308 956 l 200 797 l 353 797 l 414 875 l 419 875 l 481 797 l 633 797 l 525 956 l 308 956 m 206 1006 l 306 1006 q 324 1044 313 1033 q 353 1056 336 1056 q 380 1048 367 1056 q 409 1031 393 1040 q 446 1013 425 1021 q 494 1006 467 1006 q 578 1044 540 1006 q 628 1175 617 1083 l 528 1175 q 509 1136 521 1147 q 481 1125 497 1125 q 453 1133 467 1125 q 424 1150 440 1140 q 388 1167 408 1160 q 339 1175 367 1175 q 255 1136 293 1175 q 206 1006 217 1097 "},"ộ":{"ha":833,"x_min":58,"x_max":775,"o":"m 58 347 q 88 193 58 261 q 168 78 118 125 q 283 8 218 32 q 417 -17 347 -17 q 549 8 485 -17 q 664 78 614 32 q 744 193 714 125 q 775 347 775 261 q 744 501 775 433 q 664 616 714 569 q 549 687 614 663 q 417 711 485 711 q 283 687 347 711 q 168 616 218 663 q 88 501 118 569 q 58 347 58 433 m 303 347 q 329 473 303 426 q 417 519 356 519 q 504 473 478 519 q 531 347 531 426 q 504 222 531 268 q 417 175 478 175 q 329 222 356 175 q 303 347 303 268 m 317 1039 l 175 797 l 347 797 l 414 928 l 419 928 l 486 797 l 658 797 l 517 1039 l 317 1039 m 417 -367 q 526 -328 483 -367 q 569 -228 569 -290 q 526 -126 569 -165 q 417 -86 483 -86 q 307 -126 350 -86 q 264 -228 264 -165 q 307 -328 264 -290 q 417 -367 350 -367 "},"ø":{"ha":833,"x_min":58,"x_max":775,"o":"m 354 188 l 528 397 q 530 374 529 386 q 531 347 531 361 q 504 217 531 268 q 417 167 478 167 q 354 188 379 167 m 478 508 l 306 300 q 303 323 304 311 q 303 347 303 335 q 329 477 303 426 q 417 528 356 528 q 478 508 451 528 m 688 592 l 750 667 l 664 733 l 604 661 q 417 711 518 711 q 283 687 347 711 q 168 616 218 663 q 88 501 118 569 q 58 347 58 433 q 81 211 58 272 q 144 104 104 150 l 83 31 l 169 -36 l 228 35 q 417 -17 315 -17 q 549 8 485 -17 q 664 78 614 32 q 744 193 714 125 q 775 347 775 261 q 751 485 775 424 q 688 592 728 546 "},"œ":{"ha":833,"x_min":17,"x_max":819,"o":"m 231 347 q 245 473 231 426 q 294 519 260 519 q 335 473 322 519 q 349 347 349 426 q 335 222 349 268 q 294 175 322 175 q 245 222 260 175 q 231 347 231 268 m 17 347 q 37 193 17 261 q 92 78 57 125 q 175 8 128 32 q 275 -17 222 -17 q 374 6 336 -17 q 443 72 413 28 q 519 6 474 29 q 613 -17 564 -17 q 706 0 653 -17 q 800 50 758 17 l 719 203 q 669 176 692 183 q 622 169 647 169 q 556 193 585 169 q 511 275 526 217 l 811 275 q 817 318 815 299 q 819 369 819 338 q 805 501 819 439 q 762 610 790 564 q 692 684 733 657 q 599 711 651 711 q 511 685 554 711 q 440 608 468 658 q 378 683 417 654 q 281 711 339 711 q 178 687 226 711 q 94 616 131 663 q 38 501 58 569 q 17 347 17 433 m 633 419 l 508 419 q 535 506 515 481 q 581 531 556 531 q 623 498 613 531 q 633 419 633 465 "},"ơ":{"ha":833,"x_min":58,"x_max":828,"o":"m 417 175 q 329 222 356 175 q 303 347 303 268 q 329 473 303 426 q 417 519 356 519 q 504 473 478 519 q 531 347 531 426 q 504 222 531 268 q 417 175 478 175 m 783 900 l 622 831 q 637 802 629 819 q 644 764 644 785 q 622 704 644 721 q 564 681 599 688 q 417 711 497 711 q 283 687 347 711 q 168 616 218 663 q 88 501 118 569 q 58 347 58 433 q 88 193 58 261 q 168 78 118 125 q 283 8 218 32 q 417 -17 347 -17 q 549 8 485 -17 q 664 78 614 32 q 744 193 714 125 q 775 347 775 261 q 748 493 775 429 q 676 604 721 557 q 785 665 743 622 q 828 781 828 707 q 814 849 828 818 q 783 900 800 881 "},"ớ":{"ha":833,"x_min":58,"x_max":828,"o":"m 417 175 q 329 222 356 175 q 303 347 303 268 q 329 473 303 426 q 417 519 356 519 q 504 473 478 519 q 531 347 531 426 q 504 222 531 268 q 417 175 478 175 m 783 900 l 622 831 q 637 802 629 819 q 644 764 644 785 q 622 704 644 721 q 564 681 599 688 q 417 711 497 711 q 283 687 347 711 q 168 616 218 663 q 88 501 118 569 q 58 347 58 433 q 88 193 58 261 q 168 78 118 125 q 283 8 218 32 q 417 -17 347 -17 q 549 8 485 -17 q 664 78 614 32 q 744 193 714 125 q 775 347 775 261 q 748 493 775 429 q 676 604 721 557 q 785 665 743 622 q 828 781 828 707 q 814 849 828 818 q 783 900 800 881 m 467 797 l 658 1039 l 417 1039 l 294 797 l 467 797 "},"ờ":{"ha":833,"x_min":58,"x_max":828,"o":"m 417 175 q 329 222 356 175 q 303 347 303 268 q 329 473 303 426 q 417 519 356 519 q 504 473 478 519 q 531 347 531 426 q 504 222 531 268 q 417 175 478 175 m 783 900 l 622 831 q 637 802 629 819 q 644 764 644 785 q 622 704 644 721 q 564 681 599 688 q 417 711 497 711 q 283 687 347 711 q 168 616 218 663 q 88 501 118 569 q 58 347 58 433 q 88 193 58 261 q 168 78 118 125 q 283 8 218 32 q 417 -17 347 -17 q 549 8 485 -17 q 664 78 614 32 q 744 193 714 125 q 775 347 775 261 q 748 493 775 429 q 676 604 721 557 q 785 665 743 622 q 828 781 828 707 q 814 849 828 818 q 783 900 800 881 m 175 1039 l 367 797 l 539 797 l 417 1039 l 175 1039 "},"ở":{"ha":833,"x_min":58,"x_max":828,"o":"m 417 175 q 329 222 356 175 q 303 347 303 268 q 329 473 303 426 q 417 519 356 519 q 504 473 478 519 q 531 347 531 426 q 504 222 531 268 q 417 175 478 175 m 783 900 l 622 831 q 637 802 629 819 q 644 764 644 785 q 622 704 644 721 q 564 681 599 688 q 417 711 497 711 q 283 687 347 711 q 168 616 218 663 q 88 501 118 569 q 58 347 58 433 q 88 193 58 261 q 168 78 118 125 q 283 8 218 32 q 417 -17 347 -17 q 549 8 485 -17 q 664 78 614 32 q 744 193 714 125 q 775 347 775 261 q 748 493 775 429 q 676 604 721 557 q 785 665 743 622 q 828 781 828 707 q 814 849 828 818 q 783 900 800 881 m 347 867 l 364 775 q 444 786 407 776 q 510 815 482 796 q 556 860 539 833 q 572 925 572 888 q 560 976 572 953 q 519 1017 549 1000 q 442 1045 490 1035 q 322 1058 394 1056 l 294 942 q 379 927 356 938 q 403 900 403 917 q 387 876 403 883 q 347 867 371 869 "},"ỡ":{"ha":833,"x_min":58,"x_max":828,"o":"m 417 175 q 329 222 356 175 q 303 347 303 268 q 329 473 303 426 q 417 519 356 519 q 504 473 478 519 q 531 347 531 426 q 504 222 531 268 q 417 175 478 175 m 783 900 l 622 831 q 637 802 629 819 q 644 764 644 785 q 622 704 644 721 q 564 681 599 688 q 417 711 497 711 q 283 687 347 711 q 168 616 218 663 q 88 501 118 569 q 58 347 58 433 q 88 193 58 261 q 168 78 118 125 q 283 8 218 32 q 417 -17 347 -17 q 549 8 485 -17 q 664 78 614 32 q 744 193 714 125 q 775 347 775 261 q 748 493 775 429 q 676 604 721 557 q 785 665 743 622 q 828 781 828 707 q 814 849 828 818 q 783 900 800 881 m 164 797 l 164 797 l 283 797 q 308 854 294 839 q 344 869 322 869 q 373 858 358 869 q 406 833 388 847 q 444 808 424 819 q 492 797 465 797 q 606 849 558 797 q 669 1014 654 900 l 550 1014 q 525 957 539 972 q 489 942 511 942 q 460 953 475 942 q 427 978 444 964 q 388 1003 410 992 q 342 1014 367 1014 q 227 963 275 1014 q 164 797 179 911 "},"ợ":{"ha":833,"x_min":58,"x_max":828,"o":"m 417 175 q 329 222 356 175 q 303 347 303 268 q 329 473 303 426 q 417 519 356 519 q 504 473 478 519 q 531 347 531 426 q 504 222 531 268 q 417 175 478 175 m 783 900 l 622 831 q 637 802 629 819 q 644 764 644 785 q 622 704 644 721 q 564 681 599 688 q 417 711 497 711 q 283 687 347 711 q 168 616 218 663 q 88 501 118 569 q 58 347 58 433 q 88 193 58 261 q 168 78 118 125 q 283 8 218 32 q 417 -17 347 -17 q 549 8 485 -17 q 664 78 614 32 q 744 193 714 125 q 775 347 775 261 q 748 493 775 429 q 676 604 721 557 q 785 665 743 622 q 828 781 828 707 q 814 849 828 818 q 783 900 800 881 m 418 -367 q 528 -328 485 -367 q 571 -228 571 -290 q 528 -126 571 -165 q 418 -86 485 -86 q 308 -126 351 -86 q 265 -228 265 -165 q 308 -328 265 -290 q 418 -367 351 -367 "},"ǫ":{"ha":833,"x_min":58,"x_max":775,"o":"m 286 -164 q 331 -262 286 -229 q 442 -294 376 -294 q 522 -281 478 -294 q 594 -244 565 -268 l 547 -139 q 525 -151 538 -146 q 500 -156 513 -156 q 462 -144 479 -156 q 444 -108 444 -133 q 463 -51 444 -81 q 533 3 482 -21 q 632 58 588 26 q 708 131 676 89 q 758 226 740 172 q 775 347 775 279 q 745 501 775 433 q 665 616 715 569 q 551 687 615 663 q 417 711 486 711 q 283 687 347 711 q 168 616 218 663 q 88 501 118 569 q 58 347 58 433 q 83 207 58 269 q 150 99 108 144 q 247 24 192 53 q 363 -12 301 -4 q 312 -73 338 -35 q 286 -164 286 -111 m 303 347 q 329 473 303 426 q 417 519 356 519 q 504 473 478 519 q 531 347 531 426 q 504 222 531 268 q 417 175 478 175 q 329 222 356 175 q 303 347 303 268 "},"ŕ":{"ha":833,"x_min":144,"x_max":767,"o":"m 144 694 l 144 0 l 383 0 l 383 344 q 481 467 422 432 q 599 503 539 503 q 662 498 636 503 q 719 483 688 493 l 767 683 q 710 703 738 696 q 635 711 683 711 q 485 672 556 711 q 364 547 414 633 l 358 547 l 340 694 l 144 694 m 519 797 l 711 1039 l 469 1039 l 347 797 l 519 797 "},"ŗ":{"ha":833,"x_min":132,"x_max":767,"o":"m 144 694 l 144 0 l 383 0 l 383 344 q 481 467 422 432 q 599 503 539 503 q 662 498 636 503 q 719 483 688 493 l 767 683 q 710 703 738 696 q 635 711 683 711 q 485 672 556 711 q 364 547 414 633 l 358 547 l 340 694 l 144 694 m 232 -56 l 232 -56 l 188 -139 q 231 -158 219 -147 q 243 -186 243 -169 q 212 -219 243 -210 q 132 -233 181 -229 l 149 -325 q 249 -314 201 -324 q 333 -285 297 -304 q 391 -240 369 -267 q 413 -175 413 -212 q 373 -92 413 -121 q 232 -56 333 -64 "},"ř":{"ha":833,"x_min":144,"x_max":767,"o":"m 144 694 l 144 0 l 383 0 l 383 344 q 481 467 422 432 q 599 503 539 503 q 662 498 636 503 q 719 483 688 493 l 767 683 q 710 703 738 696 q 635 711 683 711 q 485 672 556 711 q 364 547 414 633 l 358 547 l 340 694 l 144 694 m 228 1039 l 369 797 l 569 797 l 711 1039 l 539 1039 l 472 908 l 467 908 l 400 1039 l 228 1039 "},"ṛ":{"ha":833,"x_min":132,"x_max":767,"o":"m 144 694 l 144 0 l 383 0 l 383 344 q 481 467 422 432 q 599 503 539 503 q 662 498 636 503 q 719 483 688 493 l 767 683 q 710 703 738 696 q 635 711 683 711 q 485 672 556 711 q 364 547 414 633 l 358 547 l 340 694 l 144 694 m 285 -367 q 394 -328 351 -367 q 438 -228 438 -290 q 394 -126 438 -165 q 285 -86 351 -86 q 175 -126 218 -86 q 132 -228 132 -165 q 175 -328 132 -290 q 285 -367 218 -367 "},"ṝ":{"ha":833,"x_min":132,"x_max":767,"o":"m 144 694 l 144 0 l 383 0 l 383 344 q 481 467 422 432 q 599 503 539 503 q 662 498 636 503 q 719 483 688 493 l 767 683 q 710 703 738 696 q 635 711 683 711 q 485 672 556 711 q 364 547 414 633 l 358 547 l 340 694 l 144 694 m 269 967 l 269 817 l 669 817 l 669 967 l 269 967 m 285 -367 q 394 -328 351 -367 q 438 -228 438 -290 q 394 -126 438 -165 q 285 -86 351 -86 q 175 -126 218 -86 q 132 -228 132 -165 q 175 -328 132 -290 q 285 -367 218 -367 "},"ṟ":{"ha":833,"x_min":85,"x_max":767,"o":"m 144 694 l 144 0 l 383 0 l 383 344 q 481 467 422 432 q 599 503 539 503 q 662 498 636 503 q 719 483 688 493 l 767 683 q 710 703 738 696 q 635 711 683 711 q 485 672 556 711 q 364 547 414 633 l 358 547 l 340 694 l 144 694 m 485 -272 l 485 -122 l 85 -122 l 85 -272 l 485 -272 "},"ś":{"ha":833,"x_min":64,"x_max":758,"o":"m 169 236 l 64 89 q 222 14 131 44 q 403 -17 313 -17 q 556 1 490 -17 q 667 49 622 18 q 735 123 713 81 q 758 214 758 165 q 736 295 758 261 q 678 353 714 329 q 599 394 643 378 q 510 422 554 410 q 447 439 476 431 q 394 456 417 447 q 358 474 371 464 q 344 497 344 483 q 368 527 344 518 q 446 536 392 536 q 544 518 496 536 q 642 472 593 500 l 747 614 q 615 680 692 649 q 440 711 539 711 q 303 695 364 711 q 198 650 242 679 q 131 579 154 621 q 107 486 107 538 q 129 410 107 443 q 186 353 151 378 q 264 310 221 328 q 350 281 307 293 q 415 262 383 271 q 469 244 446 253 q 507 224 493 235 q 521 200 521 214 q 496 169 521 179 q 408 158 471 158 q 289 179 347 158 q 169 236 231 200 m 489 797 l 681 1039 l 439 1039 l 317 797 l 489 797 "},"ŝ":{"ha":833,"x_min":64,"x_max":758,"o":"m 169 236 l 64 89 q 222 14 131 44 q 403 -17 313 -17 q 556 1 490 -17 q 667 49 622 18 q 735 123 713 81 q 758 214 758 165 q 736 295 758 261 q 678 353 714 329 q 599 394 643 378 q 510 422 554 410 q 447 439 476 431 q 394 456 417 447 q 358 474 371 464 q 344 497 344 483 q 368 527 344 518 q 446 536 392 536 q 544 518 496 536 q 642 472 593 500 l 747 614 q 615 680 692 649 q 440 711 539 711 q 303 695 364 711 q 198 650 242 679 q 131 579 154 621 q 107 486 107 538 q 129 410 107 443 q 186 353 151 378 q 264 310 221 328 q 350 281 307 293 q 415 262 383 271 q 469 244 446 253 q 507 224 493 235 q 521 200 521 214 q 496 169 521 179 q 408 158 471 158 q 289 179 347 158 q 169 236 231 200 m 339 1039 l 197 797 l 369 797 l 436 928 l 442 928 l 508 797 l 681 797 l 539 1039 l 339 1039 "},"š":{"ha":833,"x_min":64,"x_max":758,"o":"m 169 236 l 64 89 q 222 14 131 44 q 403 -17 313 -17 q 556 1 490 -17 q 667 49 622 18 q 735 123 713 81 q 758 214 758 165 q 736 295 758 261 q 678 353 714 329 q 599 394 643 378 q 510 422 554 410 q 447 439 476 431 q 394 456 417 447 q 358 474 371 464 q 344 497 344 483 q 368 527 344 518 q 446 536 392 536 q 544 518 496 536 q 642 472 593 500 l 747 614 q 615 680 692 649 q 440 711 539 711 q 303 695 364 711 q 198 650 242 679 q 131 579 154 621 q 107 486 107 538 q 129 410 107 443 q 186 353 151 378 q 264 310 221 328 q 350 281 307 293 q 415 262 383 271 q 469 244 446 253 q 507 224 493 235 q 521 200 521 214 q 496 169 521 179 q 408 158 471 158 q 289 179 347 158 q 169 236 231 200 m 197 1039 l 339 797 l 539 797 l 681 1039 l 508 1039 l 442 908 l 436 908 l 369 1039 l 197 1039 "},"ş":{"ha":833,"x_min":64,"x_max":758,"o":"m 169 236 l 64 89 q 222 14 131 44 q 403 -17 313 -17 q 556 1 490 -17 q 667 49 622 18 q 735 123 713 81 q 758 214 758 165 q 736 295 758 261 q 678 353 714 329 q 599 394 643 378 q 510 422 554 410 q 447 439 476 431 q 394 456 417 447 q 358 474 371 464 q 344 497 344 483 q 368 527 344 518 q 446 536 392 536 q 544 518 496 536 q 642 472 593 500 l 747 614 q 615 680 692 649 q 440 711 539 711 q 303 695 364 711 q 198 650 242 679 q 131 579 154 621 q 107 486 107 538 q 129 410 107 443 q 186 353 151 378 q 264 310 221 328 q 350 281 307 293 q 415 262 383 271 q 469 244 446 253 q 507 224 493 235 q 521 200 521 214 q 496 169 521 179 q 408 158 471 158 q 289 179 347 158 q 169 236 231 200 m 367 6 l 311 -106 q 374 -132 360 -118 q 389 -161 389 -146 q 358 -202 389 -189 q 278 -219 326 -215 l 294 -311 q 395 -300 347 -310 q 479 -272 443 -290 q 537 -226 515 -253 q 558 -161 558 -199 q 536 -92 558 -117 q 478 -56 514 -68 l 503 6 l 367 6 "},"ș":{"ha":833,"x_min":64,"x_max":758,"o":"m 169 236 l 64 89 q 222 14 131 44 q 403 -17 313 -17 q 556 1 490 -17 q 667 49 622 18 q 735 123 713 81 q 758 214 758 165 q 736 295 758 261 q 678 353 714 329 q 599 394 643 378 q 510 422 554 410 q 447 439 476 431 q 394 456 417 447 q 358 474 371 464 q 344 497 344 483 q 368 527 344 518 q 446 536 392 536 q 544 518 496 536 q 642 472 593 500 l 747 614 q 615 680 692 649 q 440 711 539 711 q 303 695 364 711 q 198 650 242 679 q 131 579 154 621 q 107 486 107 538 q 129 410 107 443 q 186 353 151 378 q 264 310 221 328 q 350 281 307 293 q 415 262 383 271 q 469 244 446 253 q 507 224 493 235 q 521 200 521 214 q 496 169 521 179 q 408 158 471 158 q 289 179 347 158 q 169 236 231 200 m 372 -56 l 372 -56 l 328 -139 q 372 -158 360 -147 q 383 -186 383 -169 q 352 -219 383 -210 q 272 -233 321 -229 l 289 -325 q 390 -314 342 -324 q 474 -285 438 -304 q 531 -240 510 -267 q 553 -175 553 -212 q 513 -92 553 -121 q 372 -56 474 -64 "},"ṡ":{"ha":833,"x_min":64,"x_max":758,"o":"m 169 236 l 64 89 q 222 14 131 44 q 403 -17 313 -17 q 556 1 490 -17 q 667 49 622 18 q 735 123 713 81 q 758 214 758 165 q 736 295 758 261 q 678 353 714 329 q 599 394 643 378 q 510 422 554 410 q 447 439 476 431 q 394 456 417 447 q 358 474 371 464 q 344 497 344 483 q 368 527 344 518 q 446 536 392 536 q 544 518 496 536 q 642 472 593 500 l 747 614 q 615 680 692 649 q 440 711 539 711 q 303 695 364 711 q 198 650 242 679 q 131 579 154 621 q 107 486 107 538 q 129 410 107 443 q 186 353 151 378 q 264 310 221 328 q 350 281 307 293 q 415 262 383 271 q 469 244 446 253 q 507 224 493 235 q 521 200 521 214 q 496 169 521 179 q 408 158 471 158 q 289 179 347 158 q 169 236 231 200 m 439 781 q 549 819 506 781 q 592 919 592 857 q 549 1022 592 982 q 439 1061 506 1061 q 329 1022 372 1061 q 286 919 286 982 q 329 819 286 857 q 439 781 372 781 "},"ṣ":{"ha":833,"x_min":64,"x_max":758,"o":"m 169 236 l 64 89 q 222 14 131 44 q 403 -17 313 -17 q 556 1 490 -17 q 667 49 622 18 q 735 123 713 81 q 758 214 758 165 q 736 295 758 261 q 678 353 714 329 q 599 394 643 378 q 510 422 554 410 q 447 439 476 431 q 394 456 417 447 q 358 474 371 464 q 344 497 344 483 q 368 527 344 518 q 446 536 392 536 q 544 518 496 536 q 642 472 593 500 l 747 614 q 615 680 692 649 q 440 711 539 711 q 303 695 364 711 q 198 650 242 679 q 131 579 154 621 q 107 486 107 538 q 129 410 107 443 q 186 353 151 378 q 264 310 221 328 q 350 281 307 293 q 415 262 383 271 q 469 244 446 253 q 507 224 493 235 q 521 200 521 214 q 496 169 521 179 q 408 158 471 158 q 289 179 347 158 q 169 236 231 200 m 425 -367 q 535 -328 492 -367 q 578 -228 578 -290 q 535 -126 578 -165 q 425 -86 492 -86 q 315 -126 358 -86 q 272 -228 272 -165 q 315 -328 272 -290 q 425 -367 358 -367 "},"ß":{"ha":833,"x_min":69,"x_max":797,"o":"m 69 675 l 69 0 l 308 0 l 308 664 q 329 760 308 722 q 399 797 350 797 q 439 776 424 797 q 454 725 454 756 q 444 658 454 686 q 420 602 433 629 q 397 546 407 575 q 386 478 386 517 q 416 371 386 411 q 482 303 446 331 q 548 253 518 276 q 578 200 578 231 q 567 169 578 179 q 540 158 556 158 q 436 192 492 158 l 358 31 q 449 -5 407 7 q 549 -17 492 -17 q 658 2 611 -17 q 735 53 704 21 q 782 128 767 85 q 797 219 797 171 q 783 303 797 268 q 748 365 769 339 q 701 409 726 390 q 655 444 676 428 q 619 474 633 460 q 606 508 606 489 q 617 551 606 531 q 640 597 628 572 q 664 656 653 622 q 675 739 675 690 q 659 828 675 785 q 609 907 643 872 q 523 963 575 942 q 399 983 471 983 q 252 959 314 983 q 149 893 190 935 q 89 795 108 851 q 69 675 69 739 "},"ť":{"ha":833,"x_min":58,"x_max":767,"o":"m 225 508 l 225 294 q 242 167 225 225 q 295 69 258 110 q 391 6 332 28 q 536 -17 450 -17 q 664 -5 607 -17 q 767 19 721 7 l 725 192 q 666 176 697 182 q 599 169 635 169 q 498 197 532 169 q 464 299 464 224 l 464 508 l 739 508 l 739 694 l 464 694 l 464 875 l 267 875 l 236 694 l 58 686 l 58 508 l 225 508 m 539 761 l 639 761 l 678 972 l 681 1075 l 531 1075 l 539 761 "}}}
